<svg width="338" height="496" viewBox="0 0 338 496" fill="none" xmlns="http://www.w3.org/2000/svg">
<path d="M247.107 1.38682C247.32 1.33349 247.72 1.21349 247.934 1.16016C248.2 4.53349 248.36 7.90682 248.347 11.2935C234.894 16.6668 222.32 23.9735 209.92 31.4135C205.28 34.0402 201.32 37.6402 197.12 40.8935C183.107 49.0668 169.214 57.5202 154.427 64.2535C150.96 65.4935 147.56 66.9602 144.534 69.1068C143.947 65.4268 143.867 61.7068 143.88 58.0002C162.814 50.4002 180.907 40.8268 198.48 30.4935C203.107 27.6402 207.227 23.9468 212.28 21.8135C218.96 18.9735 225.947 16.6802 232.054 12.6268C231.974 11.9068 231.827 10.4668 231.747 9.73349C236.814 7.68016 242.187 6.14682 246.84 3.25349C246.907 2.78682 247.04 1.85349 247.107 1.38682Z" fill="#894B33" stroke="#894B33" stroke-width="0.333333"/>
<path d="M247.934 1.16016C252.427 1.28016 254.6 6.30682 258.014 8.65348C270.48 18.8001 281.827 30.2268 293.547 41.2135C305.974 52.2535 317.894 63.8535 330.48 74.7068C329.907 78.2135 327.04 80.0002 324.04 81.3202C323.134 80.6002 322.24 79.8668 321.387 79.1068C307.707 66.5468 293.614 54.4402 279.654 42.1735C270.134 33.2135 260.494 24.3735 250.987 15.4135C250.054 14.0668 249.2 12.6802 248.347 11.2935C248.36 7.90682 248.2 4.53349 247.934 1.16016Z" fill="#FCF1B1" stroke="#FCF1B1" stroke-width="0.333333"/>
<path d="M114.013 36.9334C158.293 24.7867 202.92 13.8401 247.106 1.38672C247.04 1.85339 246.906 2.78672 246.84 3.25339C242.186 6.14672 236.813 7.68006 231.746 9.73339C220.84 14.0934 209.373 16.6134 198.093 19.7201C169.506 26.2667 141.346 34.5601 112.706 40.8934C105.666 42.1734 98.7996 44.9067 91.5596 44.6401C98.1729 40.0401 106.453 39.2 114.013 36.9334Z" fill="#FBF3B2" stroke="#FBF3B2" stroke-width="0.333333"/>
<path d="M198.093 19.7201C209.373 16.6134 220.84 14.0934 231.746 9.7334C231.826 10.4667 231.973 11.9067 232.053 12.6267C225.946 16.6801 218.96 18.9734 212.28 21.8134C207.227 23.9467 203.106 27.6401 198.48 30.4934C180.906 40.8267 162.813 50.4001 143.88 58.0001C126.613 61.2267 109.96 66.9734 93.1465 71.9334C64.9598 79.9867 37.0931 89.1067 8.77314 96.6801C6.46648 97.5734 4.0798 96.7734 1.7998 96.2934C17.3331 87.5467 32.7331 78.5734 48.3998 70.0401C63.1998 62.2934 77.5198 53.7067 91.5598 44.6401C98.7998 44.9067 105.666 42.1734 112.706 40.8934C141.346 34.5601 169.506 26.2667 198.093 19.7201Z" fill="#AC6D44" stroke="#AC6D44" stroke-width="0.333333"/>
<path d="M209.92 31.413C222.32 23.973 234.893 16.6663 248.347 11.293C249.2 12.6796 250.053 14.0663 250.987 15.413C245.987 17.7596 241.227 20.5863 236.373 23.213C234.573 24.1996 232.733 25.0796 230.853 25.893C223.507 29.3596 215.987 32.5996 209.013 36.8263L210.827 37.173C210.653 37.693 210.307 38.7196 210.133 39.2396C208.293 38.8263 206.44 38.6396 204.56 38.6663L203.453 40.0396C201.44 40.853 199.213 40.693 197.12 40.893C201.32 37.6396 205.28 34.0396 209.92 31.413Z" fill="#F7E397" stroke="#F7E397" stroke-width="0.333333"/>
<path d="M236.373 23.2131C241.226 20.5864 245.986 17.7598 250.986 15.4131C260.493 24.3731 270.133 33.2131 279.653 42.1731C275.693 49.6398 286 53.4531 286.813 60.1598C287.173 63.1598 289.653 65.0931 291.666 67.0798C297.413 72.4931 302.773 78.5864 309.746 82.4798C313.853 82.6664 318.093 81.6664 321.386 79.1064C322.24 79.8664 323.133 80.5998 324.04 81.3198C324.64 81.9864 325.84 83.3064 326.44 83.9731C321.506 84.3198 316.36 84.4131 311.773 86.5198C310.333 86.9998 310.013 88.6131 309.533 89.8531C308.306 87.8131 307.013 85.7731 305.226 84.1864C297.293 77.1331 288.48 71.0398 281.173 63.2931C281 61.7598 280.853 60.1331 279.653 59.0131C271.293 48.7731 260.96 40.3864 250.746 32.0931C246.253 28.6798 241.773 25.0798 236.373 23.2131Z" fill="#623326" stroke="#623326" stroke-width="0.333333"/>
<path d="M230.853 25.8929C232.733 25.0796 234.573 24.1996 236.373 23.2129C241.773 25.0796 246.253 28.6796 250.746 32.0929C260.96 40.3862 271.293 48.7729 279.653 59.0129C280.853 60.1329 281 61.7596 281.173 63.2929C276.92 59.3196 272.293 55.6796 267.293 52.7062C264.213 51.6529 260.88 51.7862 257.72 51.1596C239.56 47.8262 221.413 44.3196 203.453 40.0396L204.56 38.6662C206.44 38.6396 208.293 38.8262 210.133 39.2396C219.946 41.8129 229.933 43.6662 239.866 45.7462C247.106 46.7596 254.293 48.7995 261.666 48.1195C260.466 47.6395 259.306 47.1596 258.093 46.7329C249.6 39.1329 240.706 31.7062 230.853 25.8929Z" fill="#09070A" stroke="#09070A" stroke-width="0.333333"/>
<path d="M209.014 36.8269C215.987 32.6002 223.507 29.3602 230.854 25.8936C240.707 31.7069 249.6 39.1336 258.094 46.7336C254.52 46.8002 250.494 47.5336 247.48 45.0802C240.347 39.8536 232.254 35.4136 223.307 34.4936C218.934 33.8936 214.894 35.9469 210.827 37.1736L209.014 36.8269Z" fill="#AE643B" stroke="#AE643B" stroke-width="0.333333"/>
<path d="M210.827 37.1732C214.894 35.9465 218.934 33.8932 223.307 34.4932C232.254 35.4132 240.347 39.8532 247.48 45.0799C250.494 47.5332 254.52 46.7999 258.094 46.7332C259.307 47.1599 260.467 47.6399 261.667 48.1199C254.294 48.7999 247.107 46.7599 239.867 45.7465C229.934 43.6665 219.947 41.8132 210.134 39.2399C210.307 38.7199 210.654 37.6932 210.827 37.1732Z" fill="#F8DF7E" stroke="#F8DF7E" stroke-width="0.333333"/>
<path d="M197.12 40.8934C199.213 40.6934 201.44 40.8534 203.453 40.04C221.413 44.32 239.56 47.8267 257.72 51.16C261.48 53.72 264.773 56.8667 267.92 60.1467C274.36 66.8667 281.467 72.8934 288.387 79.0934C282.88 82.5334 276.293 81.9334 270.107 82.2134C272.173 83.8 274.253 85.36 276.36 86.9067C272.827 86.8534 269.307 87.0667 265.787 87.1734C246.613 84.1067 227.867 78.7334 208.8 75.08C195.76 72.48 183.027 68.4667 169.853 66.4934C164.72 65.7067 159.32 66.3334 154.427 64.2534C169.213 57.52 183.107 49.0667 197.12 40.8934Z" fill="#FDF3B0" stroke="#FDF3B0" stroke-width="0.333333"/>
<path d="M279.653 42.1729C293.613 54.4395 307.707 66.5462 321.387 79.1062C318.093 81.6662 313.853 82.6662 309.747 82.4795C302.773 78.5862 297.413 72.4929 291.667 67.0795C289.653 65.0929 287.173 63.1595 286.813 60.1595C286 53.4529 275.693 49.6395 279.653 42.1729Z" fill="#723D26" stroke="#723D26" stroke-width="0.333333"/>
<path d="M257.72 51.1602C260.88 51.7868 264.213 51.6535 267.293 52.7068C272.293 55.6802 276.92 59.3202 281.173 63.2935C288.48 71.0402 297.293 77.1335 305.226 84.1868C307.013 85.7735 308.306 87.8135 309.533 89.8535C309.346 92.2135 308.893 94.5468 308.413 96.8668C306.52 95.7335 304.76 94.4002 303.306 92.7335C298.773 87.7202 293.506 83.4802 288.386 79.0935C281.466 72.8935 274.36 66.8668 267.92 60.1468C264.773 56.8668 261.48 53.7202 257.72 51.1602Z" fill="#D69554" stroke="#D69554" stroke-width="0.333333"/>
<path d="M93.1466 71.9333C109.96 66.9733 126.613 61.2267 143.88 58C143.867 61.7067 143.947 65.4267 144.533 69.1067L145.147 70.4133C141.493 68.3467 137.533 70.3733 133.827 71.0933C106.427 77.3867 80.0533 87.3333 52.9999 94.8133C43.7199 97.9333 33.8933 99.2133 24.8133 102.947C43.2533 98.9733 61.1466 92.9067 79.4533 88.4C89.2266 85.8933 98.7999 82.6667 108.64 80.4267C116.907 78.5333 125.2 76.76 133.4 74.5733C137.107 73.6133 141 72.3867 144.8 73.5867C144.827 77.8533 144.787 82.1333 144.667 86.4133C138.88 87.16 133.32 88.9333 127.707 90.44C95.9066 98.8 63.9333 106.507 31.7466 113.147C27.8933 113.907 24.1333 115.013 20.3866 116.16C19.8799 116.093 18.8666 115.973 18.3733 115.92C16.9999 113.32 15.8533 110.613 14.6399 107.96C10.4399 108.627 6.18659 109.04 1.93326 108.827C1.73326 104.733 1.39992 100.64 0.919922 96.56L1.79992 96.2933C4.07992 96.7733 6.46659 97.5733 8.77326 96.68C37.0933 89.1067 64.9599 79.9867 93.1466 71.9333Z" fill="#4C2F28" stroke="#4C2F28" stroke-width="0.333333"/>
<path d="M144.533 69.1063C147.56 66.9596 150.96 65.4929 154.427 64.2529C159.32 66.3329 164.72 65.7063 169.853 66.4929C183.027 68.4663 195.76 72.4796 208.8 75.0796C227.867 78.7329 246.613 84.1063 265.787 87.1729C266.187 88.0129 267 89.6929 267.4 90.5329C231.52 84.3863 195.48 79.1996 159.587 73.1596C154.773 72.2129 149.787 72.0529 145.147 70.4129L144.533 69.1063Z" fill="#F7E499" stroke="#F7E499" stroke-width="0.333333"/>
<path d="M133.827 71.0932C137.533 70.3732 141.493 68.3466 145.147 70.4132C149.787 72.0532 154.773 72.2132 159.587 73.1599C195.48 79.1999 231.52 84.3866 267.4 90.5332C268.947 90.7866 270.493 91.0399 272.053 91.2932C269.987 91.7866 267.947 92.3866 265.893 92.8932C227.76 86.8266 189.667 80.5866 151.427 75.1999C149.2 74.7466 147.013 74.1199 144.8 73.5866C141 72.3866 137.107 73.6132 133.4 74.5732C125.2 76.7599 116.907 78.5332 108.64 80.4266C98.8001 82.6666 89.2268 85.8932 79.4535 88.3999C61.1468 92.9066 43.2535 98.9733 24.8135 102.947C33.8935 99.2133 43.7201 97.9332 53.0001 94.8132C80.0535 87.3332 106.427 77.3866 133.827 71.0932Z" fill="#150F0B" stroke="#150F0B" stroke-width="0.333333"/>
<path d="M144.8 73.5869C147.013 74.1202 149.2 74.7469 151.427 75.2002C149.28 74.9869 147.133 74.7869 144.973 74.6269C145.373 82.3469 145.747 90.0802 145.68 97.8136C145.027 105.427 145.373 113.054 145.387 120.68C145.24 123.534 145.467 126.68 143.827 129.187C140.733 130.8 137.24 131.4 133.893 132.267C121.533 135.147 109.16 138.014 96.7334 140.64C75.6801 144.84 55.0801 150.934 34.1601 155.734C31.4534 156.32 28.6534 157.147 26.9334 159.48C28.08 159.52 30.3601 159.574 31.4934 159.6C29.3334 160.187 27.1734 160.734 24.9867 161.24C25.0667 149.854 22.8134 138.574 22.6267 127.187C22.4134 123.454 22.7867 119.32 20.3867 116.16C24.1334 115.014 27.8934 113.907 31.7467 113.147C63.9334 106.507 95.9067 98.8002 127.707 90.4402C133.32 88.9336 138.88 87.1602 144.667 86.4136C144.787 82.1336 144.827 77.8536 144.8 73.5869Z" fill="#935637" stroke="#935637" stroke-width="0.333333"/>
<path d="M144.974 74.627C147.134 74.787 149.28 74.987 151.427 75.2003C189.667 80.587 227.76 86.8269 265.894 92.8936C279.4 94.7869 292.667 98.3203 306.187 99.9736C306.534 107.347 306.427 114.747 305.974 122.12C305.4 129.627 305.334 137.2 306.054 144.694C304.187 141.854 301.667 139.04 297.987 139.014C273.24 136.08 248.48 133.174 223.787 129.88C212.134 127.8 200.334 126.68 188.64 124.787C175.027 122.734 161.227 121.747 147.72 118.934C147.6 112.587 148.454 105.947 145.747 99.9736C145.734 99.4403 145.694 98.347 145.68 97.8136C145.747 90.0803 145.374 82.347 144.974 74.627Z" fill="#FDF4B2" stroke="#FDF4B2" stroke-width="0.333333"/>
<path d="M330.48 74.707C332.907 76.7604 335.28 78.867 337.653 80.987C335.08 83.7737 331.053 84.587 327.427 83.987L326.44 83.9737C325.84 83.307 324.64 81.987 324.04 81.3204C327.04 80.0004 329.907 78.2137 330.48 74.707Z" fill="#FAE8A0" stroke="#FAE8A0" stroke-width="0.333333"/>
<path d="M288.387 79.0938C293.507 83.4804 298.774 87.7204 303.307 92.7338C304.76 94.4004 306.52 95.7337 308.414 96.8671C308.467 97.1604 308.574 97.7471 308.627 98.0404C296.307 96.5737 284.32 93.1204 272.054 91.2938C270.494 91.0404 268.947 90.7871 267.4 90.5337C267 89.6937 266.187 88.0138 265.787 87.1738C269.307 87.0671 272.827 86.8537 276.36 86.9071C274.254 85.3604 272.174 83.8004 270.107 82.2138C276.294 81.9338 282.88 82.5338 288.387 79.0938Z" fill="#FDEDA2" stroke="#FDEDA2" stroke-width="0.333333"/>
<path d="M311.774 86.5203C316.36 84.4136 321.507 84.3203 326.44 83.9736C326.574 84.5336 326.84 85.667 326.974 86.2403C321.694 87.8936 316.2 88.7203 310.934 90.4136C309.28 92.467 310.187 95.6536 311.534 97.6403C310.2 98.1736 308.867 98.7203 307.547 99.267C306.04 106.814 306.707 114.507 305.974 122.12C306.427 114.747 306.534 107.347 306.187 99.9736C292.667 98.3203 279.4 94.787 265.894 92.8936C267.947 92.387 269.987 91.787 272.054 91.2936C284.32 93.1203 296.307 96.5736 308.627 98.0403C308.574 97.747 308.467 97.1603 308.414 96.867C308.894 94.547 309.347 92.2136 309.534 89.8536C310.014 88.6136 310.334 87.0003 311.774 86.5203Z" fill="#1C1817" stroke="#1C1817" stroke-width="0.333333"/>
<path d="M173.48 92.0268C177.2 85.9601 187.013 89.2801 189.067 95.1601C189.747 100.453 185.48 105.147 180.64 106.613C174.213 105.413 171.747 97.6534 173.48 92.0268Z" fill="#16171D" stroke="#16171D" stroke-width="0.333333"/>
<path d="M145.387 120.68C145.374 113.053 145.027 105.427 145.68 97.8135C145.694 98.3468 145.734 99.4401 145.747 99.9735C145.36 109.147 145.894 118.333 145.48 127.52C167.614 130.44 189.8 132.827 211.96 135.507C231 138.107 250.027 140.76 269.094 143.173C268.48 143.747 267.267 144.893 266.654 145.48C236.654 142.187 206.854 137.107 176.787 134.347C166.214 133.333 155.707 131.533 145.067 131.347C145.04 131.787 144.987 132.68 144.96 133.12C143.027 133.787 141.094 134.44 139.134 135.027C132.494 136.813 125.707 137.92 119.054 139.64C111.547 141.467 103.987 143.067 96.4802 144.867C95.4135 145.107 93.2669 145.6 92.2002 145.84C93.4269 143.88 94.8535 142.027 96.7335 140.64C109.16 138.013 121.534 135.147 133.894 132.267C137.24 131.4 140.734 130.8 143.827 129.187C145.467 126.68 145.24 123.533 145.387 120.68Z" fill="#181313" stroke="#181313" stroke-width="0.333333"/>
<path d="M145.747 99.9736C148.454 105.947 147.6 112.587 147.72 118.934C161.227 121.747 175.027 122.734 188.64 124.787C200.334 126.68 212.134 127.8 223.787 129.88C220.827 133.467 216.12 134.134 211.96 135.507C189.8 132.827 167.614 130.44 145.48 127.52C145.894 118.334 145.36 109.147 145.747 99.9736Z" fill="#F4D890" stroke="#F4D890" stroke-width="0.333333"/>
<path d="M263.853 102.547C268.72 100.493 275.293 103.04 276.493 108.467C278.653 114.547 270.72 121.773 265.12 117.653C259.613 115.027 257.92 105.547 263.853 102.547Z" fill="#1C1723" stroke="#1C1723" stroke-width="0.333333"/>
<path d="M223.787 129.88C248.48 133.173 273.24 136.08 297.987 139.013C301.667 139.04 304.187 141.853 306.053 144.693C306.147 145.52 306.32 147.147 306.4 147.96C293.92 146.973 281.6 144.227 269.093 143.173C250.027 140.76 231 138.107 211.96 135.507C216.12 134.133 220.827 133.467 223.787 129.88Z" fill="#F9DF96" stroke="#F9DF96" stroke-width="0.333333"/>
<path d="M145.067 131.347C155.707 131.533 166.213 133.333 176.787 134.347C206.853 137.107 236.653 142.187 266.653 145.48C278.08 146.76 289.413 149.28 300.907 149.72C302.2 154.587 301.72 159.64 301.76 164.613C301.693 171.573 301.893 178.533 301.56 185.48C301.427 187 301.267 188.507 301.08 190.027C277.653 187.867 254.32 184.893 230.907 182.493C215.053 181.147 199.147 180.4 183.28 179.133C171.293 178.507 159.427 176.533 147.467 175.6C147.227 177.787 146.987 179.973 146.76 182.173C150.253 182.72 153.693 183.587 157.093 184.627C153.2 184.2 149.293 183.92 145.387 184.093C147.013 180.987 146.173 177.333 146.333 173.973C145.853 160.36 145.28 146.747 144.96 133.12C144.987 132.68 145.04 131.787 145.067 131.347Z" fill="#FDEDAA" stroke="#FDEDAA" stroke-width="0.333333"/>
<path d="M139.134 135.027C141.094 134.44 143.027 133.787 144.96 133.12C145.28 146.747 145.854 160.36 146.334 173.973C146.174 177.333 147.014 180.987 145.387 184.093C132.547 185.88 119.707 187.773 107 190.373C88.0804 194.08 69.067 197.347 50.2004 201.373C42.6804 202.867 35.2004 205.027 27.4804 205.147C29.0537 204.867 30.627 204.613 32.2004 204.373C30.9604 192.92 31.0004 181.373 29.5604 169.947C28.2804 169.653 26.987 169.373 25.707 169.093C30.3737 169.653 34.7737 167.853 39.2004 166.72C61.5737 160.64 84.2004 155.56 106.8 150.373C112.334 149.32 117.787 147.827 123.294 146.64C129.774 145.013 136.4 143.68 142.574 141.053C144.854 139.8 143.64 136.827 144.027 134.787C142.8 134.84 140.36 134.96 139.134 135.027Z" fill="#533127" stroke="#533127" stroke-width="0.333333"/>
<path d="M119.054 139.64C125.707 137.92 132.494 136.814 139.134 135.027C140.36 134.96 142.8 134.84 144.027 134.787C143.64 136.827 144.854 139.8 142.574 141.054C136.4 143.68 129.774 145.014 123.294 146.64C121.454 144.587 119.947 142.254 119.054 139.64Z" fill="#CC723E" stroke="#CC723E" stroke-width="0.333333"/>
<path d="M96.4805 144.866C103.987 143.066 111.547 141.466 119.054 139.64C119.947 142.253 121.454 144.586 123.294 146.64C117.787 147.826 112.334 149.32 106.8 150.373C104.534 148.8 101.814 148.4 99.1338 148.106C98.2405 147.026 97.3605 145.946 96.4805 144.866Z" fill="#E38C4F" stroke="#E38C4F" stroke-width="0.333333"/>
<path d="M34.1603 155.733C55.0803 150.933 75.6803 144.84 96.7336 140.64C94.8536 142.026 93.4269 143.88 92.2003 145.84C72.6669 150.346 53.1469 154.866 33.5469 159.066C33.0403 159.2 32.0136 159.466 31.4936 159.6C30.3603 159.573 28.0803 159.52 26.9336 159.48C28.6536 157.146 31.4536 156.32 34.1603 155.733Z" fill="#2B1A18" stroke="#2B1A18" stroke-width="0.333333"/>
<path d="M177.267 142.893C181.147 141.587 186.107 142.92 188.534 146.333C191.32 150.933 188.214 157.347 183.307 158.88C175.027 161.133 169.36 146.453 177.267 142.893Z" fill="#161820" stroke="#161820" stroke-width="0.333333"/>
<path d="M269.093 143.174C281.6 144.227 293.92 146.974 306.4 147.96C304.56 148.52 302.747 149.147 300.907 149.72C289.413 149.28 278.08 146.76 266.653 145.48C267.267 144.894 268.48 143.747 269.093 143.174Z" fill="#29303A" stroke="#29303A" stroke-width="0.333333"/>
<path d="M33.5469 159.066C53.1469 154.866 72.6669 150.346 92.2002 145.84C93.2669 145.6 95.4135 145.106 96.4802 144.866C97.3602 145.946 98.2402 147.026 99.1335 148.106C101.814 148.4 104.534 148.8 106.8 150.373C84.2002 155.56 61.5735 160.64 39.2002 166.72C37.0935 165.893 37.7735 163.693 37.7469 161.946C36.3469 160.973 34.9469 160.013 33.5469 159.066Z" fill="#F4AD65" stroke="#F4AD65" stroke-width="0.333333"/>
<path d="M258.48 154.654C262.947 152.307 269.227 154.347 271.987 158.454C276.213 165.2 265.32 174.627 259.76 168.267C256.96 164.734 254.013 157.934 258.48 154.654Z" fill="#14161B" stroke="#14161B" stroke-width="0.333333"/>
<path d="M31.493 159.6C32.013 159.466 33.0397 159.2 33.5463 159.066C34.9463 160.013 36.3463 160.973 37.7463 161.946C37.773 163.693 37.093 165.893 39.1997 166.72C34.773 167.853 30.373 169.653 25.7063 169.093C25.3197 166.493 24.9997 163.88 24.9863 161.24C27.173 160.733 29.333 160.186 31.493 159.6Z" fill="#E89E55" stroke="#E89E55" stroke-width="0.333333"/>
<path d="M147.466 175.6C159.426 176.533 171.293 178.506 183.28 179.133C199.146 180.4 215.053 181.146 230.906 182.493C254.32 184.893 277.653 187.866 301.08 190.026C300.773 192.306 300.413 194.586 300.133 196.88C263.373 194.026 226.72 189.986 189.946 187.226C179 186.4 168.013 185.76 157.093 184.626C153.693 183.586 150.253 182.72 146.76 182.173C146.986 179.973 147.226 177.786 147.466 175.6Z" fill="#F8D98F" stroke="#F8D98F" stroke-width="0.333333"/>
<path d="M107 190.374C119.707 187.774 132.547 185.88 145.387 184.094C145.533 184.8 145.827 186.2 145.987 186.907C146.36 188.88 146.64 190.88 146.733 192.907C124.933 195.454 103.413 199.88 81.8398 203.827C82.2265 202.547 82.4932 201.227 83.0932 200.027C91.1865 196.4 99.7865 194.08 108.453 192.307C108.093 191.827 107.36 190.854 107 190.374Z" fill="#F8BB64" stroke="#F8BB64" stroke-width="0.333333"/>
<path d="M145.387 184.093C149.293 183.92 153.2 184.2 157.093 184.626C168.013 185.76 179 186.4 189.947 187.226C226.72 189.986 263.373 194.026 300.133 196.88C300.027 197.826 299.96 198.773 299.92 199.733C261.88 196.88 223.933 192.773 185.907 189.653C172.613 188.626 159.253 188.24 145.987 186.906C145.827 186.2 145.533 184.8 145.387 184.093Z" fill="#201B20" stroke="#201B20" stroke-width="0.333333"/>
<path d="M145.986 186.906C159.253 188.24 172.613 188.626 185.906 189.653C223.933 192.773 261.88 196.88 299.92 199.733C299.973 212.586 301.026 225.413 301.106 238.266C285.386 239.04 269.653 238.2 253.986 236.88C220.68 234.906 187.333 233.84 154 232.253C151.4 232.026 148.306 232.226 147.56 235.226C148.333 221.12 146.066 207.04 146.733 192.906C146.64 190.88 146.36 188.88 145.986 186.906Z" fill="#FDE495" stroke="#FDE495" stroke-width="0.333333"/>
<path d="M50.2 201.373C69.0667 197.346 88.08 194.08 107 190.373C107.36 190.853 108.093 191.826 108.453 192.306C99.7867 194.08 91.1867 196.4 83.0933 200.026C82.4933 201.226 82.2267 202.546 81.84 203.826C75.1467 205.146 68.5067 206.68 61.8133 207.933C51.4267 210.026 41.0133 212.013 30.64 214.133C28.8267 213.066 26.9067 212.2 25 211.306C25.76 209.226 26.5733 207.16 27.48 205.146C35.2 205.026 42.68 202.866 50.2 201.373Z" fill="#FBCE7A" stroke="#FBCE7A" stroke-width="0.333333"/>
<path d="M81.8401 203.826C103.413 199.88 124.933 195.453 146.733 192.906C146.067 207.04 148.333 221.12 147.56 235.226C147.293 235.826 146.747 237.013 146.48 237.613L145.373 239.12C145.213 238.373 144.867 236.893 144.693 236.16C136.973 236.813 129.267 237.426 121.587 238.4C111.173 239.426 100.827 240.96 90.4668 242.346C88.3601 241.506 86.2668 240.666 84.1601 239.853C83.6135 239.026 83.0668 238.2 82.5201 237.386C81.7201 238.013 80.9335 238.64 80.1468 239.28C81.6668 233.053 74.6268 230.613 73.6801 225.12C72.2935 219.373 68.3601 214.76 66.5068 209.2C64.9468 208.746 63.3868 208.32 61.8135 207.933C68.5068 206.68 75.1468 205.146 81.8401 203.826Z" fill="#7F4930" stroke="#7F4930" stroke-width="0.333333"/>
<path d="M181.08 199.747C183.92 197.867 187.44 199.374 190.36 200.307C197.4 202.827 194.88 215.307 187.267 214.76C179.56 216.307 175.24 204.014 181.08 199.747Z" fill="#150F18" stroke="#150F18" stroke-width="0.333333"/>
<path d="M261.027 206.466C265.414 203.96 272.24 206.066 273.454 211.306C275.187 216.92 269.4 222.813 263.814 221.466C258.347 219.28 255.534 210.106 261.027 206.466Z" fill="#161619" stroke="#161619" stroke-width="0.333333"/>
<path d="M30.6396 214.134C41.013 212.014 51.4263 210.027 61.813 207.934C63.3863 208.32 64.9463 208.747 66.5063 209.2C68.3596 214.76 72.293 219.374 73.6796 225.12C74.6263 230.614 81.6663 233.054 80.1463 239.28C80.933 238.64 81.7196 238.014 82.5196 237.387C83.0663 238.2 83.613 239.027 84.1596 239.854C86.2663 240.667 88.3596 241.507 90.4663 242.347C72.093 244.947 53.7996 248.32 35.253 249.534C34.7863 240.747 33.8396 231.987 33.213 223.227C32.9063 220.08 32.9196 216.6 30.6396 214.134Z" fill="#714230" stroke="#714230" stroke-width="0.333333"/>
<path d="M147.56 235.227C148.307 232.227 151.4 232.027 154 232.254C187.334 233.84 220.68 234.907 253.987 236.88C269.654 238.2 285.387 239.04 301.107 238.267C301.08 240.974 301.32 243.68 301.52 246.387C249.814 243.92 198.12 241.107 146.48 237.614C146.747 237.014 147.294 235.827 147.56 235.227Z" fill="#F3C875" stroke="#F3C875" stroke-width="0.333333"/>
<path d="M121.587 238.4C129.267 237.427 136.974 236.813 144.694 236.16C144.72 237.933 144.787 239.707 144.894 241.507C142.907 242.734 140.68 243.427 138.374 243.654C130.587 244.614 122.827 245.88 115.027 246.76C114.907 245.92 114.667 244.227 114.547 243.387C118.654 241.747 122.974 240.72 127.334 240C125.427 239.453 123.507 238.894 121.587 238.4Z" fill="#E7A555" stroke="#E7A555" stroke-width="0.333333"/>
<path d="M144.693 236.16C144.867 236.893 145.213 238.373 145.373 239.12C146.507 240.387 147.973 241.733 149.893 241.227C186.853 242.827 223.72 246.027 260.693 247.427C274.013 247.907 287.333 248.507 300.64 249.027C299.667 256.4 300.413 263.88 300.093 271.293C300.267 276 299.173 281.027 301.36 285.427C300.533 287.907 299 290.04 297.387 292.067C247.507 290.027 197.547 289.587 147.72 286.467C147.92 276.12 147.6 265.787 146.867 255.467C146.32 250.814 147.72 245.6 144.893 241.507C144.787 239.707 144.72 237.933 144.693 236.16Z" fill="#FCDA7E" stroke="#FCDA7E" stroke-width="0.333333"/>
<path d="M145.373 239.12L146.48 237.613C198.12 241.107 249.813 243.92 301.52 246.387C301.266 247.28 300.973 248.16 300.64 249.027C287.333 248.507 274.013 247.907 260.693 247.427C223.72 246.027 186.853 242.827 149.893 241.227C147.973 241.733 146.506 240.387 145.373 239.12Z" fill="#211615" stroke="#211615" stroke-width="0.333333"/>
<path d="M90.4671 242.347C100.827 240.96 111.174 239.427 121.587 238.4C123.507 238.894 125.427 239.454 127.334 240C122.974 240.72 118.654 241.747 114.547 243.387C114.667 244.227 114.907 245.92 115.027 246.76C87.4005 250.187 59.8671 254.68 32.0804 256.747C32.1471 257.454 32.2938 258.84 32.3738 259.547C30.5604 256.547 30.4405 253.094 30.7605 249.694C32.2538 249.64 33.7605 249.587 35.2538 249.534C53.8005 248.32 72.0938 244.947 90.4671 242.347Z" fill="#F4B559" stroke="#F4B559" stroke-width="0.333333"/>
<path d="M144.893 241.507C147.72 245.6 146.32 250.814 146.867 255.467C147.6 265.787 147.92 276.12 147.72 286.467C147.653 288.414 147.56 290.36 147.467 292.32C112.293 294.84 77.2668 299.48 42.0534 301.707C39.8934 301.813 37.8267 302.547 35.7867 303.227C34.2667 289.054 34.6934 274.627 32.5067 260.48L32.3734 259.547C32.2934 258.84 32.1467 257.453 32.0801 256.747C59.8667 254.68 87.4001 250.187 115.027 246.76C122.827 245.88 130.587 244.614 138.373 243.654C140.68 243.427 142.907 242.734 144.893 241.507Z" fill="#985A37" stroke="#985A37" stroke-width="0.333333"/>
<path d="M177.08 251.88C181.173 250.453 185.907 251.08 189.76 252.92C195.627 257.186 190.08 267.386 183.28 265.733C176.373 265.773 175.893 256.853 177.08 251.88Z" fill="#141421" stroke="#141421" stroke-width="0.333333"/>
<path d="M261.333 257.494C265.48 255.88 270.693 257.774 273.093 261.454C275.08 265.92 271.04 270.547 267.107 272.2C259.16 275.067 253.44 260.894 261.333 257.494Z" fill="#1C181D" stroke="#1C181D" stroke-width="0.333333"/>
<path d="M147.72 286.467C197.547 289.587 247.507 290.027 297.387 292.067C296.12 293.96 295.12 296.013 294.12 298.067C279.88 296.76 265.52 297.613 251.267 296.24C216.947 294.88 182.613 293.68 148.293 292.333L147.467 292.32C147.56 290.36 147.653 288.413 147.72 286.467Z" fill="#E6A351" stroke="#E6A351" stroke-width="0.333333"/>
<path d="M42.0538 301.707C77.2671 299.48 112.294 294.84 147.467 292.32L148.294 292.334C147.654 297.494 147.107 302.72 147.734 307.907C139.147 307.107 130.574 308.494 122 308.827C101.574 310.494 81.0804 311.24 60.6671 313.054C52.6404 313.52 44.6404 314.667 36.5738 314.347C36.6538 313.6 36.8138 312.12 36.8938 311.374L36.6271 310.214C36.3338 307.88 36.1871 305.534 35.7871 303.227C37.8271 302.547 39.8938 301.814 42.0538 301.707Z" fill="#563529" stroke="#563529" stroke-width="0.333333"/>
<path d="M148.294 292.333C182.614 293.68 216.947 294.88 251.267 296.24C265.52 297.613 279.88 296.76 294.12 298.066L294.32 298.693C268.414 298.96 242.547 297.52 216.654 296.84C194.147 295.546 171.574 295.533 149.08 293.973C148.907 298.906 149.014 303.88 148.28 308.786L147.734 307.906C147.107 302.72 147.654 297.493 148.294 292.333Z" fill="#965A37" stroke="#965A37" stroke-width="0.333333"/>
<path d="M149.08 293.974C171.574 295.534 194.147 295.547 216.654 296.84C242.547 297.52 268.414 298.96 294.32 298.694C295.014 301.414 295.467 304.2 295.934 306.987C296.48 307.36 297.587 308.134 298.134 308.52C297.28 308.6 295.574 308.76 294.72 308.84C294.32 310.88 293.96 312.947 293.507 314.987C245.094 312.987 196.667 310.907 148.24 309.107L148.28 308.787C149.014 303.88 148.907 298.907 149.08 293.974Z" fill="#F6CB97" stroke="#F6CB97" stroke-width="0.333333"/>
<path d="M122 308.827C130.573 308.494 139.146 307.107 147.733 307.907L148.28 308.787L148.24 309.107C148.133 309.96 147.92 311.667 147.813 312.534C147.4 318.427 147.76 324.36 147.613 330.267C120.826 331.32 94.053 332.48 67.2663 333.134C57.213 333.134 47.1597 333.627 37.133 334.414C36.5597 337.467 35.973 340.534 35.6797 343.627C35.8797 340.547 36.1063 337.454 36.2263 334.374C36.7463 327.694 35.9197 321 36.573 314.347C44.6397 314.667 52.6397 313.52 60.6664 313.054C81.0797 311.24 101.573 310.494 122 308.827Z" fill="#322526" stroke="#322526" stroke-width="0.333333"/>
<path d="M147.813 312.533C147.92 311.666 148.133 309.96 148.24 309.106C196.667 310.906 245.093 312.986 293.507 314.986C293.28 315.826 292.813 317.493 292.587 318.333C258.6 317.413 224.587 316.493 190.587 315.226C176.52 314.453 162.427 314.2 148.373 313.173C148.227 313.013 147.947 312.693 147.813 312.533Z" fill="#331B23" stroke="#331B23" stroke-width="0.333333"/>
<path d="M147.813 312.533C147.946 312.693 148.226 313.013 148.373 313.173C148.8 318.72 148.8 324.28 148.866 329.84C148.146 330.68 147.426 331.533 146.706 332.4C147.066 335.507 147.453 338.613 147.88 341.733C157.533 342.88 167.28 341.787 176.933 342.973C166.68 343.52 156.426 342.813 146.16 343.093C114.36 343.827 82.5465 344.387 50.7732 345.853C45.6932 346.293 40.5865 346.333 35.4932 346.187C35.5332 345.547 35.6265 344.267 35.6798 343.627C35.9732 340.533 36.5598 337.467 37.1332 334.413C47.1598 333.627 57.2132 333.133 67.2665 333.133C94.0532 332.48 120.827 331.32 147.613 330.267C147.76 324.36 147.4 318.427 147.813 312.533Z" fill="#673C2D" stroke="#673C2D" stroke-width="0.333333"/>
<path d="M148.373 313.174C162.426 314.2 176.52 314.454 190.586 315.227C186.706 316.401 182.666 316.814 178.613 316.88C182.813 320.467 180.44 325.694 180.306 330.307C169.826 330.361 159.36 329.547 148.866 329.84C148.8 324.28 148.8 318.72 148.373 313.174Z" fill="#FBB9A4" stroke="#FBB9A4" stroke-width="0.333333"/>
<path d="M190.587 315.227C224.587 316.493 258.6 317.413 292.587 318.333C291.16 322.8 291.533 327.533 291.587 332.147C273.507 332.04 255.44 330.96 237.36 330.96C218.347 330.48 199.333 330.653 180.307 330.307C180.44 325.693 182.813 320.467 178.613 316.88C182.667 316.813 186.707 316.4 190.587 315.227Z" fill="#F9D09B" stroke="#F9D09B" stroke-width="0.333333"/>
<path d="M148.867 329.84C159.36 329.547 169.827 330.36 180.307 330.307C199.334 330.654 218.347 330.48 237.36 330.96C235.08 331.787 232.76 332.494 230.414 333.094C233.574 336.28 238.267 337.627 240.734 341.507C233.627 343.747 226.094 342.214 218.92 344.014C209.894 344.2 200.88 343.547 191.854 343.84C186.88 343.494 181.907 343.12 176.934 342.974C167.28 341.787 157.534 342.88 147.88 341.734C147.454 338.614 147.067 335.507 146.707 332.4C147.427 331.534 148.147 330.68 148.867 329.84Z" fill="#87503E" stroke="#87503E" stroke-width="0.333333"/>
<path d="M237.36 330.96C255.44 330.96 273.507 332.04 291.587 332.147L293.08 332.16C293.28 336.653 293.333 341.147 293.267 345.64C288.427 345.92 283.56 346.507 278.72 346.067C274.68 345.253 270.6 344.627 266.493 344.547C250.64 344.2 234.773 344.667 218.92 344.013C226.093 342.213 233.627 343.747 240.733 341.507C238.267 337.627 233.573 336.28 230.413 333.093C232.76 332.493 235.08 331.787 237.36 330.96Z" fill="#8E5544" stroke="#8E5544" stroke-width="0.333333"/>
<path d="M50.7734 345.854C82.5468 344.387 114.36 343.827 146.16 343.094C146.773 347.08 147.253 351.08 147.653 355.094C143.387 355.24 139.12 355.094 134.853 355.014C114.853 354.96 94.8668 355.827 74.8668 355.507C74.8001 369.24 74.8801 382.96 74.9201 396.694C74.6801 413.587 74.6801 430.507 75.0534 447.414C75.0401 448.067 75.0401 449.374 75.0401 450.027C75.0401 455.827 74.7068 461.627 74.9334 467.427C75.0001 468.507 75.1334 470.654 75.2001 471.72C69.0668 471 62.8934 470.614 56.7201 470.534C56.9068 468.12 57.0934 465.734 57.2668 463.334C57.7068 465.12 58.1468 466.934 58.6001 468.734C59.9068 464.814 60.7068 460.72 60.6801 456.587C60.8001 445.054 60.8801 433.52 60.8268 422C60.7201 413.8 61.7334 405.56 60.3201 397.427C60.5734 383.814 60.7734 370.2 60.4134 356.587C58.5201 356.707 56.6268 356.84 54.7468 356.987C53.7868 357.067 51.8801 357.2 50.9201 357.28C50.8268 353.467 50.7868 349.667 50.7734 345.854Z" fill="#241917" stroke="#241917" stroke-width="0.333333"/>
<path d="M146.16 343.094C156.427 342.814 166.68 343.52 176.933 342.974C181.907 343.12 186.88 343.494 191.853 343.84C185.947 345.16 179.893 344.587 173.907 345.08C177.427 347.374 183.96 344.374 184.64 349.987C184.04 352.92 180.373 352.28 178.187 353.2C180.027 354.014 181.853 354.854 183.72 355.64C174.88 355.68 166.04 355.44 157.214 355.027C154.027 354.934 150.84 354.987 147.654 355.094C147.254 351.08 146.773 347.08 146.16 343.094Z" fill="#2C211C" stroke="#2C211C" stroke-width="0.333333"/>
<path d="M191.853 343.84C200.88 343.546 209.893 344.2 218.92 344.013C234.773 344.666 250.64 344.2 266.493 344.546C267.186 348.213 267.626 351.933 267.786 355.693C264.346 355.426 260.906 355.133 257.466 354.8C256.986 354.146 256.026 352.853 255.546 352.213C253.986 352.44 252.413 352.666 250.853 352.866C238.213 353.52 225.733 355.72 213.133 356.6C211.266 359.933 208.64 363.226 209.013 367.293C209 386.346 209.146 405.413 209.466 424.48C209.826 444.226 208.946 464.013 209.84 483.746C209.786 484.293 209.68 485.4 209.626 485.946C207.013 486.4 204.386 486.786 201.733 486.973C189 486.626 176.266 486.92 163.533 486.626C161.373 486.213 158.773 486.066 157.56 483.933C162.773 483.746 168 483.6 173.186 482.893C180.533 482.973 187.88 482.626 195.24 482.72C195.36 480.72 195.493 478.72 195.56 476.733C195.56 459.826 195.586 442.906 195.746 426.013C195.786 423.72 195.84 421.453 195.893 419.186C196.12 412.24 196.093 405.293 196.24 398.346C196.533 384.2 197.4 370.04 196.306 355.906C192.106 355.8 187.906 355.773 183.72 355.64C181.853 354.853 180.026 354.013 178.186 353.2C180.373 352.28 184.04 352.92 184.64 349.986C183.96 344.373 177.426 347.373 173.906 345.08C179.893 344.586 185.946 345.16 191.853 343.84Z" fill="#241917" stroke="#241917" stroke-width="0.333333"/>
<path d="M266.493 344.547C270.6 344.627 274.68 345.254 278.72 346.067C278.52 349.28 278.333 352.507 278.133 355.747C274.68 355.707 271.24 355.694 267.786 355.694C267.626 351.934 267.186 348.214 266.493 344.547Z" fill="#55382F" stroke="#55382F" stroke-width="0.333333"/>
<path d="M255.547 352.213C256.027 352.853 256.987 354.146 257.467 354.8C260.907 355.133 264.347 355.426 267.787 355.693C267.4 368.413 268.093 381.146 267.68 393.88C267.453 415.693 268.227 437.533 267.52 459.346C267.387 469.533 267.2 479.72 267.427 489.906C263.107 489.56 258.8 489.12 254.48 488.76C236.92 487.693 219.32 487.373 201.733 486.973C204.387 486.786 207.013 486.4 209.627 485.946C209.68 485.4 209.787 484.293 209.84 483.746C213.12 483.466 216.387 483.12 219.68 482.826C231.667 482.666 243.653 483.173 255.64 483.4C255.56 481.68 255.48 479.973 255.413 478.266C254.68 465.493 255.853 452.693 255.133 439.933C255.013 430.493 255.173 421.053 255.467 411.626C255.48 407.866 255.467 404.12 255.52 400.373C255.48 384.32 255.6 368.266 255.547 352.213Z" fill="#36231E" stroke="#36231E" stroke-width="0.333333"/>
<path d="M134.853 355.014C139.12 355.094 143.387 355.24 147.653 355.094C147.773 390.76 146.533 426.427 147.28 462.094C147.067 472.8 148.373 483.667 146.573 494.24C139.4 493.494 132.253 492.467 125.093 491.627C119.667 490.84 114.267 489.854 108.84 488.987C108.987 488.814 109.28 488.467 109.427 488.294C117.52 487.507 125.653 487.147 133.693 486C133.56 482.427 133.507 478.854 133.76 475.28C134.72 461.547 134.107 447.774 134.227 434.014C134.227 430.84 134.28 427.667 134.386 424.494C134.626 416.987 134.64 409.494 134.667 401.987C134.653 400.307 134.653 398.64 134.653 396.987C134.813 383 134.64 369 134.853 355.014Z" fill="#331C15" stroke="#331C15" stroke-width="0.333333"/>
<path d="M147.653 355.093C150.84 354.987 154.026 354.933 157.213 355.027C157.12 369.907 157.2 384.8 157.213 399.693C157.16 404.08 157.12 408.48 157.213 412.88C157.226 413.8 157.253 415.653 157.266 416.573C157.293 418.84 157.32 421.107 157.293 423.373C157.226 425.76 157.053 428.16 156.826 430.56C155.613 445.813 156.226 461.173 156.84 476.453C156.973 478.133 157.106 479.813 157.253 481.507C162.546 482.053 167.906 482 173.186 482.893C168 483.6 162.773 483.747 157.56 483.933C158.773 486.067 161.373 486.213 163.533 486.627C161.866 486.947 160.226 487.413 158.626 488C157.426 490.213 157.16 492.787 156.586 495.227C153.106 494.72 149.573 494.72 146.066 494.933L146.573 494.24C148.373 483.667 147.066 472.8 147.28 462.093C146.533 426.427 147.773 390.76 147.653 355.093Z" fill="#704636" stroke="#704636" stroke-width="0.333333"/>
<path d="M267.787 355.693C271.24 355.693 274.68 355.707 278.134 355.747C277.627 356.173 276.627 357.04 276.12 357.48C275.734 364.547 275.987 371.627 275.654 378.693C274.76 381.107 273.84 383.533 273.014 385.973C272.52 382.733 272.88 379.013 270.587 376.373C268.68 382.04 269.08 388.08 268.507 393.96L267.68 393.88C268.094 381.147 267.4 368.413 267.787 355.693Z" fill="#C17B6A" stroke="#C17B6A" stroke-width="0.333333"/>
<path d="M54.7471 356.987C56.6271 356.84 58.5204 356.707 60.4137 356.587C60.7737 370.2 60.5737 383.814 60.3204 397.427C59.0671 401.947 59.7471 406.84 58.0137 411.227C54.7471 418.2 58.2137 426.24 55.1071 433.307C54.8804 424.587 55.2004 415.867 55.0271 407.147C54.8137 390.427 55.2004 373.707 54.7471 356.987Z" fill="#452D27" stroke="#452D27" stroke-width="0.333333"/>
<path d="M209.013 367.293C208.64 363.226 211.267 359.933 213.133 356.6C213.587 363.08 213.56 369.573 213.92 376.066C213.72 393.64 214.68 411.2 215.36 428.76C214.013 426.586 211.68 425.533 209.467 424.48C209.147 405.413 209 386.346 209.013 367.293Z" fill="#744C3C" stroke="#744C3C" stroke-width="0.333333"/>
<path d="M270.587 376.373C272.88 379.013 272.52 382.733 273.013 385.973C273.84 383.533 274.76 381.106 275.653 378.693C275.707 384.613 275.72 390.533 275.88 396.466L275.893 397.066C276.053 402.826 276.053 408.6 276.04 414.373C276.08 419.786 276.28 425.2 275.893 430.613C276.5 435 279.927 481.94 279.5 485.5C278.367 484.193 269.613 486.913 268.613 485.5C268.493 493.193 268.5 473.5 268.613 460.146C267.693 448.346 268.573 436.52 268.227 424.706C268.28 414.466 267.72 404.186 268.507 393.96C269.08 388.08 268.68 382.04 270.587 376.373Z" fill="#B77358" stroke="#B77358" stroke-width="0.333333"/>
<path d="M267.68 393.88L268.507 393.96C267.72 404.187 268.28 414.467 268.227 424.707C268.573 436.52 267.693 448.347 268.613 460.147C268.027 468.6 267.987 477.12 268.933 485.56C272.533 485.48 276.147 485.427 279.76 485.493C279.84 486.293 279.986 487.893 280.066 488.693C276.04 490.307 271.68 490.28 267.427 489.907C267.2 479.72 267.387 469.533 267.52 459.347C268.227 437.533 267.453 415.693 267.68 393.88Z" fill="#8F523E" stroke="#8F523E" stroke-width="0.333333"/>
<path d="M58.013 411.227C59.7463 406.84 59.0663 401.947 60.3197 397.427C61.733 405.56 60.7197 413.8 60.8263 422C60.8797 433.52 60.7997 445.053 60.6797 456.587C60.7063 460.72 59.9063 464.813 58.5997 468.733C58.1463 466.933 57.7063 465.12 57.2663 463.333C57.093 465.733 56.9063 468.12 56.7197 470.533L55.5463 470.52L55.5863 468.853C55.7197 465.267 55.573 461.68 55.333 458.12C53.5463 458.173 51.7597 458.253 49.9863 458.373C51.6663 457.533 53.3197 456.64 54.9863 455.773C54.9997 453.973 54.9997 452.2 55.013 450.413C55.0397 446.92 55.013 443.427 54.9997 439.933C54.9863 437.72 55.013 435.507 55.1063 433.307C58.213 426.24 54.7463 418.2 58.013 411.227Z" fill="#38231D" stroke="#38231D" stroke-width="0.333333"/>
<path d="M209.466 424.48C211.68 425.534 214.013 426.587 215.36 428.76L215.44 430.28C215.506 439.414 215.6 448.547 215.76 457.681C215.4 465.721 215.6 473.787 215.706 481.84C217.026 482.187 218.346 482.507 219.68 482.827C216.386 483.12 213.12 483.467 209.84 483.747C208.946 464.014 209.826 444.227 209.466 424.48Z" fill="#4C332A" stroke="#4C332A" stroke-width="0.333333"/>
</svg>
