<svg width="1570" height="1390" viewBox="0 0 1570 1390" fill="none" xmlns="http://www.w3.org/2000/svg">
<path d="M10.5 1338C233 1416.5 346.023 1378.1 463.502 1267.51C538.648 1196.77 618.835 1130.45 701.939 1069.25C783.028 1009.54 873.049 944.724 973.683 923.333C1071.26 902.592 1160.52 938.079 1175.11 1042.29C1187.87 1133.44 1150.19 1257.74 1063.3 1304.25C1014.89 1330.16 956.091 1308.65 919.229 1272.79C834.549 1190.43 823.574 1059.62 853.672 951.882C911.629 744.411 1051.64 566.795 1189.39 405.75C1285.83 292.991 1401.5 199.589 1498.67 88.5381" stroke="black" stroke-width="21" stroke-linecap="round"/>
<path d="M1346.41 102.812C1354.83 102.812 1360.73 100.148 1368.61 96.9967C1401.57 83.8126 1436.72 77.2278 1469.86 64.4825C1475.89 62.1629 1555.62 9.08679 1557.35 10.8209C1564.4 17.8719 1539.75 71.6317 1537.26 80.3431C1528.18 112.142 1519.64 144.444 1512.94 176.828C1506.33 208.788 1515.95 228.363 1531.98 255.074" stroke="black" stroke-width="21" stroke-linecap="round"/>
</svg>
