<svg width="1920" height="277" viewBox="0 0 1920 277" fill="none" xmlns="http://www.w3.org/2000/svg">
<path d="M1398.15 2.50856C1428.3 1.43403 1458.68 0.566179 1488.83 2.09532C1473.93 4.09973 1458.53 4.14103 1443.29 4.51298C1436.59 9.34837 1430.86 14.5764 1426.84 20.259C1428.76 22.2635 1430.71 24.3092 1432.67 26.3549C1430.22 26.6235 1425.29 27.1608 1422.85 27.4295C1387.76 23.1933 1352.68 19.0192 1317.45 15.217C1343.35 9.28642 1370.6 5.21555 1398.15 2.50856Z" fill="#E0E38D" stroke="#E0E38D" stroke-width="0.333333"/>
<path d="M1488.83 2.09519C1505.39 1.24797 1522.07 1.53727 1538.67 1C1549.62 1.41328 1560.5 2.1572 1571.45 2.69447C1553.61 5.0915 1535.02 3.85162 1517.1 6.02135C1518.3 9.53424 1521.46 14.3076 1513.41 16.1674C1495.68 21.8087 1479.91 30.5082 1458.87 32.0167C1446.82 30.5496 1434.85 28.9172 1422.84 27.4293C1425.29 27.1607 1430.22 26.6234 1432.67 26.3548C1430.71 24.309 1428.75 22.2633 1426.83 20.2589C1430.86 14.5763 1436.58 9.34824 1443.28 4.51285C1458.53 4.1409 1473.92 4.09961 1488.83 2.09519Z" fill="#D8DE80" stroke="#D8DE80" stroke-width="0.333333"/>
<path d="M1571.46 2.69434C1619.07 2.01242 1666.84 0.979177 1714.35 3.23156C1702.87 3.76882 1691.39 4.32678 1679.87 4.55409C1681.37 6.37252 1682.92 8.21163 1684.5 10.0507C1677.27 15.506 1667.11 19.2462 1656.91 22.8211C1648.89 28.6277 1640.72 34.3723 1631.42 39.6003C1623.74 43.7125 1623.67 50.2217 1616.18 54.4165C1563.06 46.2335 1509.35 39.1457 1455.56 32.3679L1458.87 32.0166C1479.91 30.5081 1495.68 21.8086 1513.41 16.1673C1521.47 14.3075 1518.31 9.53411 1517.1 6.02122C1535.02 3.85149 1553.61 5.09137 1571.46 2.69434Z" fill="#CCD66A" stroke="#CCD66A" stroke-width="0.333333"/>
<path d="M1679.86 4.55544C1691.38 4.32814 1702.86 3.77018 1714.35 3.23291C1728.42 3.56353 1742.46 4.18349 1756.54 4.88607L1752.78 5.7953C1747.88 6.10526 1743.03 6.35321 1738.17 6.55986C1738.51 7.20044 1739.11 8.44027 1739.41 9.06019C1725.3 24.7442 1702.07 37.246 1687.28 52.7233C1683.4 56.4429 1685.51 60.741 1687.51 64.6052C1668.31 62.0635 1649 59.7904 1630.1 56.6495C1625.43 55.9056 1620.8 55.1617 1616.17 54.4178C1623.66 50.223 1623.74 43.7138 1631.42 39.6017C1640.72 34.3737 1648.89 28.6291 1656.9 22.8225C1667.1 19.2476 1677.27 15.5074 1684.49 10.0521C1682.91 8.21298 1681.37 6.37388 1679.86 4.55544Z" fill="#BFCB55" stroke="#BFCB55" stroke-width="0.333333"/>
<path d="M885.124 5.95958C940.496 4.76106 1008.91 4.07928 1064.4 4.4099L1053.54 8.60777C1053.46 21.0269 1053.2 33.4253 1053.5 45.8444L1048.91 46.0924C1042.77 34.9131 1052.67 22.0601 1041.42 11.79C1040.47 17.3487 1044.05 23.5272 1039.57 28.6725C1029.75 33.074 1018.49 36.5456 1007.05 39.4592C975.955 37.7854 945.954 43.778 915.276 45.1625C907.973 45.8237 901.047 44.4392 894.572 42.8068C893.556 43.5507 891.523 45.0385 890.469 45.7824C889.566 45.8857 881.793 45.6584 880.89 45.7824C882.094 34.1692 885.463 17.5934 885.124 5.95958Z" fill="#9EB54E" stroke="#9EB54E" stroke-width="0.333333"/>
<path d="M1738.17 6.55899C1743.03 6.35235 1747.88 6.10439 1752.78 5.79443C1771.22 6.20771 1789.67 7.19954 1807.85 9.03864C1798.81 16.2091 1789.67 23.3175 1780.56 30.4259C1766.29 41.5432 1768.02 56.3593 1753.42 67.4146C1754.7 69.1504 1755.98 70.8861 1757.29 72.6426C1734.07 70.9895 1711.29 68.0345 1688.29 65.8235L1687.5 64.6043C1685.51 60.7401 1683.4 56.442 1687.28 52.7225C1702.07 37.2451 1725.3 24.7433 1739.41 9.05933C1739.11 8.4394 1738.51 7.19958 1738.17 6.55899Z" fill="#AFBF46" stroke="#AFBF46" stroke-width="0.333333"/>
<path d="M769.749 9.05929C787.724 6.73459 844.188 5.9597 844.188 5.9597C844.188 5.9597 856.783 6.61368 865.362 5.95968C873.179 5.36372 886.535 5.9597 886.535 5.9597C886.535 5.9597 878.234 46.5434 886.854 46.2541C887.758 46.1302 889.564 45.8822 890.468 45.7788C891.522 45.0349 893.555 43.5471 894.571 42.8032C901.045 44.4357 907.972 45.8202 915.274 45.1589C945.953 43.7745 975.954 37.7819 1007.05 39.4557C1018.49 36.542 1029.74 33.0705 1039.57 28.669C1044.05 23.5237 1040.47 17.3451 1041.41 11.7865C1052.67 22.0566 1042.77 34.9096 1048.9 46.0889C1057.04 46.7294 1065.17 47.3287 1073.26 48.0933C1059.07 50.4696 1044.35 51.8541 1030.23 54.3545C1008.7 57.7021 986.117 58.0326 964.172 60.1197C936.58 62.8267 908.31 60.161 880.794 63.1573C821.093 69.3979 759.284 67.5588 700.186 75.8451C671.841 79.8126 641.991 79.5853 614.173 84.8133C605.478 83.6768 597.046 82.1063 588.539 80.6805C592.906 78.2214 596.971 75.3078 603.257 74.2746C629.004 68.9433 656.785 67.2902 682.268 61.5249C698.831 57.2475 717.502 58.2806 734.817 55.7182C758.795 52.164 784.994 53.7138 807.467 47.1427C796.814 42.08 782.359 44.5184 769.749 44.3737L770.013 43.4025C775.32 31.9546 766.361 20.6312 769.749 9.05929Z" fill="#9EB54E" stroke="#9EB54E" stroke-width="0.333333"/>
<path d="M1192.39 7.30317C1192.39 7.30317 1201.88 7.94376 1206.66 8.2124C1243.85 8.97697 1280.97 11.0434 1317.44 15.2175C1352.67 19.0197 1387.76 23.1939 1422.84 27.43C1434.85 28.9178 1446.82 30.5502 1458.86 32.0174L1455.55 32.3687C1451.56 32.8026 1447.61 33.2986 1443.69 33.8152C1442 35.365 1440.31 36.9148 1438.65 38.4852C1434.32 38.8778 1429.99 39.2705 1425.74 39.7044C1426.83 40.7789 1427.96 41.8742 1429.13 42.9694C1404.32 47.7634 1378.05 49.6438 1353.35 54.5619C1344.17 56.277 1337.05 60.7818 1326.89 60.9264C1314.32 62.2696 1305.21 53.7147 1292.71 56.1943C1277.69 62.4556 1263.5 71.1138 1243.02 70.9071C1248.37 72.1057 1253.71 73.3455 1258.98 74.668C1252.09 75.6186 1245.13 76.4864 1238.17 77.1683C1194.31 72.2296 1149.63 70.2459 1105.36 66.8983C1120.35 58.1161 1145.68 61.381 1160.51 52.4955C1158.36 52.1235 1154.07 51.4003 1151.97 51.0283C1159.98 49.9125 1048.05 48.8384 1050.28 43.1558C1055.88 43.1558 1053.1 3.63525 1053.1 3.63525L1192.39 7.30317Z" fill="#9EB54E" stroke="#9EB54E" stroke-width="0.333333"/>
<path d="M1780.56 30.4259C1789.67 23.3174 1798.81 16.209 1807.85 9.03857C1824.18 10.5677 1840.71 11.5596 1857.05 13.316C1852.49 14.0806 1847.97 14.8659 1843.53 15.7131C1832.39 33.2775 1822.64 51.3379 1817.41 69.7496C1810.22 70.8034 1803.07 72.0019 1795.95 73.2211C1787.97 74.1923 1779.99 75.1222 1772.09 76.2174C1767.16 74.9776 1762.26 73.7377 1757.29 72.6425C1755.98 70.8861 1754.7 69.1503 1753.42 67.4145C1768.02 56.3593 1766.29 41.5431 1780.56 30.4259Z" fill="#9AAE3F" stroke="#9AAE3F" stroke-width="0.333333"/>
<path d="M463.265 21.7263C532.979 18.2547 602.918 17.1181 672.782 15.0517C694.991 14.3698 739.728 12.1592 739.728 12.1592L772.195 9.83447L770.783 44.7051C770.783 44.7051 796.814 42.0803 807.466 47.143C784.994 53.7142 758.795 52.1644 734.817 55.7186C717.501 58.2809 698.831 57.2478 682.268 61.5252C656.784 67.2905 629.004 68.9436 603.257 74.2749C596.971 75.3081 592.905 78.2218 588.539 80.6808C577.321 78.9657 565.953 77.5192 554.849 75.5561C512.087 67.8277 468.083 62.4758 424.381 56.5865C412.937 54.6234 401.795 57.5577 390.691 58.6942C374.542 59.7481 362.911 67.6418 346.16 67.4145C345.558 69.5222 344.955 71.6506 344.391 73.779C314.126 69.5636 284.954 62.9717 253.899 60.5333C221.15 56.4212 187.611 55.0781 154.636 51.7098C142.478 50.3666 129.905 51.8338 120.344 56.2146C111.837 56.6898 102.652 56.0285 96.0269 59.7894C88.4985 59.2521 80.8947 59.1902 73.3286 59.5828C74.7214 61.3806 76.1141 63.199 77.5069 65.0381C64.5956 66.9392 51.1573 66.6912 40.8057 61.4632C67.0047 57.6817 92.7897 53.0736 118.462 48.3416C146.242 43.1962 174.662 39.27 202.63 34.4553C217.348 32.4716 232.48 28.938 247.801 31.2937C273.021 33.4221 298.543 37.4722 324.215 35.0545C348.494 33.3187 372.585 30.9631 396.412 27.9048C418.584 25.4664 440.718 22.8421 463.265 21.7263Z" fill="#9EB54E" stroke="#9EB54E" stroke-width="0.333333"/>
<path d="M1843.53 15.7134C1847.97 14.8662 1852.49 14.081 1857.05 13.3164C1863.07 13.8537 1869.13 14.4943 1875.23 15.0109L1873.68 15.4448C1870.26 17.2219 1867.77 19.433 1868.68 22.1193C1869.43 32.7406 1865.06 43.1346 1862.13 53.5493C1861.68 56.8142 1857.46 59.2526 1854.11 61.753C1855.84 62.1456 1859.23 62.9514 1860.96 63.3441C1851.21 64.8939 1841.39 66.2991 1831.64 67.7662C1828.1 68.2621 1820.98 69.254 1817.41 69.7499C1822.64 51.3383 1832.39 33.2779 1843.53 15.7134Z" fill="#869F3F" stroke="#869F3F" stroke-width="0.333333"/>
<path d="M1868.68 22.1193C1867.77 19.433 1870.26 17.2219 1873.68 15.4448C1889.27 17.1393 1904.96 18.5651 1920.28 21.0035V54.0659C1900.64 57.4135 1880.72 60.2858 1860.96 63.3441C1859.23 62.9515 1855.84 62.1456 1854.11 61.753C1857.46 59.2526 1861.68 56.8143 1862.13 53.5493C1865.06 43.1347 1869.43 32.7407 1868.68 22.1193Z" fill="#72923F" stroke="#72923F" stroke-width="0.333333"/>
<path d="M1443.7 33.8152C1447.61 33.2986 1451.56 32.8026 1455.55 32.3687C1509.35 39.1465 1563.06 46.2343 1616.17 54.4172C1620.8 55.1611 1625.43 55.905 1630.1 56.6489C1608.19 63.3234 1606.99 79.5447 1613.05 91.4059C1601.12 94.9601 1583.76 95.1047 1577.48 102.564C1540.78 107.668 1504.04 112.814 1467.34 117.877C1451.79 113.372 1435.15 110.107 1418.18 107.689C1359.27 95.7247 1299.83 84.1734 1238.17 77.1683C1245.13 76.4864 1252.1 75.6185 1258.99 74.668C1253.72 73.3455 1248.37 72.1056 1243.03 70.9071C1263.5 71.1137 1277.69 62.4555 1292.71 56.1943C1305.21 53.7146 1314.32 62.2696 1326.89 60.9264C1337.06 60.7817 1344.17 56.2769 1353.36 54.5618C1378.05 49.6438 1404.32 47.7634 1429.13 42.9693C1427.96 41.8741 1426.83 40.7789 1425.74 39.7044C1430 39.2704 1434.32 38.8778 1438.65 38.4852C1440.31 36.9147 1442 35.365 1443.7 33.8152Z" fill="#9AAE3C" stroke="#9AAE3C" stroke-width="0.333333"/>
<path d="M1082.75 44.5599C1105.41 44.0019 1128.1 43.754 1150.8 43.878C1156.83 43.94 1162.77 44.2086 1168.8 44.5805C1170.23 44.6632 1173.12 44.8285 1174.59 44.9112C1172.37 50.5938 1159.99 49.9119 1151.97 51.0277C1110.26 56.607 1067.88 60.5125 1025.04 62.2896C989.467 61.773 954.121 64.5833 918.775 66.0505C878.837 67.6003 839.538 71.8984 799.788 74.2955C784.204 73.6962 768.658 74.6467 753.375 76.3205C719.949 79.6887 685.92 80.8873 652.607 84.6895C656.446 86.4666 660.248 88.2024 664.05 89.9795C646.885 88.8429 627.386 92.5831 612.179 86.8799L614.174 84.8135C641.991 79.5854 671.842 79.8128 700.186 75.8453C759.285 67.559 821.093 69.398 880.794 63.1575C908.311 60.1612 936.58 62.8269 964.172 60.1199C986.117 58.0328 1008.7 57.7022 1030.23 54.3547C1044.35 51.8543 1059.07 50.4698 1073.26 48.0935C1065.17 47.3289 1057.04 46.7296 1048.9 46.089L1053.5 45.841C1063.21 45.1591 1072.96 44.6838 1082.75 44.5599Z" fill="#9AAE3C" stroke="#9AAE3C"/>
<path d="M120.344 56.2153C129.905 51.8345 142.478 50.3674 154.636 51.7105C187.611 55.0788 221.15 56.4219 253.899 60.5341C284.954 62.9724 314.126 69.5643 344.391 73.7797C344.955 71.6513 345.558 69.5229 346.16 67.4152C362.911 67.6425 374.542 59.7488 390.691 58.6949C401.795 57.5584 412.937 54.6241 424.381 56.5872C468.083 62.4765 512.087 67.8284 554.849 75.5568C526.542 83.4298 497.896 90.9308 468.535 97.626C459.614 96.5308 450.655 95.4149 441.884 94.0098C424.042 91.0548 406.388 87.8313 388.884 84.3597C380.151 82.376 370.74 83.5332 361.782 84.1737C337.879 86.2195 313.562 84.1531 289.659 86.0335C263.686 88.1826 237.336 86.5708 211.363 88.4925C184.26 90.3316 156.895 88.5132 129.717 89.9596C104.233 91.6748 78.4857 91.1788 53.0771 93.2039C33.089 91.9021 13.0257 91.3441 -7 90.3316V67.9731C8.84741 65.6174 24.8454 63.5923 40.8057 61.4639C51.1573 66.6919 64.5956 66.9399 77.507 65.0388C76.1142 63.1997 74.7214 61.3813 73.3287 59.5835C80.8948 59.1909 88.4985 59.2529 96.027 59.7901C102.652 56.0293 111.837 56.6906 120.344 56.2153Z" fill="#3B6242" stroke="#3B6242" stroke-width="0.333333"/>
<path d="M1025.04 62.2903C1067.87 60.5131 1110.26 56.6076 1151.97 51.0283C1154.07 51.4003 1158.37 52.1235 1160.51 52.4955C1145.68 61.381 1120.35 58.1161 1105.37 66.8983C1085.87 66.0511 1066.33 66.5057 1046.83 66.7537C1049.77 67.4563 1052.74 68.1382 1055.75 68.7994C1044.72 68.9854 1033.69 68.9647 1022.67 68.6961C1021.12 67.2909 1019.62 65.9064 1018.11 64.5219C1019.84 63.964 1023.31 62.8482 1025.04 62.2903Z" fill="#839F45" stroke="#839F45" stroke-width="0.333333"/>
<path d="M1860.96 63.3441C1880.73 60.2858 1900.64 57.4135 1920.29 54.0659V116.451C1881.18 119.034 1842.63 123.662 1803.45 125.791C1795.65 123.559 1786.81 123.394 1778.26 123.022C1784.96 117.443 1794.79 113.496 1804.24 109.425C1821.55 100.622 1832.13 85.9919 1820.54 73.7175C1824.19 71.6924 1827.84 69.688 1831.64 67.7662C1841.39 66.299 1851.21 64.8939 1860.96 63.3441Z" fill="#FDD528" stroke="#FDD528" stroke-width="0.333333"/>
<path d="M1613.05 91.4049C1606.99 79.5437 1608.19 63.3224 1630.1 56.6479C1649 59.7889 1668.31 62.0619 1687.51 64.6036L1688.3 65.8228C1681.11 66.608 1667.48 64.1077 1665.64 69.625C1668.57 76.4234 1672.67 83.5939 1682.91 88.2226C1647.94 93.4093 1612.56 97.6248 1577.48 102.563C1583.76 95.1038 1601.12 94.9591 1613.05 91.4049Z" fill="#8CA63D" stroke="#8CA63D" stroke-width="0.333333"/>
<path d="M918.775 66.0504C954.121 64.5833 989.467 61.773 1025.04 62.2896C1023.31 62.8475 1019.84 63.9634 1018.11 64.5213C1019.62 65.9058 1021.12 67.2903 1022.67 68.6954C1033.7 68.964 1044.73 68.9847 1055.76 68.7988C1070.77 68.6128 1085.42 71.6504 1100.47 70.2452C1096.07 70.9478 1091.7 71.6917 1087.34 72.4563C1060.72 71.3611 1034.19 73.0142 1007.65 73.5928C975.427 73.4275 943.243 75.3906 911.058 76.1552C888.624 76.9197 866.302 78.4902 843.905 79.4407C819.475 80.3913 795.233 82.623 770.766 83.3876C779.16 79.2548 789.173 76.2998 799.788 74.2954C839.538 71.8984 878.837 67.6002 918.775 66.0504Z" fill="#45663E" stroke="#45663E" stroke-width="0.333333"/>
<path d="M1046.83 66.7534C1066.33 66.5054 1085.87 66.0508 1105.37 66.898C1149.64 70.2456 1194.32 72.2293 1238.17 77.168C1299.83 84.1731 1359.27 95.7244 1418.18 107.689C1403.95 110.334 1389.91 103.391 1376.05 107.586C1328.81 98.8859 1279.58 94.0919 1232.11 85.8056C1219.65 83.0573 1207.19 80.1644 1193.83 79.0898C1162.7 76.3415 1132.28 70.0389 1100.47 70.2456C1085.42 71.6507 1070.77 68.6131 1055.76 68.7991C1052.74 68.1379 1049.77 67.456 1046.83 66.7534Z" fill="#CBD664" stroke="#CBD664" stroke-width="0.333333"/>
<path d="M1665.63 69.6254C1667.48 64.1081 1681.11 66.6085 1688.3 65.8232C1711.29 68.0343 1734.07 70.9892 1757.29 72.6424C1762.26 73.7376 1767.16 74.9774 1772.09 76.2173C1742.31 80.1021 1712.5 83.9663 1682.91 88.2231C1672.67 83.5943 1668.57 76.4239 1665.63 69.6254Z" fill="#7F9B3F" stroke="#7F9B3F" stroke-width="0.333333"/>
<path d="M1817.41 69.7498C1820.98 69.2539 1828.1 68.2621 1831.64 67.7661C1827.84 69.6879 1824.18 71.6923 1820.53 73.7174C1832.13 85.9918 1821.55 100.622 1804.23 109.425C1794.79 113.496 1784.96 117.442 1778.26 123.022C1786.81 123.394 1795.65 123.559 1803.44 125.791C1768.96 128.25 1734.75 131.742 1700.12 133.54C1688.33 132.507 1676.51 131.701 1664.58 131.577C1682.61 128.87 1695.9 121.224 1712.61 116.967C1726.05 110.417 1739.26 103.68 1752.36 96.9231C1749.84 92.501 1748.79 87.8309 1751.69 83.3881C1767.23 81.1771 1783.3 78.9867 1795.95 73.2214C1803.07 72.0022 1810.22 70.8037 1817.41 69.7498Z" fill="#FFE238" stroke="#FFE238" stroke-width="0.333333"/>
<path d="M1100.48 70.2452C1132.28 70.0386 1162.7 76.3412 1193.83 79.0895C1207.19 80.164 1219.65 83.057 1232.11 85.8053C1226.31 86.7145 1220.55 87.665 1214.72 88.4709C1192.25 85.9292 1170.75 81.4038 1148.47 78.4695C1128.37 75.6385 1107.63 74.688 1087.34 72.4563C1091.7 71.6917 1096.07 70.9478 1100.48 70.2452Z" fill="#A6B74A" stroke="#A6B74A" stroke-width="0.333333"/>
<path d="M1007.65 73.5934C1034.19 73.0148 1060.72 71.3616 1087.34 72.4568C1107.63 74.6885 1128.37 75.6391 1148.47 78.4701C1170.75 81.4044 1192.25 85.9298 1214.72 88.4715C1267.34 96.7164 1320.42 104.156 1372.48 113.434C1358.55 115.789 1342.66 116.161 1332.31 122.629C1311.38 121.017 1290.3 120.356 1269.19 119.922C1255.03 119.323 1239.9 119.695 1227.25 115.603C1181.44 101.015 1129.76 93.5962 1079.36 85.3925C1055.53 81.2804 1030.2 79.7513 1007.65 73.5934Z" fill="#C8D36D" stroke="#C8D36D" stroke-width="0.333333"/>
<path d="M753.371 76.321C768.654 74.6472 784.2 73.6967 799.784 74.296C789.169 76.3004 779.156 79.2554 770.762 83.3882C735.039 84.9173 699.806 88.8435 664.046 89.98C660.244 88.2029 656.442 86.4671 652.603 84.69C685.916 80.8878 719.945 79.6893 753.371 76.321Z" fill="#2C4C40" stroke="#2C4C40" stroke-width="0.333333"/>
<path d="M911.057 76.1557C943.241 75.3911 975.425 73.428 1007.65 73.5933C1030.19 79.7512 1055.53 81.2803 1079.36 85.3925C1129.76 93.5961 1181.44 101.015 1227.25 115.603C1239.9 119.695 1255.03 119.323 1269.19 119.922C1290.3 120.356 1311.38 121.017 1332.31 122.629C1355.42 124.262 1378.5 126.163 1401.84 126.617C1378.61 132.093 1354.97 137.011 1331.67 142.405C1326.14 143.748 1320.6 145.132 1315.26 146.703C1315.97 144.781 1316.73 142.88 1317.48 140.979C1292.22 139.822 1266.4 140.111 1241.93 143.996C1206.13 149.906 1168.76 151.931 1132.39 156.456C1119.48 157.427 1106.46 157.717 1093.51 158.419L1091.44 158.502L1086.17 156.601C1098.1 153.646 1113.46 156.332 1123.43 151.208C1113.91 148.108 1105.07 144.347 1095.13 141.681C1077.32 143.355 1057.41 142.942 1043.29 135.875C1034.3 130.13 1026.39 123.89 1017.92 117.918C1006.59 114.26 999.591 107.854 988.487 104.031C975.877 99.9606 979.264 90.3312 972.828 83.9047C975.726 82.1689 978.625 80.4538 981.523 78.7593C957.921 79.4619 934.508 77.1475 911.057 76.1557Z" fill="#A0B139" stroke="#A0B139" stroke-width="0.333333"/>
<path d="M1772.09 76.2175C1779.99 75.1223 1787.97 74.1924 1795.95 73.2212C1783.3 78.9865 1767.23 81.1769 1751.68 83.3879C1748.79 87.8307 1749.84 92.5008 1752.36 96.9229C1739.26 103.68 1726.05 110.417 1712.61 116.967C1695.9 121.224 1682.61 128.87 1664.58 131.577C1676.51 131.701 1688.33 132.506 1700.11 133.54C1642.07 138.458 1583.5 141.392 1525.38 146.207C1526.43 145.091 1528.54 142.859 1529.59 141.764C1519.13 136.04 1502.98 136.329 1490.63 132.403C1477.8 129.675 1474.71 119.881 1459.69 119.385C1461.61 119.013 1465.41 118.269 1467.33 117.876C1504.04 112.814 1540.77 107.668 1577.48 102.564C1612.56 97.6255 1647.94 93.41 1682.91 88.2233C1712.5 83.9665 1742.31 80.1023 1772.09 76.2175Z" fill="#FEE94A" stroke="#FEE94A" stroke-width="0.333333"/>
<path d="M468.533 97.6258C497.894 90.9307 526.54 83.4296 554.847 75.5566C565.951 77.5197 577.32 78.9662 588.537 80.6813C597.044 82.1072 605.476 83.6776 614.171 84.8142L612.176 86.8806C615.263 88.4304 618.5 89.7322 621.737 91.22C615.15 91.9433 608.638 92.8111 602.05 93.4517C566.78 95.9314 531.471 98.2251 496.012 99.6922L493.49 99.6716C484.192 99.403 474.895 98.9071 465.635 98.3905L468.533 97.6258Z" fill="#264B3A" stroke="#264B3A" stroke-width="0.333333"/>
<path d="M843.902 79.4413C866.299 78.4908 888.621 76.9203 911.056 76.1558C934.507 77.1476 957.92 79.462 981.522 78.7595C978.623 80.4539 975.725 82.169 972.827 83.9048C979.263 90.3313 975.876 99.9607 988.486 104.032C999.59 107.854 1006.59 114.26 1017.92 117.918C1026.39 123.89 1034.3 130.13 1043.29 135.875C1057.41 142.942 1077.32 143.355 1095.13 141.681C1105.06 144.347 1113.91 148.108 1123.43 151.208C1113.46 156.332 1098.1 153.646 1086.17 156.601C1003.05 140.71 918.848 126.679 833.663 114.591C836.825 107.028 829.56 99.7954 827.527 92.4184C832.835 92.1704 838.18 91.9224 843.525 91.6951C841.643 89.918 839.799 88.1616 837.954 86.4258C840.702 86.1158 843.488 85.8266 846.273 85.5373C849.096 87.0664 851.92 88.5955 854.78 90.1247C855.119 85.6199 848.946 82.5203 843.902 79.4413Z" fill="#97AB3A" stroke="#97AB3A" stroke-width="0.333333"/>
<path d="M770.765 83.3873C795.233 82.6227 819.475 80.391 843.904 79.4404C848.949 82.5194 855.122 85.619 854.783 90.1238C851.922 88.5946 849.099 87.0655 846.276 85.5364C843.49 85.8256 840.705 86.1149 837.957 86.4249C839.801 88.1607 841.646 89.9171 843.528 91.6942C838.183 91.9215 832.838 92.1695 827.53 92.4175C829.563 99.7945 836.828 107.027 833.666 114.59C781.719 107.192 729.434 100.518 677.488 93.1407C652.682 88.6773 627.273 94.2979 602.053 93.4507C608.64 92.8101 615.152 91.9422 621.74 91.219C618.502 89.7312 615.265 88.4293 612.179 86.8795C627.386 92.5828 646.885 88.8426 664.05 89.9791C699.81 88.8426 735.043 84.9164 770.765 83.3873Z" fill="#8DA33D" stroke="#8DA33D" stroke-width="0.333333"/>
<path d="M361.782 84.1734C370.74 83.5328 380.151 82.3756 388.884 84.3593C406.388 87.8309 424.042 91.0545 441.884 94.0094C424.983 98.2249 406.727 100.147 388.319 101.056C359.824 104.693 330.576 105.685 301.479 106.862C279.345 107.751 257.588 111.533 235.266 110.21C217.423 109.177 199.43 107.813 181.513 109.342C186.707 110.871 191.902 112.38 197.247 113.806C168.187 112.896 140.671 106.904 111.761 105.416C72.4629 100.746 32.8632 96.9851 -7 93.9888V90.3312C13.0257 91.3438 33.089 91.9017 53.0771 93.2035C78.4857 91.1785 104.233 91.6744 129.717 89.9593C156.895 88.5128 184.261 90.3312 211.363 88.4921C237.336 86.5704 263.686 88.1822 289.659 86.0331C313.562 84.1527 337.879 86.2191 361.782 84.1734Z" fill="#284F40" stroke="#284F40" stroke-width="0.333333"/>
<path d="M1214.72 88.4713C1220.55 87.6654 1226.31 86.7149 1232.11 85.8057C1279.58 94.092 1328.81 98.886 1376.05 107.586C1397.92 113.681 1422.2 116.037 1444.71 121.141C1437.41 121.224 1430.11 121.327 1422.81 121.43C1406.32 118.207 1389.38 115.851 1372.48 113.433C1320.42 104.155 1267.34 96.7162 1214.72 88.4713Z" fill="#98AB34" stroke="#98AB34" stroke-width="0.333333"/>
<path d="M602.055 93.4515C627.275 94.2988 652.684 88.6782 677.49 93.1416C729.436 100.519 781.722 107.193 833.668 114.591C918.853 126.679 1003.06 140.71 1086.17 156.601L1091.44 158.502C1068.74 167.553 1045.59 176.252 1021.2 183.877C1008.4 182.018 995.041 182.266 982.054 181.315C954.876 178.092 928.602 173.05 902.102 168.565C871.724 163.172 841.799 157.056 811.196 152.096C752.248 141.847 693.827 130.771 634.653 120.935C612.971 117.505 591.59 113.516 569.683 110.561C545.064 107.048 520.597 103.226 496.017 99.6921C531.476 98.2249 566.784 95.9312 602.055 93.4515Z" fill="#B4C246" stroke="#B4C246" stroke-width="0.333333"/>
<path d="M-7 93.9888C32.8632 96.9851 72.4629 100.746 111.761 105.416C95.5376 111.698 75.0602 109.136 56.8037 111.615C35.7993 114.116 14.3432 115.107 -7 116.43V93.9888Z" fill="#234C3E" stroke="#234C3E" stroke-width="0.333333"/>
<path d="M388.319 101.056C406.726 100.147 424.982 98.2252 441.884 94.0098C450.654 95.4149 459.613 96.5308 468.534 97.626L465.636 98.3906C443.389 104.755 419.148 108.475 395.96 113.62C384.291 116.306 371.756 117.216 359.485 118.621C350.036 119.571 343.374 123.663 336.485 126.969C349.133 129.159 361.818 131.494 373.262 135.276C371.116 135.854 366.825 137.032 364.679 137.611C342.583 135.834 320.337 134.78 298.128 133.561C295.643 131.618 293.121 129.676 290.637 127.754C298.128 127.403 305.618 127.052 313.072 126.68C274.639 121.927 235.942 117.856 197.246 113.806C191.901 112.38 186.706 110.872 181.512 109.343C199.429 107.813 217.422 109.177 235.265 110.21C257.587 111.533 279.344 107.751 301.478 106.863C330.575 105.685 359.823 104.693 388.319 101.056Z" fill="#3B6242" stroke="#3B6242" stroke-width="0.333333"/>
<path d="M395.961 113.62C419.149 108.474 443.39 104.755 465.637 98.3901C474.897 98.9067 484.195 99.4027 493.492 99.6713C491.008 100.291 488.486 100.973 486.039 101.676C483.103 107.172 474.784 111.532 474.219 117.442C473.354 124.2 469.627 130.709 465.374 137.053C467.933 137.817 470.531 138.602 473.09 139.408C468.648 140.648 464.244 141.909 459.84 143.148C471.208 145.897 482.463 148.769 493.266 152.158C490.368 152.427 484.496 152.985 481.597 153.274C442.901 147.467 404.242 141.371 364.68 137.61C366.826 137.032 371.117 135.854 373.263 135.275C361.82 131.494 349.134 129.159 336.486 126.968C343.375 123.662 350.038 119.571 359.486 118.62C371.757 117.215 384.292 116.306 395.961 113.62Z" fill="#476D43" stroke="#476D43" stroke-width="0.333333"/>
<path d="M493.494 99.6714L496.016 99.692C520.597 103.226 545.064 107.048 569.682 110.561C572.505 112.71 575.366 114.88 578.189 117.05C572.844 119.984 566.332 122.485 562.605 126.163C561.401 136.081 563.471 146.062 565.24 155.96C563.245 156.601 561.288 157.262 559.33 157.944C565.73 159.576 571.828 161.643 576.947 164.35C571.527 164.846 566.106 165.28 560.686 165.672C534.336 161.457 507.76 157.717 481.599 153.274C484.498 152.985 490.37 152.427 493.268 152.158C482.465 148.769 471.21 145.897 459.842 143.149C464.246 141.909 468.65 140.648 473.092 139.408C470.532 138.602 467.935 137.817 465.375 137.053C469.629 130.709 473.355 124.2 474.221 117.442C474.786 111.533 483.105 107.172 486.041 101.676C488.488 100.973 491.01 100.291 493.494 99.6714Z" fill="#557B42" stroke="#557B42" stroke-width="0.333333"/>
<path d="M111.761 105.416C140.671 106.904 168.187 112.896 197.247 113.806C235.943 117.856 274.64 121.927 313.072 126.679C305.619 127.051 298.128 127.403 290.638 127.754C293.122 129.676 295.644 131.618 298.128 133.56C262.218 131.949 226.57 134.966 190.735 135.42C155.163 135.937 119.666 137.921 84.0944 138.871C53.83 135.957 23.3773 140.318 -7 140.752V116.43C14.3432 115.107 35.7993 114.116 56.8037 111.615C75.0602 109.136 95.5376 111.698 111.761 105.416Z" fill="#234C3E" stroke="#234C3E" stroke-width="0.333333"/>
<path d="M1376.05 107.585C1389.9 103.391 1403.94 110.334 1418.17 107.689C1435.15 110.107 1451.79 113.371 1467.33 117.876C1465.41 118.269 1461.61 119.013 1459.69 119.385C1454.69 120.005 1449.68 120.542 1444.71 121.141C1422.2 116.037 1397.92 113.681 1376.05 107.585Z" fill="#B5C855" stroke="#B5C855" stroke-width="0.333333"/>
<path d="M569.681 110.561C591.589 113.516 612.969 117.504 634.651 120.934C636.308 123.311 639.62 125.646 638.566 128.332C636.195 138.375 628.478 148.562 633.221 158.729C635.028 163.709 636.496 168.73 638.114 173.731C633.748 174.62 629.344 175.508 625.015 176.438C603.898 172.243 581.99 169.454 560.684 165.672C566.105 165.279 571.525 164.846 576.946 164.35C571.826 161.643 565.728 159.576 559.329 157.944C561.287 157.262 563.244 156.601 565.239 155.96C563.47 146.062 561.399 136.081 562.604 126.162C566.331 122.484 572.843 119.984 578.188 117.05C575.365 114.88 572.504 112.71 569.681 110.561Z" fill="#628541" stroke="#628541" stroke-width="0.333333"/>
<path d="M1372.48 113.434C1389.38 115.851 1406.32 118.207 1422.8 121.431C1415.92 123.29 1409.07 125.212 1401.84 126.617C1378.5 126.163 1355.42 124.262 1332.31 122.629C1342.66 116.161 1358.55 115.789 1372.48 113.434Z" fill="#C8D35D" stroke="#C8D35D" stroke-width="0.333333"/>
<path d="M1803.44 125.791C1842.63 123.662 1881.18 119.034 1920.29 116.451V230.661C1861.26 215.452 1798.17 205.802 1735.27 196.793C1738.02 196.462 1743.55 195.801 1746.3 195.47C1744.01 194.086 1741.75 192.742 1739.53 191.379C1739.64 190.221 1739.79 189.064 1739.98 187.928C1731.43 186.75 1723.04 185.303 1714.98 183.382C1723.34 181.997 1732.04 182.617 1740.54 183.113C1742.73 175.509 1752.66 169.764 1758.99 163.151C1767.83 153.935 1784.89 148.356 1794.52 139.429C1797.99 135.565 1805.59 134.449 1812.4 133.127C1809.2 130.73 1806.15 128.312 1803.44 125.791Z" fill="#A1A736" stroke="#A1A736" stroke-width="0.333333"/>
<path d="M1444.71 121.141C1449.68 120.542 1454.69 120.005 1459.7 119.385C1474.71 119.881 1477.8 129.675 1490.64 132.403C1502.98 136.329 1519.13 136.04 1529.6 141.764C1528.54 142.859 1526.43 145.091 1525.38 146.207C1503.55 147.963 1481.57 149.203 1459.81 151.331C1458.42 151.373 1455.63 151.476 1454.24 151.538C1448.97 151.021 1443.7 150.484 1438.5 149.926C1443.28 149.079 1448.06 148.211 1452.92 147.364C1443.96 141.309 1424.27 135.523 1432.48 126.307C1428 126.679 1423.52 127.01 1419.08 127.34C1426.46 124.034 1435.57 122.36 1444.71 121.141Z" fill="#FCDC34" stroke="#FCDC34" stroke-width="0.333333"/>
<path d="M634.648 120.934C693.822 130.77 752.243 141.846 811.191 152.095C807.389 154.782 803.624 157.468 799.898 160.175C801.667 160.485 805.281 161.105 807.05 161.415C800.5 166.767 803.813 173.379 802.458 179.413C801.328 185.943 802.269 192.494 804.227 198.962C802.119 199.457 797.903 200.491 795.795 200.987C801.404 202.516 807.351 204.107 810.325 207.351C808.142 207.806 803.85 208.694 801.705 209.128C783.411 204.995 764.928 201.131 746.032 197.97C706.018 190.221 665.063 184.063 625.012 176.438C629.341 175.508 633.745 174.619 638.111 173.731C636.493 168.73 635.025 163.709 633.218 158.729C628.475 148.562 636.192 138.375 638.563 128.332C639.617 125.645 636.304 123.31 634.648 120.934Z" fill="#74913C" stroke="#74913C" stroke-width="0.333333"/>
<path d="M1422.8 121.43C1430.11 121.327 1437.41 121.224 1444.71 121.141C1435.56 122.36 1426.46 124.034 1419.08 127.34C1423.52 127.01 1428 126.679 1432.48 126.307C1424.27 135.523 1443.96 141.309 1452.92 147.364C1448.06 148.211 1443.28 149.079 1438.5 149.926C1443.7 150.484 1448.97 151.021 1454.24 151.538C1414.86 153.232 1375.68 158.646 1336.08 156.559C1332.76 152.055 1330.66 147.281 1331.67 142.404C1354.97 137.011 1378.61 132.093 1401.84 126.617C1409.06 125.212 1415.92 123.29 1422.8 121.43Z" fill="#F3CC2A" stroke="#F3CC2A" stroke-width="0.333333"/>
<path d="M1700.11 133.54C1734.74 131.742 1768.96 128.25 1803.44 125.791C1806.15 128.312 1809.2 130.729 1812.4 133.126C1805.59 134.449 1797.98 135.565 1794.52 139.429C1784.88 148.356 1767.83 153.935 1758.99 163.151C1752.66 169.764 1742.72 175.508 1740.54 183.113C1732.03 182.617 1723.34 181.997 1714.98 183.381C1723.04 185.303 1731.43 186.75 1739.98 187.927C1739.79 189.064 1739.64 190.221 1739.52 191.378C1741.75 192.742 1744 194.085 1746.3 195.47C1743.55 195.8 1738.02 196.462 1735.27 196.792C1727.03 195.78 1718.9 194.643 1710.73 193.548C1633.64 184.167 1557.19 172.471 1478.51 167.656C1481.15 165.961 1483.86 164.308 1486.53 162.655C1484.05 160.899 1481.6 159.184 1479.15 157.469C1479.83 156.001 1480.51 154.534 1481.22 153.088C1474.07 152.447 1466.96 151.765 1459.8 151.331C1481.56 149.203 1503.54 147.963 1525.38 146.207C1583.5 141.392 1642.07 138.458 1700.11 133.54Z" fill="#ACAF35" stroke="#ACAF35" stroke-width="0.333333"/>
<path d="M190.736 135.42C226.572 134.966 262.219 131.949 298.13 133.561C320.339 134.78 342.585 135.834 364.681 137.611C404.243 141.372 442.902 147.467 481.598 153.274C507.76 157.717 534.335 161.457 560.685 165.672C581.99 169.454 603.898 172.244 625.015 176.438C665.067 184.063 706.022 190.221 746.036 197.97C745.057 200.057 744.078 202.186 743.137 204.314C729.398 200.595 714.378 199.376 699.472 198.28C687.238 192.288 670.299 192.825 655.957 189.395C644.1 186.894 631.114 186.812 619.294 184.208C610.561 182.018 602.995 186.853 595.542 188.61C570.999 183.464 545.703 179.393 521.311 173.979C496.053 166.086 467.595 162.118 440.079 157.283C416.967 153.212 393.515 149.575 369.387 147.819C325.006 142.074 279.685 137.032 233.837 137.487C219.42 137.425 204.664 137.879 190.736 135.42Z" fill="#A8BB3B" stroke="#A8BB3B" stroke-width="0.333333"/>
<path d="M84.0964 138.871C119.668 137.92 155.165 135.937 190.737 135.42C204.665 137.879 219.42 137.424 233.837 137.486C279.686 137.032 325.007 142.074 369.387 147.818C376.426 149.823 382.901 152.426 388.096 155.753C383.466 155.753 378.836 155.753 374.206 155.733C373.152 156.642 371.006 158.46 369.914 159.37C375.147 166.065 384.482 171.293 393.441 176.5C390.655 177.368 387.907 178.277 385.122 179.166C392.613 180.778 403.04 180.468 407.444 184.766C397.544 185.861 385.461 184.642 378.196 189.374C329.148 178.112 278.594 168.999 227.965 160.113C178.315 152.178 128.627 142.611 76.5303 141.165C79.0523 140.379 81.5367 139.615 84.0964 138.871Z" fill="#7A9E45" stroke="#7A9E45" stroke-width="0.333333"/>
<path d="M-7 140.751C23.3773 140.317 53.83 135.957 84.0944 138.871C81.5347 139.615 79.0503 140.379 76.5283 141.165C128.625 142.611 178.313 152.179 227.963 160.114C278.592 168.999 329.146 178.112 378.194 189.374C455.812 207.352 529.478 230.991 593.508 261.14C606.005 266.761 619.518 271.7 632.919 276.659H-7V140.751Z" fill="#456D42" stroke="#456D42" stroke-width="0.333333"/>
<path d="M1241.93 143.996C1266.4 140.111 1292.22 139.822 1317.48 140.979C1316.73 142.88 1315.98 144.781 1315.26 146.703C1310.86 148.707 1306.68 150.877 1302.54 153.067C1307.13 155.671 1313.53 156.312 1319.74 157.035L1323.54 158.585C1296.37 158.709 1269.26 157.386 1242.09 157.469C1249.8 154.121 1261.21 151.27 1260.49 144.926C1254.32 144.575 1248.11 144.223 1241.93 143.996Z" fill="#8C9B36" stroke="#8C9B36" stroke-width="0.333333"/>
<path d="M1315.26 146.703C1320.61 145.132 1326.14 143.748 1331.67 142.405C1330.66 147.282 1332.76 152.055 1336.08 156.56C1330.62 156.622 1325.16 156.766 1319.74 157.035C1313.53 156.312 1307.13 155.671 1302.54 153.067C1306.68 150.877 1310.86 148.707 1315.26 146.703Z" fill="#D7BE23" stroke="#D7BE23" stroke-width="0.333333"/>
<path d="M1132.39 156.456C1168.76 151.931 1206.14 149.906 1241.93 143.996C1248.11 144.223 1254.32 144.574 1260.49 144.926C1261.21 151.269 1249.8 154.121 1242.08 157.469C1205.53 156.787 1168.83 158.233 1132.39 156.456Z" fill="#778735" stroke="#778735" stroke-width="0.333333"/>
<path d="M369.386 147.818C393.514 149.574 416.966 153.211 440.078 157.282C467.595 162.117 496.052 166.085 521.31 173.979C524.547 182.286 535.049 188.96 540.846 196.73C567.61 227.912 609.054 254.568 656.86 276.658H632.92C619.519 271.699 606.005 266.76 593.508 261.14C529.478 230.991 455.812 207.351 378.194 189.373C385.459 184.641 397.542 185.86 407.442 184.765C403.038 180.467 392.611 180.777 385.12 179.165C387.906 178.277 390.654 177.367 393.439 176.5C384.48 171.292 375.145 166.064 369.913 159.369C371.004 158.46 373.15 156.641 374.204 155.732C378.834 155.753 383.464 155.753 388.094 155.753C382.899 152.426 376.425 149.822 369.386 147.818Z" fill="#85A441" stroke="#85A441" stroke-width="0.333333"/>
<path d="M1454.23 151.538C1455.63 151.476 1458.41 151.372 1459.81 151.331C1466.96 151.765 1474.07 152.447 1481.22 153.088C1480.51 154.534 1479.83 156.001 1479.15 157.468C1481.6 159.183 1484.05 160.898 1486.53 162.655C1483.86 164.308 1481.15 165.961 1478.51 167.656C1473.39 167.346 1468.31 167.098 1463.23 166.891C1416.7 163.812 1370.4 159.535 1323.54 158.584L1319.74 157.034C1325.16 156.766 1330.62 156.621 1336.08 156.559C1375.67 158.646 1414.86 153.232 1454.23 151.538Z" fill="#9EA537" stroke="#9EA537" stroke-width="0.333333"/>
<path d="M811.193 152.097C841.796 157.056 871.721 163.173 902.099 168.566C908.121 183.961 906.804 199.893 909.213 215.515C910.493 221.115 912.676 226.673 912.977 232.356C876.276 224.049 838.031 217.953 801.707 209.129C803.852 208.696 808.144 207.807 810.327 207.352C807.353 204.108 801.406 202.517 795.797 200.988C797.905 200.492 802.121 199.459 804.229 198.963C802.271 192.495 801.33 185.944 802.46 179.415C803.815 173.381 800.502 166.768 807.052 161.416C805.283 161.106 801.669 160.486 799.9 160.176C803.626 157.469 807.391 154.783 811.193 152.097Z" fill="#889F3A" stroke="#889F3A" stroke-width="0.333333"/>
<path d="M1093.51 158.419C1106.46 157.717 1119.48 157.427 1132.4 156.456C1168.83 158.233 1205.53 156.787 1242.08 157.469C1269.26 157.386 1296.37 158.708 1323.54 158.584C1370.41 159.535 1416.71 163.812 1463.23 166.891C1459.39 171.438 1450.06 169.784 1442.98 169.97C1433.01 169.557 1423.11 170.384 1413.51 171.83C1419.61 174.744 1426.31 177.678 1428.41 182.183C1430.37 187.06 1439.71 188.754 1446.29 191.42C1430.52 192.391 1413.92 190.51 1398.98 194.106C1362.24 192.453 1325.8 189.353 1289.21 187.018C1247.39 183.03 1205.23 180.344 1163.45 176.252C1137.36 174.165 1116.51 164.68 1093.51 158.419Z" fill="#455936" stroke="#455936" stroke-width="0.333333"/>
<path d="M1091.44 158.502L1093.51 158.419C1116.51 164.681 1137.36 174.165 1163.45 176.253C1205.23 180.344 1247.39 183.03 1289.21 187.018C1265.95 190.118 1243.17 184.849 1220.06 184.084C1201.62 183.299 1183.32 181.832 1164.95 180.571C1165.71 185.407 1165.86 190.325 1162.92 194.995C1159.23 195.222 1155.58 195.449 1151.93 195.697C1159.99 197.743 1169.55 199.334 1172.75 204.459C1131.15 197.619 1089.33 191.048 1046.49 186.936C1037.91 186.295 1029.25 185.675 1021.2 183.878C1045.59 176.253 1068.74 167.553 1091.44 158.502Z" fill="#B4C246" stroke="#B4C246" stroke-width="0.333333"/>
<path d="M1463.23 166.891C1468.31 167.098 1473.4 167.346 1478.51 167.656C1557.19 172.47 1633.64 184.166 1710.73 193.548C1713.52 196.585 1713.21 200.016 1712.91 203.322C1717.13 203.074 1721.38 202.826 1725.67 202.599C1724.77 203.9 1723.87 205.202 1723.04 206.504C1727.82 210.823 1736.14 212.042 1744.87 211.732C1745.44 213.075 1746.04 214.418 1746.64 215.782C1748.45 216.299 1752.06 217.332 1753.87 217.849C1746 218.779 1738.21 219.874 1730.42 220.948C1699.06 219.109 1668.23 215.452 1637.06 212.993C1557.86 205.987 1478.29 200.532 1398.98 194.106C1413.92 190.51 1430.52 192.391 1446.29 191.419C1439.71 188.754 1430.37 187.059 1428.41 182.182C1426.3 177.678 1419.6 174.743 1413.51 171.83C1423.11 170.383 1433.01 169.557 1442.98 169.97C1450.06 169.784 1459.39 171.437 1463.23 166.891Z" fill="#4B5E37" stroke="#4B5E37" stroke-width="0.333333"/>
<path d="M902.1 168.565C928.6 173.05 954.874 178.092 982.052 181.315C988.677 182.865 995.114 184.663 1001.51 186.502C999.217 187.101 994.624 188.32 992.328 188.94C999.97 195.325 1010.66 201.669 1010.85 209.749C1009.49 226.776 1031.1 241.427 1029.59 258.495C1028.24 258.888 1025.57 259.653 1024.21 260.025C1008.14 257.008 993.457 252.276 978.25 248.246C956.944 242.357 934.66 237.749 912.978 232.355C912.677 226.673 910.494 221.114 909.214 215.514C906.805 199.892 908.122 183.96 902.1 168.565Z" fill="#92A739" stroke="#92A739" stroke-width="0.333333"/>
<path d="M540.847 196.73C535.05 188.96 524.548 182.286 521.311 173.979C545.703 179.393 570.998 183.464 595.541 188.609C616.884 192.763 637.926 197.329 659.119 201.71C656.032 204.211 653.059 206.773 650.273 209.377C663.184 213.427 664.05 222.085 671.127 228.491C679.709 236.922 682.871 246.634 691.454 255.085C698.38 261.801 698.38 269.86 705.043 276.659H656.86C609.055 254.569 567.611 227.912 540.847 196.73Z" fill="#476D3F" stroke="#476D3F" stroke-width="0.333333"/>
<path d="M1164.95 180.571C1183.32 181.831 1201.62 183.298 1220.06 184.084C1243.18 184.848 1265.95 190.118 1289.21 187.018C1325.8 189.353 1362.24 192.453 1398.98 194.106C1478.29 200.532 1557.87 205.988 1637.06 212.993C1668.23 215.452 1699.06 219.109 1730.42 220.948C1766.14 224.544 1802.05 227.664 1837.7 231.528C1865.14 234.607 1893.15 236.033 1920.29 239.959V276.659H1524.36C1468.62 260.499 1409.55 248.204 1350.23 236.715C1290.87 226.259 1231.96 215.121 1172.75 204.458C1169.55 199.334 1159.99 197.743 1151.93 195.697C1155.58 195.449 1159.23 195.222 1162.92 194.994C1165.86 190.324 1165.71 185.406 1164.95 180.571Z" fill="#B4C246" stroke="#B4C246" stroke-width="0.333333"/>
<path d="M595.54 188.609C602.993 186.853 610.559 182.018 619.292 184.208C631.112 186.812 644.099 186.894 655.956 189.395C670.298 192.825 687.237 192.288 699.47 198.28C714.377 199.375 729.396 200.595 743.135 204.314C744.077 202.186 745.055 200.057 746.034 197.97C764.93 201.132 783.413 204.996 801.707 209.129C838.032 217.952 876.276 224.048 912.978 232.355C934.659 237.748 956.944 242.357 978.249 248.246C993.457 252.275 1008.14 257.007 1024.21 260.024C1025.57 259.652 1028.24 258.888 1029.59 258.495C1031.1 241.427 1009.49 226.776 1010.85 209.749C1010.66 201.669 999.969 195.325 992.328 188.94C994.624 188.32 999.216 187.101 1001.51 186.502C995.113 184.663 988.676 182.865 982.051 181.315C995.038 182.265 1008.4 182.018 1021.2 183.877C1029.25 185.675 1037.91 186.295 1046.49 186.936C1089.33 191.048 1131.15 197.619 1172.75 204.459C1231.96 215.121 1290.87 226.259 1350.23 236.715C1409.55 248.205 1468.62 260.5 1524.36 276.659H973.958C942.414 266.781 908.799 259.156 876.314 250.333C863.403 246.799 850.378 243.39 836.94 240.518C806.789 233.926 777.465 226.197 746.937 220.081C717.652 213.985 688.404 207.848 659.118 201.71C637.925 197.33 616.883 192.763 595.54 188.609Z" fill="#9FB33A" stroke="#9FB33A" stroke-width="0.333333"/>
<path d="M1710.73 193.548C1718.9 194.644 1727.03 195.78 1735.28 196.793C1798.18 205.802 1861.26 215.452 1920.29 230.661V239.96C1893.15 236.034 1865.14 234.608 1837.7 231.529C1802.05 227.665 1766.14 224.544 1730.42 220.949C1738.21 219.874 1746 218.779 1753.87 217.849C1752.06 217.333 1748.45 216.299 1746.64 215.783C1746.04 214.419 1745.44 213.076 1744.87 211.733C1736.14 212.043 1727.82 210.823 1723.04 206.505C1723.87 205.203 1724.77 203.901 1725.68 202.599C1721.39 202.827 1717.13 203.074 1712.92 203.322C1713.22 200.016 1713.52 196.586 1710.73 193.548Z" fill="#576839" stroke="#576839" stroke-width="0.333333"/>
<path d="M659.119 201.71C688.405 207.847 717.653 213.984 746.939 220.08C748.595 221.506 750.251 222.953 751.945 224.399C747.654 224.771 743.363 225.164 739.072 225.577C744.718 229.069 752.134 232.251 753.865 237.087C756.237 241.984 756.801 247.233 761.318 251.758C770.014 259.28 761.506 268.641 768.244 276.658H705.043C698.38 269.86 698.38 261.801 691.454 255.085C682.872 246.634 679.71 236.921 671.127 228.491C664.05 222.085 663.185 213.426 650.273 209.376C653.059 206.773 656.033 204.21 659.119 201.71Z" fill="#527840" stroke="#527840" stroke-width="0.333333"/>
<path d="M746.938 220.081C777.465 226.198 806.789 233.926 836.94 240.518C833.138 243.287 827.793 245.932 828.207 249.755C828.358 260.624 840.78 270.439 856.439 276.659H768.243C761.505 268.642 770.012 259.281 761.317 251.759C756.8 247.234 756.235 241.985 753.864 237.088C752.132 232.252 744.717 229.07 739.07 225.578C743.362 225.164 747.653 224.772 751.944 224.4C750.25 222.953 748.594 221.507 746.938 220.081Z" fill="#5B8040" stroke="#5B8040" stroke-width="0.333333"/>
<path d="M836.938 240.518C850.377 243.39 863.401 246.799 876.312 250.333C908.797 259.157 942.412 266.782 973.956 276.659H856.437C840.778 270.439 828.356 260.624 828.205 249.754C827.791 245.932 833.136 243.287 836.938 240.518Z" fill="#698A42" stroke="#698A42" stroke-width="0.333333"/>
</svg>
