<?xml version="1.0" encoding="UTF-8" standalone="no"?>
<svg
   version="1.1"
   width="1000px"
   height="1080px"
   style="shape-rendering:geometricPrecision; text-rendering:geometricPrecision; image-rendering:optimizeQuality; fill-rule:evenodd; clip-rule:evenodd"
   id="svg282"
   xmlns="http://www.w3.org/2000/svg">
  <defs
     id="defs286" />
  <g
     id="g8">
    <path
       style="opacity:1"
       fill="#bebebe"
       d="M 496.5,412.5 C 495.509,439.759 495.176,467.093 495.5,494.5C 494.825,481.74 494.491,468.24 494.5,454C 494.501,439.817 495.167,425.983 496.5,412.5 Z"
       id="path6" />
  </g>
  <g
     id="g12">
    <path
       style="opacity:1"
       fill="#343433"
       d="M 496.5,412.5 C 495.167,425.983 494.501,439.817 494.5,454C 494.491,468.24 494.825,481.74 495.5,494.5C 510.214,482.422 525.881,481.255 542.5,491C 549.126,495.458 554.126,501.291 557.5,508.5C 574.994,496.703 592.66,496.536 610.5,508C 617.137,514.137 622.137,521.304 625.5,529.5C 639.183,520.38 653.516,519.213 668.5,526C 677.019,531.2 682.519,538.7 685,548.5C 685.761,578.845 685.428,609.179 684,639.5C 681.346,686.121 669.346,730.121 648,771.5C 642.392,780.772 636.392,789.772 630,798.5C 624.449,808.819 621.116,819.819 620,831.5C 619.238,844.495 618.572,857.495 618,870.5C 615.369,874.629 611.869,875.462 607.5,873C 606.418,871.67 605.751,870.17 605.5,868.5C 604.694,847.497 606.861,826.83 612,806.5C 614.06,801.38 616.393,796.38 619,791.5C 642.469,759.877 657.802,724.543 665,685.5C 667.789,670.278 669.789,654.944 671,639.5C 672.416,610.179 672.75,580.845 672,551.5C 668.048,538.27 659.215,532.77 645.5,535C 631.165,538.005 624.331,546.838 625,561.5C 621.352,566.331 617.352,566.665 613,562.5C 612.667,553.5 612.333,544.5 612,535.5C 610.632,526.803 606.132,520.303 598.5,516C 585.377,509.909 573.544,511.743 563,521.5C 561.561,523.275 560.561,525.275 560,527.5C 559.667,532.833 559.333,538.167 559,543.5C 554.648,547.665 550.648,547.331 547,542.5C 546.667,533.833 546.333,525.167 546,516.5C 539.48,501.823 528.314,495.99 512.5,499C 500.039,506.073 493.872,516.906 494,531.5C 490,535.5 486,535.5 482,531.5C 481.667,474.167 481.333,416.833 481,359.5C 477.512,340.158 466.012,332.325 446.5,336C 436.717,340.703 431.217,348.536 430,359.5C 429.995,455.248 429.329,550.914 428,646.5C 425.367,648.16 422.534,648.66 419.5,648C 405.545,635.009 395.045,619.509 388,601.5C 382.406,587.717 377.406,573.717 373,559.5C 368.951,548.46 361.784,540.293 351.5,535C 340.018,533.655 331.851,538.155 327,548.5C 326.833,550.667 326.667,552.833 326.5,555C 328.036,567.276 330.203,579.443 333,591.5C 337.713,610.065 342.047,628.732 346,647.5C 355.453,684.734 371.119,719.068 393,750.5C 401.913,762.658 410.579,774.992 419,787.5C 433.282,812.93 439.116,840.263 436.5,869.5C 435.157,874.078 432.157,875.578 427.5,874C 426.667,873.167 425.833,872.333 425,871.5C 423.795,858.906 422.795,846.239 422,833.5C 420.211,822.342 416.878,811.675 412,801.5C 399,782.167 386,762.833 373,743.5C 351.825,710.325 337.492,674.325 330,635.5C 325.315,613.426 320.315,591.426 315,569.5C 309.106,549.82 314.939,534.986 332.5,525C 352.593,518.286 368.093,524.119 379,542.5C 381,546.5 383,550.5 385,554.5C 391.04,575.286 399.04,595.286 409,614.5C 410.944,618.11 413.277,621.443 416,624.5C 416.5,553.167 416.667,481.834 416.5,410.5C 362.379,392.311 328.879,355.311 316,299.5C 306.172,233.257 329.005,181.757 384.5,145C 434.505,117.69 484.505,117.69 534.5,145C 579.874,173.727 603.874,215.06 606.5,269C 604.095,333.025 574.095,378.692 516.5,406C 509.982,408.673 503.315,410.84 496.5,412.5 Z"
       id="path10" />
  </g>
  <g
     id="g16">
    <path
       style="opacity:1"
       fill="#fbcd9b"
       d="M 605.5,868.5 C 577.404,867.837 549.238,867.504 521,867.5C 492.619,867.508 464.453,868.175 436.5,869.5C 439.116,840.263 433.282,812.93 419,787.5C 410.579,774.992 401.913,762.658 393,750.5C 371.119,719.068 355.453,684.734 346,647.5C 342.047,628.732 337.713,610.065 333,591.5C 330.203,579.443 328.036,567.276 326.5,555C 326.667,552.833 326.833,550.667 327,548.5C 331.851,538.155 340.018,533.655 351.5,535C 361.784,540.293 368.951,548.46 373,559.5C 377.406,573.717 382.406,587.717 388,601.5C 395.045,619.509 405.545,635.009 419.5,648C 422.534,648.66 425.367,648.16 428,646.5C 429.329,550.914 429.995,455.248 430,359.5C 431.217,348.536 436.717,340.703 446.5,336C 466.012,332.325 477.512,340.158 481,359.5C 481.333,416.833 481.667,474.167 482,531.5C 486,535.5 490,535.5 494,531.5C 493.872,516.906 500.039,506.073 512.5,499C 528.314,495.99 539.48,501.823 546,516.5C 546.333,525.167 546.667,533.833 547,542.5C 550.648,547.331 554.648,547.665 559,543.5C 559.333,538.167 559.667,532.833 560,527.5C 560.561,525.275 561.561,523.275 563,521.5C 573.544,511.743 585.377,509.909 598.5,516C 606.132,520.303 610.632,526.803 612,535.5C 612.333,544.5 612.667,553.5 613,562.5C 617.352,566.665 621.352,566.331 625,561.5C 624.331,546.838 631.165,538.005 645.5,535C 659.215,532.77 668.048,538.27 672,551.5C 672.75,580.845 672.416,610.179 671,639.5C 669.789,654.944 667.789,670.278 665,685.5C 657.802,724.543 642.469,759.877 619,791.5C 616.393,796.38 614.06,801.38 612,806.5C 606.861,826.83 604.694,847.497 605.5,868.5 Z"
       id="path14" />
  </g>
  <g
     id="g20">
    <path
       style="opacity:1"
       fill="#e3e3e3"
       d="M 444.5,137.5 C 498.363,134.686 540.863,155.019 572,198.5C 600.322,245.958 600.655,293.624 573,341.5C 554.348,370.918 528.182,390.252 494.5,399.5C 494.17,392.468 494.503,385.468 495.5,378.5C 538.147,362.678 563.647,332.345 572,287.5C 577.132,239.608 559.965,202.108 520.5,175C 482.851,153.371 444.518,152.038 405.5,171C 360.738,198.361 341.571,238.194 348,290.5C 356.235,330.228 378.735,358.561 415.5,375.5C 416.497,382.468 416.83,389.468 416.5,396.5C 379.711,383.551 353.211,359.218 337,323.5C 315.179,263.287 327.679,211.454 374.5,168C 395.134,151.514 418.467,141.347 444.5,137.5 Z"
       id="path18" />
  </g>
</svg>
