<svg width="600" height="520" viewBox="0 0 600 520" fill="none" xmlns="http://www.w3.org/2000/svg">
<g clip-path="url(#clip0_630_1532)">
<path fill-rule="evenodd" clip-rule="evenodd" d="M42.3683 40C43.0823 39.7395 43.8075 39.4718 44.5448 39.1967C45.2693 38.9263 47.7411 38 48.0798 37.8734C67.2795 30.6951 79.2939 28 100 28C120.542 28 130.724 30.4435 149.257 37.857C151.169 38.6215 152.996 39.3351 154.758 40H167.208C162.186 38.5389 156.93 36.6179 150.743 34.143C131.776 26.5565 121.124 24 100 24C78.7483 24 66.2896 26.7948 46.679 34.1266C46.3377 34.2542 43.8677 35.1799 43.1465 35.449C38.1969 37.2957 33.8254 38.7989 29.6988 40H42.3683ZM42.3683 0C26.515 5.7839 16.1535 8 0 8L0 4C11.4878 4 19.9028 2.85128 29.6988 0L42.3683 0ZM154.758 0C170.477 5.93287 181.005 8 200 8V4C186.315 4 177.229 2.91562 167.208 0L154.758 0ZM0 28C16.881 28 27.4367 25.5798 44.5448 19.1967C45.2693 18.9263 47.7411 18 48.0798 17.8734C67.2795 10.6951 79.2939 8 100 8C120.542 8 130.724 10.4435 149.257 17.857C168.224 25.4435 178.876 28 200 28V24C179.458 24 169.276 21.5565 150.743 14.143C131.776 6.55646 121.124 4 100 4C78.7483 4 66.2896 6.79477 46.679 14.1266C46.3377 14.2542 43.8677 15.1799 43.1465 15.449C26.447 21.6797 16.327 24 0 24L0 28Z" fill="black"/>
<path fill-rule="evenodd" clip-rule="evenodd" d="M242.368 40C243.082 39.7395 243.807 39.4718 244.545 39.1967C245.269 38.9263 247.741 38 248.08 37.8734C267.279 30.6951 279.294 28 300 28C320.542 28 330.724 30.4435 349.257 37.857C351.169 38.6215 352.996 39.3351 354.758 40H367.208C362.186 38.5389 356.93 36.6179 350.743 34.143C331.776 26.5565 321.124 24 300 24C278.748 24 266.29 26.7948 246.679 34.1266C246.338 34.2542 243.868 35.1799 243.147 35.449C238.197 37.2957 233.825 38.7989 229.699 40H242.368ZM242.368 0C226.515 5.7839 216.153 8 200 8L200 4C211.488 4 219.903 2.85128 229.699 0L242.368 0ZM354.758 0C370.477 5.93287 381.005 8 400 8V4C386.315 4 377.229 2.91562 367.208 0L354.758 0ZM200 28C216.881 28 227.437 25.5798 244.545 19.1967C245.269 18.9263 247.741 18 248.08 17.8734C267.279 10.6951 279.294 8 300 8C320.542 8 330.724 10.4435 349.257 17.857C368.224 25.4435 378.876 28 400 28V24C379.458 24 369.276 21.5565 350.743 14.143C331.776 6.55646 321.124 4 300 4C278.748 4 266.29 6.79477 246.679 14.1266C246.338 14.2542 243.868 15.1799 243.147 15.449C226.447 21.6797 216.327 24 200 24L200 28Z" fill="black"/>
<path fill-rule="evenodd" clip-rule="evenodd" d="M442.368 40C443.082 39.7395 443.807 39.4718 444.545 39.1967C445.269 38.9263 447.741 38 448.08 37.8734C467.279 30.6951 479.294 28 500 28C520.542 28 530.724 30.4435 549.257 37.857C551.169 38.6215 552.996 39.3351 554.758 40H567.208C562.186 38.5389 556.93 36.6179 550.743 34.143C531.776 26.5565 521.124 24 500 24C478.748 24 466.29 26.7948 446.679 34.1266C446.338 34.2542 443.868 35.1799 443.147 35.449C438.197 37.2957 433.825 38.7989 429.699 40H442.368ZM442.368 0C426.515 5.7839 416.153 8 400 8L400 4C411.488 4 419.903 2.85128 429.699 0L442.368 0ZM554.758 0C570.477 5.93287 581.005 8 600 8V4C586.315 4 577.229 2.91562 567.208 0L554.758 0ZM400 28C416.881 28 427.437 25.5798 444.545 19.1967C445.269 18.9263 447.741 18 448.08 17.8734C467.279 10.6951 479.294 8 500 8C520.542 8 530.724 10.4435 549.257 17.857C568.224 25.4435 578.876 28 600 28V24C579.458 24 569.276 21.5565 550.743 14.143C531.776 6.55646 521.124 4 500 4C478.748 4 466.29 6.79477 446.679 14.1266C446.338 14.2542 443.868 15.1799 443.147 15.449C426.447 21.6797 416.327 24 400 24L400 28Z" fill="black"/>
<path fill-rule="evenodd" clip-rule="evenodd" d="M42.3683 80C43.0823 79.7395 43.8075 79.4718 44.5448 79.1967C45.2693 78.9263 47.7411 78 48.0798 77.8734C67.2795 70.6951 79.2939 68 100 68C120.542 68 130.724 70.4435 149.257 77.857C151.169 78.6215 152.996 79.3351 154.758 80H167.208C162.186 78.5389 156.93 76.6179 150.743 74.143C131.776 66.5565 121.124 64 100 64C78.7483 64 66.2896 66.7948 46.679 74.1266C46.3377 74.2542 43.8677 75.1799 43.1465 75.449C38.1969 77.2957 33.8254 78.7989 29.6988 80H42.3683ZM42.3683 40C26.515 45.7839 16.1535 48 0 48L0 44C11.4878 44 19.9028 42.8513 29.6988 40H42.3683ZM154.758 40C170.477 45.9329 181.005 48 200 48V44C186.315 44 177.229 42.9156 167.208 40L154.758 40ZM0 68C16.881 68 27.4367 65.5798 44.5448 59.1967C45.2693 58.9263 47.7411 58 48.0798 57.8734C67.2795 50.6951 79.2939 48 100 48C120.542 48 130.724 50.4435 149.257 57.857C168.224 65.4435 178.876 68 200 68V64C179.458 64 169.276 61.5565 150.743 54.143C131.776 46.5565 121.124 44 100 44C78.7483 44 66.2896 46.7948 46.679 54.1266C46.3377 54.2542 43.8677 55.1799 43.1465 55.449C26.447 61.6797 16.327 64 0 64L0 68Z" fill="black"/>
<path fill-rule="evenodd" clip-rule="evenodd" d="M242.368 80C243.082 79.7395 243.807 79.4718 244.545 79.1967C245.269 78.9263 247.741 78 248.08 77.8734C267.279 70.6951 279.294 68 300 68C320.542 68 330.724 70.4435 349.257 77.857C351.169 78.6215 352.996 79.3351 354.758 80H367.208C362.186 78.5389 356.93 76.6179 350.743 74.143C331.776 66.5565 321.124 64 300 64C278.748 64 266.29 66.7948 246.679 74.1266C246.338 74.2542 243.868 75.1799 243.147 75.449C238.197 77.2957 233.825 78.7989 229.699 80H242.368ZM242.368 40C226.515 45.7839 216.153 48 200 48L200 44C211.488 44 219.903 42.8513 229.699 40H242.368ZM354.758 40C370.477 45.9329 381.005 48 400 48V44C386.315 44 377.229 42.9156 367.208 40L354.758 40ZM200 68C216.881 68 227.437 65.5798 244.545 59.1967C245.269 58.9263 247.741 58 248.08 57.8734C267.279 50.6951 279.294 48 300 48C320.542 48 330.724 50.4435 349.257 57.857C368.224 65.4435 378.876 68 400 68V64C379.458 64 369.276 61.5565 350.743 54.143C331.776 46.5565 321.124 44 300 44C278.748 44 266.29 46.7948 246.679 54.1266C246.338 54.2542 243.868 55.1799 243.147 55.449C226.447 61.6797 216.327 64 200 64L200 68Z" fill="black"/>
<path fill-rule="evenodd" clip-rule="evenodd" d="M442.368 80C443.082 79.7395 443.807 79.4718 444.545 79.1967C445.269 78.9263 447.741 78 448.08 77.8734C467.279 70.6951 479.294 68 500 68C520.542 68 530.724 70.4435 549.257 77.857C551.169 78.6215 552.996 79.3351 554.758 80H567.208C562.186 78.5389 556.93 76.6179 550.743 74.143C531.776 66.5565 521.124 64 500 64C478.748 64 466.29 66.7948 446.679 74.1266C446.338 74.2542 443.868 75.1799 443.147 75.449C438.197 77.2957 433.825 78.7989 429.699 80H442.368ZM442.368 40C426.515 45.7839 416.153 48 400 48L400 44C411.488 44 419.903 42.8513 429.699 40H442.368ZM554.758 40C570.477 45.9329 581.005 48 600 48V44C586.315 44 577.229 42.9156 567.208 40L554.758 40ZM400 68C416.881 68 427.437 65.5798 444.545 59.1967C445.269 58.9263 447.741 58 448.08 57.8734C467.279 50.6951 479.294 48 500 48C520.542 48 530.724 50.4435 549.257 57.857C568.224 65.4435 578.876 68 600 68V64C579.458 64 569.276 61.5565 550.743 54.143C531.776 46.5565 521.124 44 500 44C478.748 44 466.29 46.7948 446.679 54.1266C446.338 54.2542 443.868 55.1799 443.147 55.449C426.447 61.6797 416.327 64 400 64L400 68Z" fill="black"/>
<path fill-rule="evenodd" clip-rule="evenodd" d="M42.3683 120C43.0823 119.739 43.8075 119.472 44.5448 119.197C45.2693 118.926 47.7411 118 48.0798 117.873C67.2795 110.695 79.2939 108 100 108C120.542 108 130.724 110.444 149.257 117.857C151.169 118.622 152.996 119.335 154.758 120H167.208C162.186 118.539 156.93 116.618 150.743 114.143C131.776 106.556 121.124 104 100 104C78.7483 104 66.2896 106.795 46.679 114.127C46.3377 114.254 43.8677 115.18 43.1465 115.449C38.1969 117.296 33.8254 118.799 29.6988 120H42.3683ZM42.3683 80C26.515 85.7839 16.1535 88 0 88L0 84C11.4878 84 19.9028 82.8513 29.6988 80H42.3683ZM154.758 80C170.477 85.9329 181.005 88 200 88V84C186.315 84 177.229 82.9156 167.208 80L154.758 80ZM0 108C16.881 108 27.4367 105.58 44.5448 99.1967C45.2693 98.9263 47.7411 98 48.0798 97.8734C67.2795 90.6951 79.2939 88 100 88C120.542 88 130.724 90.4435 149.257 97.857C168.224 105.444 178.876 108 200 108V104C179.458 104 169.276 101.556 150.743 94.143C131.776 86.5565 121.124 84 100 84C78.7483 84 66.2896 86.7948 46.679 94.1266C46.3377 94.2542 43.8677 95.1799 43.1465 95.449C26.447 101.68 16.327 104 0 104L0 108Z" fill="black"/>
<path fill-rule="evenodd" clip-rule="evenodd" d="M242.368 120C243.082 119.739 243.807 119.472 244.545 119.197C245.269 118.926 247.741 118 248.08 117.873C267.279 110.695 279.294 108 300 108C320.542 108 330.724 110.444 349.257 117.857C351.169 118.622 352.996 119.335 354.758 120H367.208C362.186 118.539 356.93 116.618 350.743 114.143C331.776 106.556 321.124 104 300 104C278.748 104 266.29 106.795 246.679 114.127C246.338 114.254 243.868 115.18 243.147 115.449C238.197 117.296 233.825 118.799 229.699 120H242.368ZM242.368 80C226.515 85.7839 216.153 88 200 88L200 84C211.488 84 219.903 82.8513 229.699 80H242.368ZM354.758 80C370.477 85.9329 381.005 88 400 88V84C386.315 84 377.229 82.9156 367.208 80L354.758 80ZM200 108C216.881 108 227.437 105.58 244.545 99.1967C245.269 98.9263 247.741 98 248.08 97.8734C267.279 90.6951 279.294 88 300 88C320.542 88 330.724 90.4435 349.257 97.857C368.224 105.444 378.876 108 400 108V104C379.458 104 369.276 101.556 350.743 94.143C331.776 86.5565 321.124 84 300 84C278.748 84 266.29 86.7948 246.679 94.1266C246.338 94.2542 243.868 95.1799 243.147 95.449C226.447 101.68 216.327 104 200 104L200 108Z" fill="black"/>
<path fill-rule="evenodd" clip-rule="evenodd" d="M442.368 120C443.082 119.739 443.807 119.472 444.545 119.197C445.269 118.926 447.741 118 448.08 117.873C467.279 110.695 479.294 108 500 108C520.542 108 530.724 110.444 549.257 117.857C551.169 118.622 552.996 119.335 554.758 120H567.208C562.186 118.539 556.93 116.618 550.743 114.143C531.776 106.556 521.124 104 500 104C478.748 104 466.29 106.795 446.679 114.127C446.338 114.254 443.868 115.18 443.147 115.449C438.197 117.296 433.825 118.799 429.699 120H442.368ZM442.368 80C426.515 85.7839 416.153 88 400 88L400 84C411.488 84 419.903 82.8513 429.699 80H442.368ZM554.758 80C570.477 85.9329 581.005 88 600 88V84C586.315 84 577.229 82.9156 567.208 80L554.758 80ZM400 108C416.881 108 427.437 105.58 444.545 99.1967C445.269 98.9263 447.741 98 448.08 97.8734C467.279 90.6951 479.294 88 500 88C520.542 88 530.724 90.4435 549.257 97.857C568.224 105.444 578.876 108 600 108V104C579.458 104 569.276 101.556 550.743 94.143C531.776 86.5565 521.124 84 500 84C478.748 84 466.29 86.7948 446.679 94.1266C446.338 94.2542 443.868 95.1799 443.147 95.449C426.447 101.68 416.327 104 400 104L400 108Z" fill="black"/>
<path fill-rule="evenodd" clip-rule="evenodd" d="M42.3683 160C43.0823 159.739 43.8075 159.472 44.5448 159.197C45.2693 158.926 47.7411 158 48.0798 157.873C67.2795 150.695 79.2939 148 100 148C120.542 148 130.724 150.444 149.257 157.857C151.169 158.622 152.996 159.335 154.758 160H167.208C162.186 158.539 156.93 156.618 150.743 154.143C131.776 146.556 121.124 144 100 144C78.7483 144 66.2896 146.795 46.679 154.127C46.3377 154.254 43.8677 155.18 43.1465 155.449C38.1969 157.296 33.8254 158.799 29.6988 160H42.3683ZM42.3683 120C26.515 125.784 16.1535 128 0 128L0 124C11.4878 124 19.9028 122.851 29.6988 120H42.3683ZM154.758 120C170.477 125.933 181.005 128 200 128V124C186.315 124 177.229 122.916 167.208 120L154.758 120ZM0 148C16.881 148 27.4367 145.58 44.5448 139.197C45.2693 138.926 47.7411 138 48.0798 137.873C67.2795 130.695 79.2939 128 100 128C120.542 128 130.724 130.444 149.257 137.857C168.224 145.444 178.876 148 200 148V144C179.458 144 169.276 141.556 150.743 134.143C131.776 126.556 121.124 124 100 124C78.7483 124 66.2896 126.795 46.679 134.127C46.3377 134.254 43.8677 135.18 43.1465 135.449C26.447 141.68 16.327 144 0 144L0 148Z" fill="black"/>
<path fill-rule="evenodd" clip-rule="evenodd" d="M242.368 160C243.082 159.739 243.807 159.472 244.545 159.197C245.269 158.926 247.741 158 248.08 157.873C267.279 150.695 279.294 148 300 148C320.542 148 330.724 150.444 349.257 157.857C351.169 158.622 352.996 159.335 354.758 160H367.208C362.186 158.539 356.93 156.618 350.743 154.143C331.776 146.556 321.124 144 300 144C278.748 144 266.29 146.795 246.679 154.127C246.338 154.254 243.868 155.18 243.147 155.449C238.197 157.296 233.825 158.799 229.699 160H242.368ZM242.368 120C226.515 125.784 216.153 128 200 128L200 124C211.488 124 219.903 122.851 229.699 120H242.368ZM354.758 120C370.477 125.933 381.005 128 400 128V124C386.315 124 377.229 122.916 367.208 120L354.758 120ZM200 148C216.881 148 227.437 145.58 244.545 139.197C245.269 138.926 247.741 138 248.08 137.873C267.279 130.695 279.294 128 300 128C320.542 128 330.724 130.444 349.257 137.857C368.224 145.444 378.876 148 400 148V144C379.458 144 369.276 141.556 350.743 134.143C331.776 126.556 321.124 124 300 124C278.748 124 266.29 126.795 246.679 134.127C246.338 134.254 243.868 135.18 243.147 135.449C226.447 141.68 216.327 144 200 144L200 148Z" fill="black"/>
<path fill-rule="evenodd" clip-rule="evenodd" d="M442.368 160C443.082 159.739 443.807 159.472 444.545 159.197C445.269 158.926 447.741 158 448.08 157.873C467.279 150.695 479.294 148 500 148C520.542 148 530.724 150.444 549.257 157.857C551.169 158.622 552.996 159.335 554.758 160H567.208C562.186 158.539 556.93 156.618 550.743 154.143C531.776 146.556 521.124 144 500 144C478.748 144 466.29 146.795 446.679 154.127C446.338 154.254 443.868 155.18 443.147 155.449C438.197 157.296 433.825 158.799 429.699 160H442.368ZM442.368 120C426.515 125.784 416.153 128 400 128L400 124C411.488 124 419.903 122.851 429.699 120H442.368ZM554.758 120C570.477 125.933 581.005 128 600 128V124C586.315 124 577.229 122.916 567.208 120L554.758 120ZM400 148C416.881 148 427.437 145.58 444.545 139.197C445.269 138.926 447.741 138 448.08 137.873C467.279 130.695 479.294 128 500 128C520.542 128 530.724 130.444 549.257 137.857C568.224 145.444 578.876 148 600 148V144C579.458 144 569.276 141.556 550.743 134.143C531.776 126.556 521.124 124 500 124C478.748 124 466.29 126.795 446.679 134.127C446.338 134.254 443.868 135.18 443.147 135.449C426.447 141.68 416.327 144 400 144L400 148Z" fill="black"/>
<path fill-rule="evenodd" clip-rule="evenodd" d="M42.3683 200C43.0823 199.739 43.8075 199.472 44.5448 199.197C45.2693 198.926 47.7411 198 48.0798 197.873C67.2795 190.695 79.2939 188 100 188C120.542 188 130.724 190.444 149.257 197.857C151.169 198.622 152.996 199.335 154.758 200H167.208C162.186 198.539 156.93 196.618 150.743 194.143C131.776 186.556 121.124 184 100 184C78.7483 184 66.2896 186.795 46.679 194.127C46.3377 194.254 43.8677 195.18 43.1465 195.449C38.1969 197.296 33.8254 198.799 29.6988 200H42.3683ZM42.3683 160C26.515 165.784 16.1535 168 0 168L0 164C11.4878 164 19.9028 162.851 29.6988 160H42.3683ZM154.758 160C170.477 165.933 181.005 168 200 168V164C186.315 164 177.229 162.916 167.208 160L154.758 160ZM0 188C16.881 188 27.4367 185.58 44.5448 179.197C45.2693 178.926 47.7411 178 48.0798 177.873C67.2795 170.695 79.2939 168 100 168C120.542 168 130.724 170.444 149.257 177.857C168.224 185.444 178.876 188 200 188V184C179.458 184 169.276 181.556 150.743 174.143C131.776 166.556 121.124 164 100 164C78.7483 164 66.2896 166.795 46.679 174.127C46.3377 174.254 43.8677 175.18 43.1465 175.449C26.447 181.68 16.327 184 0 184L0 188Z" fill="black"/>
<path fill-rule="evenodd" clip-rule="evenodd" d="M242.368 200C243.082 199.739 243.807 199.472 244.545 199.197C245.269 198.926 247.741 198 248.08 197.873C267.279 190.695 279.294 188 300 188C320.542 188 330.724 190.444 349.257 197.857C351.169 198.622 352.996 199.335 354.758 200H367.208C362.186 198.539 356.93 196.618 350.743 194.143C331.776 186.556 321.124 184 300 184C278.748 184 266.29 186.795 246.679 194.127C246.338 194.254 243.868 195.18 243.147 195.449C238.197 197.296 233.825 198.799 229.699 200H242.368ZM242.368 160C226.515 165.784 216.153 168 200 168L200 164C211.488 164 219.903 162.851 229.699 160H242.368ZM354.758 160C370.477 165.933 381.005 168 400 168V164C386.315 164 377.229 162.916 367.208 160L354.758 160ZM200 188C216.881 188 227.437 185.58 244.545 179.197C245.269 178.926 247.741 178 248.08 177.873C267.279 170.695 279.294 168 300 168C320.542 168 330.724 170.444 349.257 177.857C368.224 185.444 378.876 188 400 188V184C379.458 184 369.276 181.556 350.743 174.143C331.776 166.556 321.124 164 300 164C278.748 164 266.29 166.795 246.679 174.127C246.338 174.254 243.868 175.18 243.147 175.449C226.447 181.68 216.327 184 200 184L200 188Z" fill="black"/>
<path fill-rule="evenodd" clip-rule="evenodd" d="M442.368 200C443.082 199.739 443.807 199.472 444.545 199.197C445.269 198.926 447.741 198 448.08 197.873C467.279 190.695 479.294 188 500 188C520.542 188 530.724 190.444 549.257 197.857C551.169 198.622 552.996 199.335 554.758 200H567.208C562.186 198.539 556.93 196.618 550.743 194.143C531.776 186.556 521.124 184 500 184C478.748 184 466.29 186.795 446.679 194.127C446.338 194.254 443.868 195.18 443.147 195.449C438.197 197.296 433.825 198.799 429.699 200H442.368ZM442.368 160C426.515 165.784 416.153 168 400 168L400 164C411.488 164 419.903 162.851 429.699 160H442.368ZM554.758 160C570.477 165.933 581.005 168 600 168V164C586.315 164 577.229 162.916 567.208 160L554.758 160ZM400 188C416.881 188 427.437 185.58 444.545 179.197C445.269 178.926 447.741 178 448.08 177.873C467.279 170.695 479.294 168 500 168C520.542 168 530.724 170.444 549.257 177.857C568.224 185.444 578.876 188 600 188V184C579.458 184 569.276 181.556 550.743 174.143C531.776 166.556 521.124 164 500 164C478.748 164 466.29 166.795 446.679 174.127C446.338 174.254 443.868 175.18 443.147 175.449C426.447 181.68 416.327 184 400 184L400 188Z" fill="black"/>
<path fill-rule="evenodd" clip-rule="evenodd" d="M42.3683 240C43.0823 239.739 43.8075 239.472 44.5448 239.197C45.2693 238.926 47.7411 238 48.0798 237.873C67.2795 230.695 79.2939 228 100 228C120.542 228 130.724 230.444 149.257 237.857C151.169 238.622 152.996 239.335 154.758 240H167.208C162.186 238.539 156.93 236.618 150.743 234.143C131.776 226.556 121.124 224 100 224C78.7483 224 66.2896 226.795 46.679 234.127C46.3377 234.254 43.8677 235.18 43.1465 235.449C38.1969 237.296 33.8254 238.799 29.6988 240H42.3683ZM42.3683 200C26.515 205.784 16.1535 208 0 208L0 204C11.4878 204 19.9028 202.851 29.6988 200H42.3683ZM154.758 200C170.477 205.933 181.005 208 200 208V204C186.315 204 177.229 202.916 167.208 200L154.758 200ZM0 228C16.881 228 27.4367 225.58 44.5448 219.197C45.2693 218.926 47.7411 218 48.0798 217.873C67.2795 210.695 79.2939 208 100 208C120.542 208 130.724 210.444 149.257 217.857C168.224 225.444 178.876 228 200 228V224C179.458 224 169.276 221.556 150.743 214.143C131.776 206.556 121.124 204 100 204C78.7483 204 66.2896 206.795 46.679 214.127C46.3377 214.254 43.8677 215.18 43.1465 215.449C26.447 221.68 16.327 224 0 224L0 228Z" fill="black"/>
<path fill-rule="evenodd" clip-rule="evenodd" d="M242.368 240C243.082 239.739 243.807 239.472 244.545 239.197C245.269 238.926 247.741 238 248.08 237.873C267.279 230.695 279.294 228 300 228C320.542 228 330.724 230.444 349.257 237.857C351.169 238.622 352.996 239.335 354.758 240H367.208C362.186 238.539 356.93 236.618 350.743 234.143C331.776 226.556 321.124 224 300 224C278.748 224 266.29 226.795 246.679 234.127C246.338 234.254 243.868 235.18 243.147 235.449C238.197 237.296 233.825 238.799 229.699 240H242.368ZM242.368 200C226.515 205.784 216.153 208 200 208L200 204C211.488 204 219.903 202.851 229.699 200H242.368ZM354.758 200C370.477 205.933 381.005 208 400 208V204C386.315 204 377.229 202.916 367.208 200L354.758 200ZM200 228C216.881 228 227.437 225.58 244.545 219.197C245.269 218.926 247.741 218 248.08 217.873C267.279 210.695 279.294 208 300 208C320.542 208 330.724 210.444 349.257 217.857C368.224 225.444 378.876 228 400 228V224C379.458 224 369.276 221.556 350.743 214.143C331.776 206.556 321.124 204 300 204C278.748 204 266.29 206.795 246.679 214.127C246.338 214.254 243.868 215.18 243.147 215.449C226.447 221.68 216.327 224 200 224L200 228Z" fill="black"/>
<path fill-rule="evenodd" clip-rule="evenodd" d="M442.368 240C443.082 239.739 443.807 239.472 444.545 239.197C445.269 238.926 447.741 238 448.08 237.873C467.279 230.695 479.294 228 500 228C520.542 228 530.724 230.444 549.257 237.857C551.169 238.622 552.996 239.335 554.758 240H567.208C562.186 238.539 556.93 236.618 550.743 234.143C531.776 226.556 521.124 224 500 224C478.748 224 466.29 226.795 446.679 234.127C446.338 234.254 443.868 235.18 443.147 235.449C438.197 237.296 433.825 238.799 429.699 240H442.368ZM442.368 200C426.515 205.784 416.153 208 400 208L400 204C411.488 204 419.903 202.851 429.699 200H442.368ZM554.758 200C570.477 205.933 581.005 208 600 208V204C586.315 204 577.229 202.916 567.208 200L554.758 200ZM400 228C416.881 228 427.437 225.58 444.545 219.197C445.269 218.926 447.741 218 448.08 217.873C467.279 210.695 479.294 208 500 208C520.542 208 530.724 210.444 549.257 217.857C568.224 225.444 578.876 228 600 228V224C579.458 224 569.276 221.556 550.743 214.143C531.776 206.556 521.124 204 500 204C478.748 204 466.29 206.795 446.679 214.127C446.338 214.254 443.868 215.18 443.147 215.449C426.447 221.68 416.327 224 400 224L400 228Z" fill="black"/>
<path fill-rule="evenodd" clip-rule="evenodd" d="M42.3683 280C43.0823 279.739 43.8075 279.472 44.5448 279.197C45.2693 278.926 47.7411 278 48.0798 277.873C67.2795 270.695 79.2939 268 100 268C120.542 268 130.724 270.444 149.257 277.857C151.169 278.622 152.996 279.335 154.758 280H167.208C162.186 278.539 156.93 276.618 150.743 274.143C131.776 266.556 121.124 264 100 264C78.7483 264 66.2896 266.795 46.679 274.127C46.3377 274.254 43.8677 275.18 43.1465 275.449C38.1969 277.296 33.8254 278.799 29.6988 280H42.3683ZM42.3683 240C26.515 245.784 16.1535 248 0 248L0 244C11.4878 244 19.9028 242.851 29.6988 240H42.3683ZM154.758 240C170.477 245.933 181.005 248 200 248V244C186.315 244 177.229 242.916 167.208 240L154.758 240ZM0 268C16.881 268 27.4367 265.58 44.5448 259.197C45.2693 258.926 47.7411 258 48.0798 257.873C67.2795 250.695 79.2939 248 100 248C120.542 248 130.724 250.444 149.257 257.857C168.224 265.444 178.876 268 200 268V264C179.458 264 169.276 261.556 150.743 254.143C131.776 246.556 121.124 244 100 244C78.7483 244 66.2896 246.795 46.679 254.127C46.3377 254.254 43.8677 255.18 43.1465 255.449C26.447 261.68 16.327 264 0 264L0 268Z" fill="black"/>
<path fill-rule="evenodd" clip-rule="evenodd" d="M242.368 280C243.082 279.739 243.807 279.472 244.545 279.197C245.269 278.926 247.741 278 248.08 277.873C267.279 270.695 279.294 268 300 268C320.542 268 330.724 270.444 349.257 277.857C351.169 278.622 352.996 279.335 354.758 280H367.208C362.186 278.539 356.93 276.618 350.743 274.143C331.776 266.556 321.124 264 300 264C278.748 264 266.29 266.795 246.679 274.127C246.338 274.254 243.868 275.18 243.147 275.449C238.197 277.296 233.825 278.799 229.699 280H242.368ZM242.368 240C226.515 245.784 216.153 248 200 248L200 244C211.488 244 219.903 242.851 229.699 240H242.368ZM354.758 240C370.477 245.933 381.005 248 400 248V244C386.315 244 377.229 242.916 367.208 240L354.758 240ZM200 268C216.881 268 227.437 265.58 244.545 259.197C245.269 258.926 247.741 258 248.08 257.873C267.279 250.695 279.294 248 300 248C320.542 248 330.724 250.444 349.257 257.857C368.224 265.444 378.876 268 400 268V264C379.458 264 369.276 261.556 350.743 254.143C331.776 246.556 321.124 244 300 244C278.748 244 266.29 246.795 246.679 254.127C246.338 254.254 243.868 255.18 243.147 255.449C226.447 261.68 216.327 264 200 264L200 268Z" fill="black"/>
<path fill-rule="evenodd" clip-rule="evenodd" d="M442.368 280C443.082 279.739 443.807 279.472 444.545 279.197C445.269 278.926 447.741 278 448.08 277.873C467.279 270.695 479.294 268 500 268C520.542 268 530.724 270.444 549.257 277.857C551.169 278.622 552.996 279.335 554.758 280H567.208C562.186 278.539 556.93 276.618 550.743 274.143C531.776 266.556 521.124 264 500 264C478.748 264 466.29 266.795 446.679 274.127C446.338 274.254 443.868 275.18 443.147 275.449C438.197 277.296 433.825 278.799 429.699 280H442.368ZM442.368 240C426.515 245.784 416.153 248 400 248L400 244C411.488 244 419.903 242.851 429.699 240H442.368ZM554.758 240C570.477 245.933 581.005 248 600 248V244C586.315 244 577.229 242.916 567.208 240L554.758 240ZM400 268C416.881 268 427.437 265.58 444.545 259.197C445.269 258.926 447.741 258 448.08 257.873C467.279 250.695 479.294 248 500 248C520.542 248 530.724 250.444 549.257 257.857C568.224 265.444 578.876 268 600 268V264C579.458 264 569.276 261.556 550.743 254.143C531.776 246.556 521.124 244 500 244C478.748 244 466.29 246.795 446.679 254.127C446.338 254.254 443.868 255.18 443.147 255.449C426.447 261.68 416.327 264 400 264L400 268Z" fill="black"/>
<path fill-rule="evenodd" clip-rule="evenodd" d="M42.3683 320C43.0823 319.739 43.8075 319.472 44.5448 319.197C45.2693 318.926 47.7411 318 48.0798 317.873C67.2795 310.695 79.2939 308 100 308C120.542 308 130.724 310.444 149.257 317.857C151.169 318.622 152.996 319.335 154.758 320H167.208C162.186 318.539 156.93 316.618 150.743 314.143C131.776 306.556 121.124 304 100 304C78.7483 304 66.2896 306.795 46.679 314.127C46.3377 314.254 43.8677 315.18 43.1465 315.449C38.1969 317.296 33.8254 318.799 29.6988 320H42.3683ZM42.3683 280C26.515 285.784 16.1535 288 0 288L0 284C11.4878 284 19.9028 282.851 29.6988 280H42.3683ZM154.758 280C170.477 285.933 181.005 288 200 288V284C186.315 284 177.229 282.916 167.208 280L154.758 280ZM0 308C16.881 308 27.4367 305.58 44.5448 299.197C45.2693 298.926 47.7411 298 48.0798 297.873C67.2795 290.695 79.2939 288 100 288C120.542 288 130.724 290.444 149.257 297.857C168.224 305.444 178.876 308 200 308V304C179.458 304 169.276 301.556 150.743 294.143C131.776 286.556 121.124 284 100 284C78.7483 284 66.2896 286.795 46.679 294.127C46.3377 294.254 43.8677 295.18 43.1465 295.449C26.447 301.68 16.327 304 0 304L0 308Z" fill="black"/>
<path fill-rule="evenodd" clip-rule="evenodd" d="M242.368 320C243.082 319.739 243.807 319.472 244.545 319.197C245.269 318.926 247.741 318 248.08 317.873C267.279 310.695 279.294 308 300 308C320.542 308 330.724 310.444 349.257 317.857C351.169 318.622 352.996 319.335 354.758 320H367.208C362.186 318.539 356.93 316.618 350.743 314.143C331.776 306.556 321.124 304 300 304C278.748 304 266.29 306.795 246.679 314.127C246.338 314.254 243.868 315.18 243.147 315.449C238.197 317.296 233.825 318.799 229.699 320H242.368ZM242.368 280C226.515 285.784 216.153 288 200 288L200 284C211.488 284 219.903 282.851 229.699 280H242.368ZM354.758 280C370.477 285.933 381.005 288 400 288V284C386.315 284 377.229 282.916 367.208 280L354.758 280ZM200 308C216.881 308 227.437 305.58 244.545 299.197C245.269 298.926 247.741 298 248.08 297.873C267.279 290.695 279.294 288 300 288C320.542 288 330.724 290.444 349.257 297.857C368.224 305.444 378.876 308 400 308V304C379.458 304 369.276 301.556 350.743 294.143C331.776 286.556 321.124 284 300 284C278.748 284 266.29 286.795 246.679 294.127C246.338 294.254 243.868 295.18 243.147 295.449C226.447 301.68 216.327 304 200 304L200 308Z" fill="black"/>
<path fill-rule="evenodd" clip-rule="evenodd" d="M442.368 320C443.082 319.739 443.807 319.472 444.545 319.197C445.269 318.926 447.741 318 448.08 317.873C467.279 310.695 479.294 308 500 308C520.542 308 530.724 310.444 549.257 317.857C551.169 318.622 552.996 319.335 554.758 320H567.208C562.186 318.539 556.93 316.618 550.743 314.143C531.776 306.556 521.124 304 500 304C478.748 304 466.29 306.795 446.679 314.127C446.338 314.254 443.868 315.18 443.147 315.449C438.197 317.296 433.825 318.799 429.699 320H442.368ZM442.368 280C426.515 285.784 416.153 288 400 288L400 284C411.488 284 419.903 282.851 429.699 280H442.368ZM554.758 280C570.477 285.933 581.005 288 600 288V284C586.315 284 577.229 282.916 567.208 280L554.758 280ZM400 308C416.881 308 427.437 305.58 444.545 299.197C445.269 298.926 447.741 298 448.08 297.873C467.279 290.695 479.294 288 500 288C520.542 288 530.724 290.444 549.257 297.857C568.224 305.444 578.876 308 600 308V304C579.458 304 569.276 301.556 550.743 294.143C531.776 286.556 521.124 284 500 284C478.748 284 466.29 286.795 446.679 294.127C446.338 294.254 443.868 295.18 443.147 295.449C426.447 301.68 416.327 304 400 304L400 308Z" fill="black"/>
<path fill-rule="evenodd" clip-rule="evenodd" d="M42.3683 360C43.0823 359.739 43.8075 359.472 44.5448 359.197C45.2693 358.926 47.7411 358 48.0798 357.873C67.2795 350.695 79.2939 348 100 348C120.542 348 130.724 350.444 149.257 357.857C151.169 358.622 152.996 359.335 154.758 360H167.208C162.186 358.539 156.93 356.618 150.743 354.143C131.776 346.556 121.124 344 100 344C78.7483 344 66.2896 346.795 46.679 354.127C46.3377 354.254 43.8677 355.18 43.1465 355.449C38.1969 357.296 33.8254 358.799 29.6988 360H42.3683ZM42.3683 320C26.515 325.784 16.1535 328 0 328L0 324C11.4878 324 19.9028 322.851 29.6988 320H42.3683ZM154.758 320C170.477 325.933 181.005 328 200 328V324C186.315 324 177.229 322.916 167.208 320L154.758 320ZM0 348C16.881 348 27.4367 345.58 44.5448 339.197C45.2693 338.926 47.7411 338 48.0798 337.873C67.2795 330.695 79.2939 328 100 328C120.542 328 130.724 330.444 149.257 337.857C168.224 345.444 178.876 348 200 348V344C179.458 344 169.276 341.556 150.743 334.143C131.776 326.556 121.124 324 100 324C78.7483 324 66.2896 326.795 46.679 334.127C46.3377 334.254 43.8677 335.18 43.1465 335.449C26.447 341.68 16.327 344 0 344L0 348Z" fill="black"/>
<path fill-rule="evenodd" clip-rule="evenodd" d="M242.368 360C243.082 359.739 243.807 359.472 244.545 359.197C245.269 358.926 247.741 358 248.08 357.873C267.279 350.695 279.294 348 300 348C320.542 348 330.724 350.444 349.257 357.857C351.169 358.622 352.996 359.335 354.758 360H367.208C362.186 358.539 356.93 356.618 350.743 354.143C331.776 346.556 321.124 344 300 344C278.748 344 266.29 346.795 246.679 354.127C246.338 354.254 243.868 355.18 243.147 355.449C238.197 357.296 233.825 358.799 229.699 360H242.368ZM242.368 320C226.515 325.784 216.153 328 200 328L200 324C211.488 324 219.903 322.851 229.699 320H242.368ZM354.758 320C370.477 325.933 381.005 328 400 328V324C386.315 324 377.229 322.916 367.208 320L354.758 320ZM200 348C216.881 348 227.437 345.58 244.545 339.197C245.269 338.926 247.741 338 248.08 337.873C267.279 330.695 279.294 328 300 328C320.542 328 330.724 330.444 349.257 337.857C368.224 345.444 378.876 348 400 348V344C379.458 344 369.276 341.556 350.743 334.143C331.776 326.556 321.124 324 300 324C278.748 324 266.29 326.795 246.679 334.127C246.338 334.254 243.868 335.18 243.147 335.449C226.447 341.68 216.327 344 200 344L200 348Z" fill="black"/>
<path fill-rule="evenodd" clip-rule="evenodd" d="M442.368 360C443.082 359.739 443.807 359.472 444.545 359.197C445.269 358.926 447.741 358 448.08 357.873C467.279 350.695 479.294 348 500 348C520.542 348 530.724 350.444 549.257 357.857C551.169 358.622 552.996 359.335 554.758 360H567.208C562.186 358.539 556.93 356.618 550.743 354.143C531.776 346.556 521.124 344 500 344C478.748 344 466.29 346.795 446.679 354.127C446.338 354.254 443.868 355.18 443.147 355.449C438.197 357.296 433.825 358.799 429.699 360H442.368ZM442.368 320C426.515 325.784 416.153 328 400 328L400 324C411.488 324 419.903 322.851 429.699 320H442.368ZM554.758 320C570.477 325.933 581.005 328 600 328V324C586.315 324 577.229 322.916 567.208 320L554.758 320ZM400 348C416.881 348 427.437 345.58 444.545 339.197C445.269 338.926 447.741 338 448.08 337.873C467.279 330.695 479.294 328 500 328C520.542 328 530.724 330.444 549.257 337.857C568.224 345.444 578.876 348 600 348V344C579.458 344 569.276 341.556 550.743 334.143C531.776 326.556 521.124 324 500 324C478.748 324 466.29 326.795 446.679 334.127C446.338 334.254 443.868 335.18 443.147 335.449C426.447 341.68 416.327 344 400 344L400 348Z" fill="black"/>
<path fill-rule="evenodd" clip-rule="evenodd" d="M42.3683 400C43.0823 399.739 43.8075 399.472 44.5448 399.197C45.2693 398.926 47.7411 398 48.0798 397.873C67.2795 390.695 79.2939 388 100 388C120.542 388 130.724 390.444 149.257 397.857C151.169 398.622 152.996 399.335 154.758 400H167.208C162.186 398.539 156.93 396.618 150.743 394.143C131.776 386.556 121.124 384 100 384C78.7483 384 66.2896 386.795 46.679 394.127C46.3377 394.254 43.8677 395.18 43.1465 395.449C38.1969 397.296 33.8254 398.799 29.6988 400H42.3683ZM42.3683 360C26.515 365.784 16.1535 368 0 368L0 364C11.4878 364 19.9028 362.851 29.6988 360H42.3683ZM154.758 360C170.477 365.933 181.005 368 200 368V364C186.315 364 177.229 362.916 167.208 360L154.758 360ZM0 388C16.881 388 27.4367 385.58 44.5448 379.197C45.2693 378.926 47.7411 378 48.0798 377.873C67.2795 370.695 79.2939 368 100 368C120.542 368 130.724 370.444 149.257 377.857C168.224 385.444 178.876 388 200 388V384C179.458 384 169.276 381.556 150.743 374.143C131.776 366.556 121.124 364 100 364C78.7483 364 66.2896 366.795 46.679 374.127C46.3377 374.254 43.8677 375.18 43.1465 375.449C26.447 381.68 16.327 384 0 384L0 388Z" fill="black"/>
<path fill-rule="evenodd" clip-rule="evenodd" d="M242.368 400C243.082 399.739 243.807 399.472 244.545 399.197C245.269 398.926 247.741 398 248.08 397.873C267.279 390.695 279.294 388 300 388C320.542 388 330.724 390.444 349.257 397.857C351.169 398.622 352.996 399.335 354.758 400H367.208C362.186 398.539 356.93 396.618 350.743 394.143C331.776 386.556 321.124 384 300 384C278.748 384 266.29 386.795 246.679 394.127C246.338 394.254 243.868 395.18 243.147 395.449C238.197 397.296 233.825 398.799 229.699 400H242.368ZM242.368 360C226.515 365.784 216.153 368 200 368L200 364C211.488 364 219.903 362.851 229.699 360H242.368ZM354.758 360C370.477 365.933 381.005 368 400 368V364C386.315 364 377.229 362.916 367.208 360L354.758 360ZM200 388C216.881 388 227.437 385.58 244.545 379.197C245.269 378.926 247.741 378 248.08 377.873C267.279 370.695 279.294 368 300 368C320.542 368 330.724 370.444 349.257 377.857C368.224 385.444 378.876 388 400 388V384C379.458 384 369.276 381.556 350.743 374.143C331.776 366.556 321.124 364 300 364C278.748 364 266.29 366.795 246.679 374.127C246.338 374.254 243.868 375.18 243.147 375.449C226.447 381.68 216.327 384 200 384L200 388Z" fill="black"/>
<path fill-rule="evenodd" clip-rule="evenodd" d="M442.368 400C443.082 399.739 443.807 399.472 444.545 399.197C445.269 398.926 447.741 398 448.08 397.873C467.279 390.695 479.294 388 500 388C520.542 388 530.724 390.444 549.257 397.857C551.169 398.622 552.996 399.335 554.758 400H567.208C562.186 398.539 556.93 396.618 550.743 394.143C531.776 386.556 521.124 384 500 384C478.748 384 466.29 386.795 446.679 394.127C446.338 394.254 443.868 395.18 443.147 395.449C438.197 397.296 433.825 398.799 429.699 400H442.368ZM442.368 360C426.515 365.784 416.153 368 400 368L400 364C411.488 364 419.903 362.851 429.699 360H442.368ZM554.758 360C570.477 365.933 581.005 368 600 368V364C586.315 364 577.229 362.916 567.208 360L554.758 360ZM400 388C416.881 388 427.437 385.58 444.545 379.197C445.269 378.926 447.741 378 448.08 377.873C467.279 370.695 479.294 368 500 368C520.542 368 530.724 370.444 549.257 377.857C568.224 385.444 578.876 388 600 388V384C579.458 384 569.276 381.556 550.743 374.143C531.776 366.556 521.124 364 500 364C478.748 364 466.29 366.795 446.679 374.127C446.338 374.254 443.868 375.18 443.147 375.449C426.447 381.68 416.327 384 400 384L400 388Z" fill="black"/>
<path fill-rule="evenodd" clip-rule="evenodd" d="M42.3683 440C43.0823 439.739 43.8075 439.472 44.5448 439.197C45.2693 438.926 47.7411 438 48.0798 437.873C67.2795 430.695 79.2939 428 100 428C120.542 428 130.724 430.444 149.257 437.857C151.169 438.622 152.996 439.335 154.758 440H167.208C162.186 438.539 156.93 436.618 150.743 434.143C131.776 426.556 121.124 424 100 424C78.7483 424 66.2896 426.795 46.679 434.127C46.3377 434.254 43.8677 435.18 43.1465 435.449C38.1969 437.296 33.8254 438.799 29.6988 440H42.3683ZM42.3683 400C26.515 405.784 16.1535 408 0 408L0 404C11.4878 404 19.9028 402.851 29.6988 400H42.3683ZM154.758 400C170.477 405.933 181.005 408 200 408V404C186.315 404 177.229 402.916 167.208 400L154.758 400ZM0 428C16.881 428 27.4367 425.58 44.5448 419.197C45.2693 418.926 47.7411 418 48.0798 417.873C67.2795 410.695 79.2939 408 100 408C120.542 408 130.724 410.444 149.257 417.857C168.224 425.444 178.876 428 200 428V424C179.458 424 169.276 421.556 150.743 414.143C131.776 406.556 121.124 404 100 404C78.7483 404 66.2896 406.795 46.679 414.127C46.3377 414.254 43.8677 415.18 43.1465 415.449C26.447 421.68 16.327 424 0 424L0 428Z" fill="black"/>
<path fill-rule="evenodd" clip-rule="evenodd" d="M242.368 440C243.082 439.739 243.807 439.472 244.545 439.197C245.269 438.926 247.741 438 248.08 437.873C267.279 430.695 279.294 428 300 428C320.542 428 330.724 430.444 349.257 437.857C351.169 438.622 352.996 439.335 354.758 440H367.208C362.186 438.539 356.93 436.618 350.743 434.143C331.776 426.556 321.124 424 300 424C278.748 424 266.29 426.795 246.679 434.127C246.338 434.254 243.868 435.18 243.147 435.449C238.197 437.296 233.825 438.799 229.699 440H242.368ZM242.368 400C226.515 405.784 216.153 408 200 408L200 404C211.488 404 219.903 402.851 229.699 400H242.368ZM354.758 400C370.477 405.933 381.005 408 400 408V404C386.315 404 377.229 402.916 367.208 400L354.758 400ZM200 428C216.881 428 227.437 425.58 244.545 419.197C245.269 418.926 247.741 418 248.08 417.873C267.279 410.695 279.294 408 300 408C320.542 408 330.724 410.444 349.257 417.857C368.224 425.444 378.876 428 400 428V424C379.458 424 369.276 421.556 350.743 414.143C331.776 406.556 321.124 404 300 404C278.748 404 266.29 406.795 246.679 414.127C246.338 414.254 243.868 415.18 243.147 415.449C226.447 421.68 216.327 424 200 424L200 428Z" fill="black"/>
<path fill-rule="evenodd" clip-rule="evenodd" d="M442.368 440C443.082 439.739 443.807 439.472 444.545 439.197C445.269 438.926 447.741 438 448.08 437.873C467.279 430.695 479.294 428 500 428C520.542 428 530.724 430.444 549.257 437.857C551.169 438.622 552.996 439.335 554.758 440H567.208C562.186 438.539 556.93 436.618 550.743 434.143C531.776 426.556 521.124 424 500 424C478.748 424 466.29 426.795 446.679 434.127C446.338 434.254 443.868 435.18 443.147 435.449C438.197 437.296 433.825 438.799 429.699 440H442.368ZM442.368 400C426.515 405.784 416.153 408 400 408L400 404C411.488 404 419.903 402.851 429.699 400H442.368ZM554.758 400C570.477 405.933 581.005 408 600 408V404C586.315 404 577.229 402.916 567.208 400L554.758 400ZM400 428C416.881 428 427.437 425.58 444.545 419.197C445.269 418.926 447.741 418 448.08 417.873C467.279 410.695 479.294 408 500 408C520.542 408 530.724 410.444 549.257 417.857C568.224 425.444 578.876 428 600 428V424C579.458 424 569.276 421.556 550.743 414.143C531.776 406.556 521.124 404 500 404C478.748 404 466.29 406.795 446.679 414.127C446.338 414.254 443.868 415.18 443.147 415.449C426.447 421.68 416.327 424 400 424L400 428Z" fill="black"/>
<path fill-rule="evenodd" clip-rule="evenodd" d="M42.3683 480C43.0823 479.739 43.8075 479.472 44.5448 479.197C45.2693 478.926 47.7411 478 48.0798 477.873C67.2795 470.695 79.2939 468 100 468C120.542 468 130.724 470.444 149.257 477.857C151.169 478.622 152.996 479.335 154.758 480H167.208C162.186 478.539 156.93 476.618 150.743 474.143C131.776 466.556 121.124 464 100 464C78.7483 464 66.2896 466.795 46.679 474.127C46.3377 474.254 43.8677 475.18 43.1465 475.449C38.1969 477.296 33.8254 478.799 29.6988 480H42.3683ZM42.3683 440C26.515 445.784 16.1535 448 0 448L0 444C11.4878 444 19.9028 442.851 29.6988 440H42.3683ZM154.758 440C170.477 445.933 181.005 448 200 448V444C186.315 444 177.229 442.916 167.208 440L154.758 440ZM0 468C16.881 468 27.4367 465.58 44.5448 459.197C45.2693 458.926 47.7411 458 48.0798 457.873C67.2795 450.695 79.2939 448 100 448C120.542 448 130.724 450.444 149.257 457.857C168.224 465.444 178.876 468 200 468V464C179.458 464 169.276 461.556 150.743 454.143C131.776 446.556 121.124 444 100 444C78.7483 444 66.2896 446.795 46.679 454.127C46.3377 454.254 43.8677 455.18 43.1465 455.449C26.447 461.68 16.327 464 0 464L0 468Z" fill="black"/>
<path fill-rule="evenodd" clip-rule="evenodd" d="M242.368 480C243.082 479.739 243.807 479.472 244.545 479.197C245.269 478.926 247.741 478 248.08 477.873C267.279 470.695 279.294 468 300 468C320.542 468 330.724 470.444 349.257 477.857C351.169 478.622 352.996 479.335 354.758 480H367.208C362.186 478.539 356.93 476.618 350.743 474.143C331.776 466.556 321.124 464 300 464C278.748 464 266.29 466.795 246.679 474.127C246.338 474.254 243.868 475.18 243.147 475.449C238.197 477.296 233.825 478.799 229.699 480H242.368ZM242.368 440C226.515 445.784 216.153 448 200 448L200 444C211.488 444 219.903 442.851 229.699 440H242.368ZM354.758 440C370.477 445.933 381.005 448 400 448V444C386.315 444 377.229 442.916 367.208 440L354.758 440ZM200 468C216.881 468 227.437 465.58 244.545 459.197C245.269 458.926 247.741 458 248.08 457.873C267.279 450.695 279.294 448 300 448C320.542 448 330.724 450.444 349.257 457.857C368.224 465.444 378.876 468 400 468V464C379.458 464 369.276 461.556 350.743 454.143C331.776 446.556 321.124 444 300 444C278.748 444 266.29 446.795 246.679 454.127C246.338 454.254 243.868 455.18 243.147 455.449C226.447 461.68 216.327 464 200 464L200 468Z" fill="black"/>
<path fill-rule="evenodd" clip-rule="evenodd" d="M442.368 480C443.082 479.739 443.807 479.472 444.545 479.197C445.269 478.926 447.741 478 448.08 477.873C467.279 470.695 479.294 468 500 468C520.542 468 530.724 470.444 549.257 477.857C551.169 478.622 552.996 479.335 554.758 480H567.208C562.186 478.539 556.93 476.618 550.743 474.143C531.776 466.556 521.124 464 500 464C478.748 464 466.29 466.795 446.679 474.127C446.338 474.254 443.868 475.18 443.147 475.449C438.197 477.296 433.825 478.799 429.699 480H442.368ZM442.368 440C426.515 445.784 416.153 448 400 448L400 444C411.488 444 419.903 442.851 429.699 440H442.368ZM554.758 440C570.477 445.933 581.005 448 600 448V444C586.315 444 577.229 442.916 567.208 440L554.758 440ZM400 468C416.881 468 427.437 465.58 444.545 459.197C445.269 458.926 447.741 458 448.08 457.873C467.279 450.695 479.294 448 500 448C520.542 448 530.724 450.444 549.257 457.857C568.224 465.444 578.876 468 600 468V464C579.458 464 569.276 461.556 550.743 454.143C531.776 446.556 521.124 444 500 444C478.748 444 466.29 446.795 446.679 454.127C446.338 454.254 443.868 455.18 443.147 455.449C426.447 461.68 416.327 464 400 464L400 468Z" fill="black"/>
<path fill-rule="evenodd" clip-rule="evenodd" d="M42.3683 520C43.0823 519.739 43.8075 519.472 44.5448 519.197C45.2693 518.926 47.7411 518 48.0798 517.873C67.2795 510.695 79.2939 508 100 508C120.542 508 130.724 510.444 149.257 517.857C151.169 518.622 152.996 519.335 154.758 520H167.208C162.186 518.539 156.93 516.618 150.743 514.143C131.776 506.556 121.124 504 100 504C78.7483 504 66.2896 506.795 46.679 514.127C46.3377 514.254 43.8677 515.18 43.1465 515.449C38.1969 517.296 33.8254 518.799 29.6988 520H42.3683ZM42.3683 480C26.515 485.784 16.1535 488 0 488L0 484C11.4878 484 19.9028 482.851 29.6988 480H42.3683ZM154.758 480C170.477 485.933 181.005 488 200 488V484C186.315 484 177.229 482.916 167.208 480L154.758 480ZM0 508C16.881 508 27.4367 505.58 44.5448 499.197C45.2693 498.926 47.7411 498 48.0798 497.873C67.2795 490.695 79.2939 488 100 488C120.542 488 130.724 490.444 149.257 497.857C168.224 505.444 178.876 508 200 508V504C179.458 504 169.276 501.556 150.743 494.143C131.776 486.556 121.124 484 100 484C78.7483 484 66.2896 486.795 46.679 494.127C46.3377 494.254 43.8677 495.18 43.1465 495.449C26.447 501.68 16.327 504 0 504L0 508Z" fill="black"/>
<path fill-rule="evenodd" clip-rule="evenodd" d="M242.368 520C243.082 519.739 243.807 519.472 244.545 519.197C245.269 518.926 247.741 518 248.08 517.873C267.279 510.695 279.294 508 300 508C320.542 508 330.724 510.444 349.257 517.857C351.169 518.622 352.996 519.335 354.758 520H367.208C362.186 518.539 356.93 516.618 350.743 514.143C331.776 506.556 321.124 504 300 504C278.748 504 266.29 506.795 246.679 514.127C246.338 514.254 243.868 515.18 243.147 515.449C238.197 517.296 233.825 518.799 229.699 520H242.368ZM242.368 480C226.515 485.784 216.153 488 200 488L200 484C211.488 484 219.903 482.851 229.699 480H242.368ZM354.758 480C370.477 485.933 381.005 488 400 488V484C386.315 484 377.229 482.916 367.208 480L354.758 480ZM200 508C216.881 508 227.437 505.58 244.545 499.197C245.269 498.926 247.741 498 248.08 497.873C267.279 490.695 279.294 488 300 488C320.542 488 330.724 490.444 349.257 497.857C368.224 505.444 378.876 508 400 508V504C379.458 504 369.276 501.556 350.743 494.143C331.776 486.556 321.124 484 300 484C278.748 484 266.29 486.795 246.679 494.127C246.338 494.254 243.868 495.18 243.147 495.449C226.447 501.68 216.327 504 200 504L200 508Z" fill="black"/>
<path fill-rule="evenodd" clip-rule="evenodd" d="M442.368 520C443.082 519.739 443.807 519.472 444.545 519.197C445.269 518.926 447.741 518 448.08 517.873C467.279 510.695 479.294 508 500 508C520.542 508 530.724 510.444 549.257 517.857C551.169 518.622 552.996 519.335 554.758 520H567.208C562.186 518.539 556.93 516.618 550.743 514.143C531.776 506.556 521.124 504 500 504C478.748 504 466.29 506.795 446.679 514.127C446.338 514.254 443.868 515.18 443.147 515.449C438.197 517.296 433.825 518.799 429.699 520H442.368ZM442.368 480C426.515 485.784 416.153 488 400 488L400 484C411.488 484 419.903 482.851 429.699 480H442.368ZM554.758 480C570.477 485.933 581.005 488 600 488V484C586.315 484 577.229 482.916 567.208 480L554.758 480ZM400 508C416.881 508 427.437 505.58 444.545 499.197C445.269 498.926 447.741 498 448.08 497.873C467.279 490.695 479.294 488 500 488C520.542 488 530.724 490.444 549.257 497.857C568.224 505.444 578.876 508 600 508V504C579.458 504 569.276 501.556 550.743 494.143C531.776 486.556 521.124 484 500 484C478.748 484 466.29 486.795 446.679 494.127C446.338 494.254 443.868 495.18 443.147 495.449C426.447 501.68 416.327 504 400 504L400 508Z" fill="black"/>
</g>
<defs>
<clipPath id="clip0_630_1532">
<rect width="600" height="520" fill="white"/>
</clipPath>
</defs>
</svg>
