<svg viewBox="0 0 16 18" fill="none" xmlns="http://www.w3.org/2000/svg">
<path d="M8 0.634277C8.26522 0.634277 8.51957 0.744774 8.70711 0.941458C8.89464 1.13814 9 1.4049 9 1.68306V7.97574H15C15.2652 7.97574 15.5196 8.08624 15.7071 8.28292C15.8946 8.47961 16 8.74637 16 9.02452C16 9.30268 15.8946 9.56944 15.7071 9.76612C15.5196 9.96281 15.2652 10.0733 15 10.0733H9V16.366C9 16.6441 8.89464 16.9109 8.70711 17.1076C8.51957 17.3043 8.26522 17.4148 8 17.4148C7.73478 17.4148 7.48043 17.3043 7.29289 17.1076C7.10536 16.9109 7 16.6441 7 16.366V10.0733H1C0.734784 10.0733 0.48043 9.96281 0.292893 9.76612C0.105357 9.56944 0 9.30268 0 9.02452C0 8.74637 0.105357 8.47961 0.292893 8.28292C0.48043 8.08624 0.734784 7.97574 1 7.97574H7V1.68306C7 1.4049 7.10536 1.13814 7.29289 0.941458C7.48043 0.744774 7.73478 0.634277 8 0.634277Z" fill="black"/>
</svg>
