<svg width="107" height="80" viewBox="0 0 107 80" fill="none" xmlns="http://www.w3.org/2000/svg">
<path d="M6.65975 73.5687C33.6252 77.1521 89.8998 73.041 71.2279 41.4311C53.5181 11.4501 22.7397 48.5602 6.65975 73.5687Z" stroke="#E2A70F"/>
<path d="M40.7469 57.1884C29.6307 60.2228 -2.32419 40.7523 8.83221 26.5845C23.1226 8.43687 47.9401 23.984 55.6642 48.6289" stroke="#E2A70F"/>
<path d="M38.2005 37.39C34.2009 35.8905 21.5743 12.536 38.7003 6.88966C60.6373 -0.342854 65.6998 26.8896 63.6998 32.8896" stroke="#E2A70F"/>
<path d="M69.1998 32.8896C69.1998 43.1069 77.4824 51.3896 87.6995 51.3896C97.9166 51.3896 106.199 43.1069 106.199 32.8896C106.199 22.6724 97.9166 14.3896 87.6995 14.3896C77.4824 14.3896 69.1998 22.6724 69.1998 32.8896Z" stroke="#E2A70F"/>
</svg>
