<svg width="107" height="80" viewBox="0 0 107 80" fill="none" xmlns="http://www.w3.org/2000/svg">
<path d="M6.65975 73.5687C33.6252 77.1521 89.8998 73.041 71.2279 41.4311C53.5181 11.4501 22.7397 48.5602 6.65975 73.5687Z" stroke="#E2A70F" stroke-width="3"/>
<path d="M40.7469 57.1884C29.6307 60.2228 -2.32419 40.7523 8.83221 26.5845C23.1226 8.43687 47.9401 23.984 55.6642 48.6289" stroke="#E2A70F" stroke-width="3"/>
<path d="M38.2005 37.39C34.2009 35.8905 21.5743 12.536 38.7003 6.88966C60.6373 -0.342854 65.6998 26.8896 63.6998 32.8896" stroke="#E2A70F" stroke-width="3"/>
<path d="M70.1998 32.8896C70.1998 42.5547 78.0347 50.3896 87.6995 50.3896C97.3643 50.3896 105.199 42.5547 105.199 32.8896C105.199 23.2246 97.3643 15.3896 87.6995 15.3896C78.0347 15.3896 70.1998 23.2246 70.1998 32.8896Z" stroke="#E2A70F" stroke-width="3"/>
</svg>
