<svg width="28" height="24" viewBox="0 0 28 24" fill="none" xmlns="http://www.w3.org/2000/svg">
<path d="M0 1.71429C0 1.25963 0.184375 0.823594 0.512563 0.502103C0.840752 0.180612 1.28587 0 1.75 0H26.25C26.7141 0 27.1592 0.180612 27.4874 0.502103C27.8156 0.823594 28 1.25963 28 1.71429V5.14286C28 5.59751 27.8156 6.03355 27.4874 6.35504C27.1592 6.67653 26.7141 6.85714 26.25 6.85714V19.7143C26.25 20.8509 25.7891 21.941 24.9686 22.7447C24.1481 23.5485 23.0353 24 21.875 24H6.125C4.96468 24 3.85188 23.5485 3.03141 22.7447C2.21094 21.941 1.75 20.8509 1.75 19.7143V6.85714C1.28587 6.85714 0.840752 6.67653 0.512563 6.35504C0.184375 6.03355 0 5.59751 0 5.14286V1.71429ZM3.5 6.85714V19.7143C3.5 20.3963 3.77656 21.0503 4.26885 21.5326C4.76113 22.0148 5.42881 22.2857 6.125 22.2857H21.875C22.5712 22.2857 23.2389 22.0148 23.7312 21.5326C24.2234 21.0503 24.5 20.3963 24.5 19.7143V6.85714H3.5ZM26.25 1.71429H1.75V5.14286H26.25V1.71429ZM8.75 11.1429C8.75 10.9155 8.84219 10.6975 9.00628 10.5368C9.17038 10.376 9.39294 10.2857 9.625 10.2857H18.375C18.6071 10.2857 18.8296 10.376 18.9937 10.5368C19.1578 10.6975 19.25 10.9155 19.25 11.1429C19.25 11.3702 19.1578 11.5882 18.9937 11.7489C18.8296 11.9097 18.6071 12 18.375 12H9.625C9.39294 12 9.17038 11.9097 9.00628 11.7489C8.84219 11.5882 8.75 11.3702 8.75 11.1429Z" fill="white"/>
</svg>
