<svg width="25" height="25" viewBox="0 0 25 25" fill="none" xmlns="http://www.w3.org/2000/svg">
<path d="M8.59984 22.0836L8.5455 22.1073L8.49434 22.1373L5.32899 23.9925L5.32882 23.9869L5.32808 23.9739L5.09363 19.8431C5.08259 19.5766 5.0183 19.3149 4.90451 19.0735C4.80112 18.8542 4.65878 18.6558 4.48467 18.4878C3.3971 17.1944 2.67081 16.1631 2.20287 15.0605C1.73559 13.9596 1.5 12.7243 1.5 11C1.5 7.769 2.64068 5.30372 4.52253 3.63552C6.41917 1.95421 9.16375 1 12.5 1C19.0263 1 24 5.74601 24 12.1254C24 15.3918 22.9597 17.962 21.1876 19.7145C19.4144 21.4682 16.8103 22.5 13.5 22.5C12.3416 22.5 11.0057 22.2829 9.93262 21.989C9.49069 21.8667 9.02011 21.9 8.59984 22.0836Z" stroke="white" stroke-width="2"/>
</svg>
