<svg width="39" height="39" viewBox="0 0 39 39" fill="none" xmlns="http://www.w3.org/2000/svg">
<g clip-path="url(#clip0_566_991)">
<path d="M0.0957031 17.1908C0.0957031 21.0729 3.34379 24.2226 7.34726 24.2226H10.9126L22.0014 15.6159C23.3309 14.5831 25.2193 14.5905 26.5488 15.6306C27.8782 16.6707 28.271 18.458 27.5156 19.9376L25.3024 24.2226H26.6847H31.5191C35.5226 24.2226 38.7707 21.0729 38.7707 17.1908C38.7707 13.3086 35.5226 10.1589 31.5191 10.1589C31.4813 10.1589 31.436 10.1589 31.3982 10.1589C31.4813 9.77806 31.5191 9.38985 31.5191 8.98698C31.5191 5.74942 28.8149 3.12714 25.4761 3.12714C23.6406 3.12714 21.9939 3.92554 20.8835 5.17808C19.4709 2.56313 16.6459 0.783203 13.3902 0.783203C8.71448 0.783203 4.93007 4.45293 4.93007 8.98698C4.93007 9.50704 4.98295 10.0198 5.07359 10.5105C2.18053 11.4335 0.0957031 14.0777 0.0957031 17.1908ZM25.0305 17.4545C24.5924 17.1102 23.9578 17.1102 23.5122 17.4471L11.4263 26.8229C11.0259 27.1305 10.8673 27.6579 11.041 28.1267C11.2148 28.5955 11.668 28.9104 12.1816 28.9104H17.4768L13.5186 36.5868C13.2618 37.0776 13.3978 37.6782 13.8434 38.0225C14.2891 38.3668 14.9161 38.3668 15.3617 38.0298L27.4477 28.6541C27.848 28.3464 28.0066 27.819 27.8329 27.3503C27.6592 26.8815 27.2059 26.5665 26.6923 26.5665H21.3896L25.3477 18.8901C25.6046 18.3994 25.4686 17.7987 25.0305 17.4545Z" fill="white"/>
</g>
<defs>
<clipPath id="clip0_566_991">
<rect width="38.675" height="37.503" fill="white" transform="translate(0.0957031 0.783203)"/>
</clipPath>
</defs>
</svg>
