<svg width="100" height="100" viewBox="0 0 100 100" fill="none" xmlns="http://www.w3.org/2000/svg">
<path d="M50 93.75C38.3968 93.75 27.2688 89.1406 19.0641 80.9359C10.8594 72.7312 6.25 61.6032 6.25 50C6.25 38.3968 10.8594 27.2688 19.0641 19.0641C27.2688 10.8594 38.3968 6.25 50 6.25C61.6032 6.25 72.7312 10.8594 80.9359 19.0641C89.1406 27.2688 93.75 38.3968 93.75 50C93.75 61.6032 89.1406 72.7312 80.9359 80.9359C72.7312 89.1406 61.6032 93.75 50 93.75ZM50 100C63.2608 100 75.9785 94.7322 85.3553 85.3553C94.7322 75.9785 100 63.2608 100 50C100 36.7392 94.7322 24.0215 85.3553 14.6447C75.9785 5.26784 63.2608 0 50 0C36.7392 0 24.0215 5.26784 14.6447 14.6447C5.26784 24.0215 0 36.7392 0 50C0 63.2608 5.26784 75.9785 14.6447 85.3553C24.0215 94.7322 36.7392 100 50 100Z" fill="white"/>
<path d="M29.0375 29.0372C29.3278 28.7462 29.6726 28.5153 30.0523 28.3578C30.4319 28.2002 30.8389 28.1191 31.25 28.1191C31.661 28.1191 32.068 28.2002 32.4477 28.3578C32.8273 28.5153 33.1722 28.7462 33.4625 29.0372L50 45.581L66.5375 29.0372C66.828 28.7467 67.173 28.5162 67.5526 28.359C67.9322 28.2017 68.3391 28.1208 68.75 28.1208C69.1609 28.1208 69.5677 28.2017 69.9474 28.359C70.327 28.5162 70.6719 28.7467 70.9625 29.0372C71.253 29.3278 71.4835 29.6727 71.6407 30.0523C71.798 30.4319 71.8789 30.8388 71.8789 31.2497C71.8789 31.6606 71.798 32.0675 71.6407 32.4471C71.4835 32.8267 71.253 33.1717 70.9625 33.4622L54.4187 49.9997L70.9625 66.5372C71.253 66.8278 71.4835 67.1727 71.6407 67.5523C71.798 67.9319 71.8789 68.3388 71.8789 68.7497C71.8789 69.1606 71.798 69.5675 71.6407 69.9471C71.4835 70.3267 71.253 70.6717 70.9625 70.9622C70.6719 71.2528 70.327 71.4833 69.9474 71.6405C69.5677 71.7977 69.1609 71.8787 68.75 71.8787C68.3391 71.8787 67.9322 71.7977 67.5526 71.6405C67.173 71.4833 66.828 71.2528 66.5375 70.9622L50 54.4185L33.4625 70.9622C33.1719 71.2528 32.827 71.4833 32.4474 71.6405C32.0677 71.7977 31.6609 71.8787 31.25 71.8787C30.8391 71.8787 30.4322 71.7977 30.0526 71.6405C29.673 71.4833 29.328 71.2528 29.0375 70.9622C28.7469 70.6717 28.5164 70.3267 28.3592 69.9471C28.202 69.5675 28.121 69.1606 28.121 68.7497C28.121 68.3388 28.202 67.9319 28.3592 67.5523C28.5164 67.1727 28.7469 66.8278 29.0375 66.5372L45.5812 49.9997L29.0375 33.4622C28.7464 33.1719 28.5156 32.8271 28.358 32.4474C28.2005 32.0678 28.1194 31.6608 28.1194 31.2497C28.1194 30.8387 28.2005 30.4317 28.358 30.052C28.5156 29.6724 28.7464 29.3275 29.0375 29.0372Z" fill="white"/>
</svg>
