<svg width="30" height="38" viewBox="0 0 30 38" fill="none" xmlns="http://www.w3.org/2000/svg">
<g clip-path="url(#clip0_566_997)">
<path d="M15.0187 37.7706C7.25441 37.7706 0.955078 31.4712 0.955078 23.7069C0.955078 17.0267 10.492 4.49399 13.1582 1.12458C13.5977 0.57522 14.2496 0.267578 14.9528 0.267578H15.0846C15.7878 0.267578 16.4397 0.57522 16.8792 1.12458C19.5454 4.49399 29.0823 17.0267 29.0823 23.7069C29.0823 31.4712 22.783 37.7706 15.0187 37.7706ZM7.98689 24.8789C7.98689 24.2343 7.4595 23.7069 6.81492 23.7069C6.17034 23.7069 5.64295 24.2343 5.64295 24.8789C5.64295 29.413 9.31268 33.0827 13.8467 33.0827C14.4913 33.0827 15.0187 32.5553 15.0187 31.9107C15.0187 31.2661 14.4913 30.7388 13.8467 30.7388C10.6092 30.7388 7.98689 28.1165 7.98689 24.8789Z" fill="white"/>
</g>
<defs>
<clipPath id="clip0_566_997">
<rect width="28.1272" height="37.503" fill="white" transform="translate(0.955078 0.267578)"/>
</clipPath>
</defs>
</svg>
