<svg width="22" height="22" viewBox="0 0 22 22" fill="none" xmlns="http://www.w3.org/2000/svg">
<path d="M11.5321 8.53125C11.5321 8.3572 11.4629 8.19028 11.3399 8.06721C11.2168 7.94414 11.0499 7.875 10.8758 7.875C10.7018 7.875 10.5349 7.94414 10.4118 8.06721C10.2887 8.19028 10.2196 8.3572 10.2196 8.53125V13.5096L8.71545 12.0041C8.65444 11.9431 8.582 11.8947 8.50228 11.8617C8.42256 11.8287 8.33712 11.8117 8.25083 11.8117C8.16454 11.8117 8.0791 11.8287 7.99938 11.8617C7.91966 11.8947 7.84722 11.9431 7.7862 12.0041C7.72519 12.0651 7.67679 12.1376 7.64377 12.2173C7.61075 12.297 7.59375 12.3825 7.59375 12.4688C7.59375 12.555 7.61075 12.6405 7.64377 12.7202C7.67679 12.7999 7.72519 12.8724 7.7862 12.9334L10.4112 15.5584C10.4722 15.6195 10.5446 15.668 10.6243 15.7011C10.704 15.7341 10.7895 15.7512 10.8758 15.7512C10.9621 15.7512 11.0476 15.7341 11.1273 15.7011C11.2071 15.668 11.2795 15.6195 11.3405 15.5584L13.9655 12.9334C14.0265 12.8724 14.0749 12.7999 14.1079 12.7202C14.1409 12.6405 14.1579 12.555 14.1579 12.4688C14.1579 12.3825 14.1409 12.297 14.1079 12.2173C14.0749 12.1376 14.0265 12.0651 13.9655 12.0041C13.9044 11.9431 13.832 11.8947 13.7523 11.8617C13.6726 11.8287 13.5871 11.8117 13.5008 11.8117C13.4145 11.8117 13.3291 11.8287 13.2494 11.8617C13.1697 11.8947 13.0972 11.9431 13.0362 12.0041L11.5321 13.5096V8.53125Z" fill="#4A4A4A"/>
<path d="M18.75 18.375V5.90625L12.8438 0H5.625C4.92881 0 4.26113 0.276562 3.76884 0.768845C3.27656 1.26113 3 1.92881 3 2.625V18.375C3 19.0712 3.27656 19.7389 3.76884 20.2312C4.26113 20.7234 4.92881 21 5.625 21H16.125C16.8212 21 17.4889 20.7234 17.9812 20.2312C18.4734 19.7389 18.75 19.0712 18.75 18.375ZM12.8438 3.9375C12.8438 4.45964 13.0512 4.9604 13.4204 5.32962C13.7896 5.69883 14.2904 5.90625 14.8125 5.90625H17.4375V18.375C17.4375 18.7231 17.2992 19.0569 17.0531 19.3031C16.8069 19.5492 16.4731 19.6875 16.125 19.6875H5.625C5.2769 19.6875 4.94306 19.5492 4.69692 19.3031C4.45078 19.0569 4.3125 18.7231 4.3125 18.375V2.625C4.3125 2.2769 4.45078 1.94306 4.69692 1.69692C4.94306 1.45078 5.2769 1.3125 5.625 1.3125H12.8438V3.9375Z" fill="#4A4A4A"/>
</svg>
