<svg width="22" height="13" viewBox="0 0 22 13" fill="none" xmlns="http://www.w3.org/2000/svg">
<path d="M7.43159 8.40196L6.8728 8.85916L7.34909 9.4413L7.91126 8.94159L7.43159 8.40196ZM13.9296 2.62596L14.5019 2.18575L14.0293 1.57136L13.4499 2.08633L13.9296 2.62596ZM21.1496 12.012L20.0515 3.74766L13.4435 8.83078L21.1496 12.012ZM0.374797 0.917159L6.8728 8.85916L7.99039 7.94476L1.49239 0.00276325L0.374797 0.917159ZM7.91126 8.94159L14.4093 3.16559L13.4499 2.08633L6.95192 7.86233L7.91126 8.94159ZM13.3573 3.06617L16.6154 7.3017L17.76 6.42128L14.5019 2.18575L13.3573 3.06617Z" fill="#F54A4A"/>
</svg>
