<svg width="21" height="13" viewBox="0 0 21 13" fill="none" xmlns="http://www.w3.org/2000/svg">
<path d="M7.42857 3.60918L6.86742 3.15488L7.34566 2.56415L7.91107 3.07208L7.42857 3.60918ZM13.8571 9.38418L14.4317 9.82147L13.9573 10.4447L13.3746 9.92128L13.8571 9.38418ZM21 -0.000195503L19.9441 8.2696L13.3102 3.22025L21 -0.000195503ZM0.438845 11.0955L6.86742 3.15488L7.98973 4.06348L1.56116 12.0041L0.438845 11.0955ZM7.91107 3.07208L14.3396 8.84708L13.3746 9.92128L6.94607 4.14628L7.91107 3.07208ZM13.2826 8.94689L16.4899 4.73313L17.6389 5.6077L14.4317 9.82147L13.2826 8.94689Z" fill="#45C053"/>
</svg>
