<svg width="31" height="38" viewBox="0 0 31 38" fill="none" xmlns="http://www.w3.org/2000/svg">
<g clip-path="url(#clip0_566_995)">
<path d="M23.4595 18.499C24.5582 16.9901 25.1991 15.1516 25.1991 13.1592C25.1991 7.9806 20.8271 3.78348 15.4327 3.78348C10.0383 3.78348 5.66631 7.9806 5.66631 13.1592C5.66631 15.1516 6.30723 16.9901 7.40595 18.499C7.68826 18.8872 8.02398 19.3267 8.38259 19.7955C9.36686 21.092 10.5419 22.6448 11.4193 24.1757C12.2128 25.5674 12.6172 27.0178 12.8156 28.3875H9.09981C8.93195 27.5085 8.64964 26.6515 8.19947 25.8604C7.4441 24.542 6.50561 23.3041 5.56712 22.0662C5.17036 21.5461 4.7736 21.0261 4.3921 20.4987C2.88899 18.4258 2.00391 15.8914 2.00391 13.1592C2.00391 6.03952 8.01635 0.267578 15.4327 0.267578C22.8491 0.267578 28.8615 6.03952 28.8615 13.1592C28.8615 15.8914 27.9764 18.4258 26.4657 20.506C26.0842 21.0334 25.6874 21.5535 25.2907 22.0735C24.3522 23.3041 23.4137 24.542 22.6583 25.8678C22.2082 26.6588 21.9258 27.5158 21.758 28.3948H18.0574C18.2558 27.0251 18.6602 25.5674 19.4537 24.1831C20.3312 22.6522 21.5062 21.0993 22.4905 19.8028C22.8491 19.334 23.1772 18.8946 23.4595 18.5063V18.499ZM15.4327 9.64332C13.4108 9.64332 11.7703 11.2182 11.7703 13.1592C11.7703 13.8038 11.2209 14.3312 10.5495 14.3312C9.87807 14.3312 9.32871 13.8038 9.32871 13.1592C9.32871 9.92167 12.0602 7.29939 15.4327 7.29939C16.1042 7.29939 16.6535 7.82677 16.6535 8.47136C16.6535 9.11594 16.1042 9.64332 15.4327 9.64332ZM15.4327 37.7706C12.0602 37.7706 9.32871 35.1483 9.32871 31.9107V30.7388H21.5367V31.9107C21.5367 35.1483 18.8052 37.7706 15.4327 37.7706Z" fill="white"/>
</g>
<defs>
<clipPath id="clip0_566_995">
<rect width="29.2992" height="37.503" fill="white" transform="translate(0.783203 0.267578)"/>
</clipPath>
</defs>
</svg>
