<svg width="40" height="40" viewBox="0 0 40 40" fill="none" xmlns="http://www.w3.org/2000/svg">
<g clip-path="url(#clip0_69_14)">
<path d="M5 15.0002C4.99992 12.5233 5.61324 10.0848 6.7852 7.90264C7.95716 5.72047 9.65127 3.86248 11.7163 2.49457C13.7813 1.12667 16.1529 0.291429 18.6193 0.0634368C21.0858 -0.164556 23.5703 0.221794 25.8511 1.18799C28.1318 2.15418 30.1378 3.67015 31.6899 5.60052C33.242 7.53089 34.2919 9.81558 34.7459 12.2506C35.1999 14.6856 35.0438 17.1951 34.2916 19.5551C33.5393 21.9151 32.2144 24.0521 30.435 25.7752C29.9275 26.2652 29.5375 26.7752 29.3025 27.3227L27.3975 31.7452C27.3008 31.9694 27.1407 32.1603 26.9368 32.2945C26.7328 32.4286 26.4941 32.5002 26.25 32.5002C26.5815 32.5002 26.8995 32.6319 27.1339 32.8663C27.3683 33.1008 27.5 33.4187 27.5 33.7502C27.5 34.0818 27.3683 34.3997 27.1339 34.6341C26.8995 34.8685 26.5815 35.0002 26.25 35.0002C26.5815 35.0002 26.8995 35.1319 27.1339 35.3663C27.3683 35.6008 27.5 35.9187 27.5 36.2502C27.5 36.5818 27.3683 36.8997 27.1339 37.1341C26.8995 37.3685 26.5815 37.5002 26.25 37.5002L25.69 38.6177C25.4825 39.0329 25.1636 39.3822 24.7688 39.6263C24.3741 39.8705 23.9192 40 23.455 40.0002H16.545C16.0808 40 15.6259 39.8705 15.2312 39.6263C14.8364 39.3822 14.5175 39.0329 14.31 38.6177L13.75 37.5002C13.4185 37.5002 13.1005 37.3685 12.8661 37.1341C12.6317 36.8997 12.5 36.5818 12.5 36.2502C12.5 35.9187 12.6317 35.6008 12.8661 35.3663C13.1005 35.1319 13.4185 35.0002 13.75 35.0002C13.4185 35.0002 13.1005 34.8685 12.8661 34.6341C12.6317 34.3997 12.5 34.0818 12.5 33.7502C12.5 33.4187 12.6317 33.1008 12.8661 32.8663C13.1005 32.6319 13.4185 32.5002 13.75 32.5002C13.5055 32.5007 13.2662 32.4294 13.0618 32.2952C12.8574 32.161 12.6968 31.9698 12.6 31.7452L10.6975 27.3202C10.4251 26.7359 10.0403 26.2109 9.565 25.7752C8.11906 24.3781 6.96958 22.7039 6.18524 20.8526C5.40089 19.0013 4.99779 17.0108 5 15.0002ZM20 2.50023C17.5104 2.49981 15.0774 3.24281 13.0128 4.63401C10.9482 6.02521 9.34602 8.00123 8.41165 10.3088C7.47727 12.6164 7.25325 15.1505 7.7683 17.5862C8.28334 20.0219 9.51398 22.2484 11.3025 23.9802C11.96 24.6152 12.5875 25.3902 12.9925 26.3327L14.575 30.0002H25.43L27.01 26.3327C27.415 25.3902 28.0425 24.6152 28.7 23.9802C30.4887 22.2482 31.7194 20.0216 32.2343 17.5856C32.7493 15.1496 32.5251 12.6154 31.5904 10.3077C30.6557 7.99997 29.0532 6.02397 26.9882 4.63296C24.9232 3.24195 22.4898 2.49931 20 2.50023Z" fill="white"/>
</g>
<defs>
<clipPath id="clip0_69_14">
<rect width="40" height="40" fill="white"/>
</clipPath>
</defs>
</svg>
