<svg width="35" height="38" viewBox="0 0 35 38" fill="none" xmlns="http://www.w3.org/2000/svg">
<path d="M19.8607 6.12714C19.8607 4.83065 18.7758 3.7832 17.433 3.7832C16.0902 3.7832 15.0054 4.83065 15.0054 6.12714V16.6749H4.08097C2.73818 16.6749 1.65332 17.7223 1.65332 19.0188C1.65332 20.3153 2.73818 21.3627 4.08097 21.3627H15.0054V31.9104C15.0054 33.2069 16.0902 34.2544 17.433 34.2544C18.7758 34.2544 19.8607 33.2069 19.8607 31.9104V21.3627H30.7851C32.1279 21.3627 33.2128 20.3153 33.2128 19.0188C33.2128 17.7223 32.1279 16.6749 30.7851 16.6749H19.8607V6.12714Z" fill="white"/>
</svg>
