<svg  viewBox="0 0 22 22" fill="none" xmlns="http://www.w3.org/2000/svg">
<path d="M16.1459 14.0701C17.4772 12.3273 18.0735 10.1665 17.8155 8.02003C17.5574 5.87354 16.4641 3.89968 14.7541 2.49333C13.0442 1.08699 10.8437 0.35188 8.59306 0.435074C6.34239 0.518268 4.20746 1.41363 2.61538 2.94203C1.0233 4.47043 0.0915006 6.51916 0.00638874 8.67833C-0.0787231 10.8375 0.689134 12.9479 2.15634 14.5873C3.62354 16.2266 5.68189 17.2741 7.91959 17.5201C10.1573 17.7662 12.4093 17.1926 14.2251 15.9141H14.2237C14.2649 15.9669 14.3089 16.017 14.3584 16.0658L19.652 21.144C19.9098 21.3915 20.2596 21.5306 20.6243 21.5308C20.989 21.5309 21.3389 21.392 21.5969 21.1447C21.8549 20.8974 21.9999 20.5618 22 20.2119C22.0001 19.862 21.8554 19.5264 21.5975 19.2789L16.304 14.2007C16.2548 14.153 16.202 14.1102 16.1459 14.0701ZM16.5006 8.99986C16.5006 9.95254 16.305 10.8959 15.925 11.7761C15.5449 12.6562 14.9879 13.456 14.2857 14.1296C13.5835 14.8033 12.7498 15.3376 11.8323 15.7022C10.9148 16.0668 9.93148 16.2544 8.9384 16.2544C7.94531 16.2544 6.96195 16.0668 6.04446 15.7022C5.12697 15.3376 4.29332 14.8033 3.5911 14.1296C2.88889 13.456 2.33186 12.6562 1.95182 11.7761C1.57179 10.8959 1.37618 9.95254 1.37618 8.99986C1.37618 7.07582 2.17291 5.23059 3.5911 3.8701C5.0093 2.5096 6.93277 1.74528 8.9384 1.74528C10.944 1.74528 12.8675 2.5096 14.2857 3.8701C15.7039 5.23059 16.5006 7.07582 16.5006 8.99986Z" fill="#4A4A4A"/>
</svg>
