<svg width="25" height="25" viewBox="0 0 25 25" fill="none" xmlns="http://www.w3.org/2000/svg">
<path d="M12.1954 7.24609C11.5456 7.24609 10.9021 7.37409 10.3017 7.62276C9.70139 7.87144 9.15589 8.23593 8.6964 8.69542C8.23691 9.15492 7.87242 9.70041 7.62374 10.3008C7.37506 10.9011 7.24707 11.5446 7.24707 12.1944C7.24707 12.8442 7.37506 13.4877 7.62374 14.0881C7.87242 14.6884 8.23691 15.2339 8.6964 15.6934C9.15589 16.1529 9.70139 16.5174 10.3017 16.7661C10.9021 17.0147 11.5456 17.1427 12.1954 17.1427C13.5078 17.1427 14.7664 16.6214 15.6944 15.6934C16.6224 14.7654 17.1437 13.5068 17.1437 12.1944C17.1437 10.882 16.6224 9.62341 15.6944 8.69542C14.7664 7.76743 13.5078 7.24609 12.1954 7.24609ZM8.77151 12.1944C8.77151 11.2863 9.13224 10.4155 9.77434 9.77336C10.4164 9.13126 11.2873 8.77053 12.1954 8.77053C13.1035 8.77053 13.9743 9.13126 14.6164 9.77336C15.2585 10.4155 15.6193 11.2863 15.6193 12.1944C15.6193 13.1025 15.2585 13.9734 14.6164 14.6155C13.9743 15.2576 13.1035 15.6183 12.1954 15.6183C11.2873 15.6183 10.4164 15.2576 9.77434 14.6155C9.13224 13.9734 8.77151 13.1025 8.77151 12.1944Z" fill="white"/>
<path d="M14.9326 2.04655C14.1292 -0.682185 10.2602 -0.682185 9.45684 2.04655L9.31354 2.53285C9.25743 2.72333 9.15941 2.89884 9.02667 3.04652C8.89392 3.1942 8.7298 3.3103 8.54635 3.38631C8.3629 3.46232 8.16477 3.49631 7.96648 3.4858C7.76818 3.47529 7.57476 3.42054 7.40037 3.32556L6.95524 3.08165C4.45516 1.72185 1.72185 4.45669 3.08317 6.95524L3.32556 7.40037C3.42054 7.57476 3.47529 7.76818 3.4858 7.96648C3.49631 8.16477 3.46232 8.3629 3.38631 8.54635C3.3103 8.7298 3.1942 8.89392 3.04652 9.02667C2.89884 9.15941 2.72333 9.25743 2.53285 9.31354L2.04655 9.45684C-0.682185 10.2602 -0.682185 14.1292 2.04655 14.9326L2.53285 15.0759C2.72333 15.132 2.89884 15.23 3.04652 15.3628C3.1942 15.4955 3.3103 15.6596 3.38631 15.8431C3.46232 16.0265 3.49631 16.2247 3.4858 16.423C3.47529 16.6213 3.42054 16.8147 3.32556 16.9891L3.08165 17.4342C1.72185 19.9343 4.45516 22.6691 6.95524 21.3063L7.40037 21.0639C7.57476 20.9689 7.76818 20.9142 7.96648 20.9036C8.16477 20.8931 8.3629 20.9271 8.54635 21.0031C8.7298 21.0791 8.89392 21.1952 9.02667 21.3429C9.15941 21.4906 9.25743 21.6661 9.31354 21.8566L9.45684 22.3429C10.2602 25.0716 14.1292 25.0716 14.9326 22.3429L15.0759 21.8566C15.132 21.6661 15.23 21.4906 15.3628 21.3429C15.4955 21.1952 15.6596 21.0791 15.8431 21.0031C16.0265 20.9271 16.2247 20.8931 16.423 20.9036C16.6213 20.9142 16.8147 20.9689 16.9891 21.0639L17.4342 21.3078C19.9343 22.6691 22.6691 19.9328 21.3063 17.4342L21.0639 16.9891C20.9689 16.8147 20.9142 16.6213 20.9036 16.423C20.8931 16.2247 20.9271 16.0265 21.0031 15.8431C21.0791 15.6596 21.1952 15.4955 21.3429 15.3628C21.4906 15.23 21.6661 15.132 21.8566 15.0759L22.3429 14.9326C25.0716 14.1292 25.0716 10.2602 22.3429 9.45684L21.8566 9.31354C21.6661 9.25743 21.4906 9.15941 21.3429 9.02667C21.1952 8.89392 21.0791 8.7298 21.0031 8.54635C20.9271 8.3629 20.8931 8.16477 20.9036 7.96648C20.9142 7.76818 20.9689 7.57476 21.0639 7.40037L21.3078 6.95524C22.6691 4.45516 19.9328 1.72185 17.4342 3.08317L16.9891 3.32556C16.8147 3.42054 16.6213 3.47529 16.423 3.4858C16.2247 3.49631 16.0265 3.46232 15.8431 3.38631C15.6596 3.3103 15.4955 3.1942 15.3628 3.04652C15.23 2.89884 15.132 2.72333 15.0759 2.53285L14.9326 2.04655ZM10.9188 2.47797C11.2938 1.20507 13.0957 1.20507 13.4707 2.47797L13.614 2.96426C13.7344 3.37294 13.9448 3.74948 14.2297 4.06628C14.5146 4.38307 14.8668 4.63209 15.2605 4.79508C15.6541 4.95807 16.0793 5.03089 16.5047 5.00821C16.9302 4.98553 17.3452 4.86792 17.7193 4.66401L18.1629 4.4201C19.3276 3.78746 20.602 5.06036 19.9678 6.22656L19.7254 6.67169C19.5218 7.04583 19.4045 7.46078 19.3821 7.88614C19.3596 8.3115 19.4327 8.73649 19.5958 9.12997C19.7589 9.52345 20.008 9.87545 20.3248 10.1602C20.6416 10.4449 21.0181 10.6551 21.4267 10.7755L21.9115 10.9188C23.1844 11.2938 23.1844 13.0957 21.9115 13.4707L21.4252 13.614C21.0165 13.7344 20.64 13.9448 20.3232 14.2297C20.0064 14.5146 19.7574 14.8668 19.5944 15.2605C19.4314 15.6541 19.3586 16.0793 19.3812 16.5047C19.4039 16.9302 19.5215 17.3452 19.7254 17.7193L19.9693 18.1629C20.602 19.3276 19.3291 20.602 18.1629 19.9678L17.7193 19.7254C17.3451 19.5215 16.93 19.404 16.5044 19.3814C16.0789 19.3588 15.6537 19.4318 15.26 19.5949C14.8664 19.7581 14.5142 20.0073 14.2294 20.3242C13.9445 20.6412 13.7343 21.0179 13.614 21.4267L13.4707 21.9115C13.0957 23.1844 11.2938 23.1844 10.9188 21.9115L10.7755 21.4252C10.655 21.0167 10.4446 20.6404 10.1598 20.3237C9.875 20.0071 9.52298 19.7582 9.12952 19.5952C8.73606 19.4323 8.31113 19.3594 7.88586 19.3819C7.46058 19.4044 7.04573 19.5218 6.67169 19.7254L6.22656 19.9693C5.06189 20.602 3.78746 19.3291 4.42162 18.1629L4.66401 17.7193C4.86821 17.3451 4.98605 16.93 5.00888 16.5044C5.03171 16.0787 4.95895 15.6534 4.79594 15.2595C4.63293 14.8657 4.38381 14.5133 4.06686 14.2283C3.7499 13.9433 3.37316 13.7329 2.96426 13.6124L2.47797 13.4692C1.20507 13.0941 1.20507 11.2923 2.47797 10.9172L2.96426 10.7739C3.37252 10.6534 3.74865 10.4431 4.06512 10.1584C4.3816 9.87367 4.63042 9.52182 4.79336 9.12856C4.95631 8.73529 5.02926 8.31057 5.00688 7.88548C4.9845 7.46038 4.86735 7.04567 4.66401 6.67169L4.4201 6.22656C3.78746 5.06189 5.06036 3.78746 6.22656 4.42162L6.67169 4.66401C7.04573 4.86764 7.46058 4.98502 7.88586 5.00755C8.31113 5.03008 8.73606 4.95719 9.12952 4.79422C9.52298 4.63126 9.875 4.38234 10.1598 4.0657C10.4446 3.74906 10.655 3.37273 10.7755 2.96426L10.9188 2.47797Z" fill="white"/>
</svg>
