<svg width="40" height="39" viewBox="0 0 40 39" fill="none" xmlns="http://www.w3.org/2000/svg">
<g clip-path="url(#clip0_566_999)">
<path d="M34.7957 7.81501C34.7957 7.19336 34.541 6.59717 34.0877 6.1576C33.6344 5.71803 33.0196 5.47108 32.3785 5.47108C31.7374 5.47108 31.1226 5.71803 30.6693 6.1576C30.216 6.59717 29.9613 7.19336 29.9613 7.81501C29.9613 8.43666 30.216 9.03285 30.6693 9.47243C31.1226 9.912 31.7374 10.1589 32.3785 10.1589C33.0196 10.1589 33.6344 9.912 34.0877 9.47243C34.541 9.03285 34.7957 8.43666 34.7957 7.81501ZM25.1269 7.81501C25.1269 5.95006 25.8909 4.16149 27.2509 2.84277C28.6108 1.52405 30.4552 0.783203 32.3785 0.783203C34.3017 0.783203 36.1462 1.52405 37.5061 2.84277C38.866 4.16149 39.63 5.95006 39.63 7.81501C39.63 9.67997 38.866 11.4685 37.5061 12.7873C36.1462 14.106 34.3017 14.8468 32.3785 14.8468C30.4552 14.8468 28.6108 14.106 27.2509 12.7873C25.8909 11.4685 25.1269 9.67997 25.1269 7.81501ZM11.8324 5.47108C9.83068 5.47108 8.20663 7.04591 8.20663 8.98698V21.0363C8.20663 22.3035 7.67032 23.3729 7.05092 24.1493C6.25778 25.1455 5.78945 26.3834 5.78945 27.7385C5.78945 30.976 8.49367 33.5983 11.8324 33.5983C15.1711 33.5983 17.8754 30.976 17.8754 27.7385C17.8754 26.3834 17.407 25.1455 16.6139 24.1566C15.9945 23.3802 15.4582 22.3108 15.4582 21.0436V8.98698C15.4582 7.04591 13.8341 5.47108 11.8324 5.47108ZM3.37226 8.98698C3.37226 4.46025 7.15667 0.783203 11.8324 0.783203C16.5082 0.783203 20.2926 4.45293 20.2926 8.98698V21.0363C20.2926 21.0436 20.3001 21.0583 20.3077 21.0802C20.3228 21.1242 20.3681 21.1974 20.4361 21.2853C21.8637 23.0726 22.7097 25.314 22.7097 27.7385C22.7097 33.5617 17.8376 38.2862 11.8324 38.2862C5.82722 38.2862 0.955078 33.5617 0.955078 27.7385C0.955078 25.3066 1.80109 23.0653 3.22874 21.2853C3.29673 21.1974 3.34205 21.1242 3.35716 21.0802C3.36471 21.0583 3.37226 21.0436 3.37226 21.0363V8.98698ZM15.4582 27.7385C15.4582 29.6795 13.8341 31.2544 11.8324 31.2544C9.83068 31.2544 8.20663 29.6795 8.20663 27.7385C8.20663 26.2076 9.21883 24.9038 10.6238 24.4203V20.7067C10.6238 20.0621 11.1677 19.5347 11.8324 19.5347C12.4971 19.5347 13.041 20.0621 13.041 20.7067V24.4203C14.446 24.9038 15.4582 26.2076 15.4582 27.7385Z" fill="white"/>
</g>
<defs>
<clipPath id="clip0_566_999">
<rect width="38.675" height="37.503" fill="white" transform="translate(0.955078 0.783203)"/>
</clipPath>
</defs>
</svg>
