<svg width="38" height="38" viewBox="0 0 38 38" fill="none" xmlns="http://www.w3.org/2000/svg">
<g clip-path="url(#clip0_566_1005)">
<path d="M16.6746 7.29939C16.6746 6.67774 16.9216 6.08155 17.3612 5.64197C17.8007 5.2024 18.3969 4.95545 19.0186 4.95545C19.6402 4.95545 20.2364 5.2024 20.676 5.64197C21.1156 6.08155 21.3625 6.67774 21.3625 7.29939C21.3625 7.92104 21.1156 8.51723 20.676 8.9568C20.2364 9.39638 19.6402 9.64332 19.0186 9.64332C18.3969 9.64332 17.8007 9.39638 17.3612 8.9568C16.9216 8.51723 16.6746 7.92104 16.6746 7.29939ZM25.6475 9.64332C25.9039 8.91084 26.0504 8.11977 26.0504 7.29939C26.0504 3.41724 22.9007 0.267578 19.0186 0.267578C15.1364 0.267578 11.9868 3.41724 11.9868 7.29939C11.9868 8.11977 12.1259 8.91084 12.3896 9.64332H9.05684C7.44539 9.64332 6.03903 10.742 5.64349 12.3096L0.369629 33.405C0.105937 34.4524 0.34033 35.5658 1.00689 36.4228C1.67344 37.2798 2.69892 37.7706 3.78299 37.7706H34.2542C35.3382 37.7706 36.3564 37.2725 37.0229 36.4155C37.6895 35.5585 37.9239 34.4524 37.6602 33.3977L32.3863 12.3022C31.9981 10.742 30.5918 9.64332 28.9803 9.64332H25.6475Z" fill="white"/>
</g>
<defs>
<clipPath id="clip0_566_1005">
<rect width="37.503" height="37.503" fill="white" transform="translate(0.267578 0.267578)"/>
</clipPath>
</defs>
</svg>
